<?xml version="1.0" encoding="utf-8" standalone="no"?>
<!DOCTYPE svg PUBLIC "-//W3C//DTD SVG 1.1//EN"
  "http://www.w3.org/Graphics/SVG/1.1/DTD/svg11.dtd">
<svg xmlns:xlink="http://www.w3.org/1999/xlink" width="938.88pt" height="391.40088pt" viewBox="0 0 938.88 391.40088" xmlns="http://www.w3.org/2000/svg" version="1.1">
 <metadata>
  <rdf:RDF xmlns:dc="http://purl.org/dc/elements/1.1/" xmlns:cc="http://creativecommons.org/ns#" xmlns:rdf="http://www.w3.org/1999/02/22-rdf-syntax-ns#">
   <cc:Work>
    <dc:type rdf:resource="http://purl.org/dc/dcmitype/StillImage"/>
    <dc:date>2026-06-09T23:19:54.707616</dc:date>
    <dc:format>image/svg+xml</dc:format>
    <dc:creator>
     <cc:Agent>
      <dc:title>Matplotlib v3.10.9, https://matplotlib.org/</dc:title>
     </cc:Agent>
    </dc:creator>
   </cc:Work>
  </rdf:RDF>
 </metadata>
 <defs>
  <style type="text/css">*{stroke-linejoin: round; stroke-linecap: butt}</style>
 </defs>
 <g id="figure_1">
  <g id="patch_1">
   <path d="M 0 391.40088 
L 938.88 391.40088 
L 938.88 0 
L 0 0 
z
" style="fill: #ffffff"/>
  </g>
  <g id="axes_1">
   <g id="patch_2">
    <path d="M 197.98452 66.67729 
Q 205.636915 68.344366 212.087657 69.749661 
" clip-path="url(#p4221b5652b)" style="fill: none; stroke: #b3bac2; stroke-width: 1.1; stroke-linecap: round"/>
    <path d="M 209.301563 67.505183 
L 212.087657 69.749661 
L 208.620418 70.631849 
z
" clip-path="url(#p4221b5652b)" style="fill: #b3bac2; stroke: #b3bac2; stroke-width: 1.1; stroke-linecap: round"/>
   </g>
   <g id="patch_3">
    <path d="M 228.027056 76.970824 
Q 233.510007 81.428618 238.038712 85.110582 
" clip-path="url(#p4221b5652b)" style="fill: none; stroke: #b3bac2; stroke-width: 1.1; stroke-linecap: round"/>
    <path d="M 236.565132 81.850434 
L 238.038712 85.110582 
L 234.546446 84.333357 
z
" clip-path="url(#p4221b5652b)" style="fill: #b3bac2; stroke: #b3bac2; stroke-width: 1.1; stroke-linecap: round"/>
   </g>
   <g id="patch_4">
    <path d="M 247.657872 98.186126 
Q 249.605234 104.094934 251.167647 108.835703 
" clip-path="url(#p4221b5652b)" style="fill: none; stroke: #b3bac2; stroke-width: 1.1; stroke-linecap: round"/>
    <path d="M 251.68562 105.295688 
L 251.167647 108.835703 
L 248.646419 106.297316 
z
" clip-path="url(#p4221b5652b)" style="fill: #b3bac2; stroke: #b3bac2; stroke-width: 1.1; stroke-linecap: round"/>
   </g>
   <g id="patch_5">
    <path d="M 251.551245 124.356282 
Q 249.603883 130.26509 248.04147 135.005859 
" clip-path="url(#p4221b5652b)" style="fill: none; stroke: #b3bac2; stroke-width: 1.1; stroke-linecap: round"/>
    <path d="M 250.562699 132.467472 
L 248.04147 135.005859 
L 247.523498 131.465844 
z
" clip-path="url(#p4221b5652b)" style="fill: #b3bac2; stroke: #b3bac2; stroke-width: 1.1; stroke-linecap: round"/>
   </g>
   <g id="patch_6">
    <path d="M 238.993562 148.46902 
Q 233.51061 152.926814 228.981906 156.608778 
" clip-path="url(#p4221b5652b)" style="fill: none; stroke: #b3bac2; stroke-width: 1.1; stroke-linecap: round"/>
    <path d="M 232.474172 155.831553 
L 228.981906 156.608778 
L 230.455486 153.34863 
z
" clip-path="url(#p4221b5652b)" style="fill: #b3bac2; stroke: #b3bac2; stroke-width: 1.1; stroke-linecap: round"/>
   </g>
   <g id="patch_7">
    <path d="M 213.28398 164.345642 
Q 205.631585 166.012718 199.180843 167.418013 
" clip-path="url(#p4221b5652b)" style="fill: none; stroke: #b3bac2; stroke-width: 1.1; stroke-linecap: round"/>
    <path d="M 202.648082 168.300201 
L 199.180843 167.418013 
L 201.966937 165.173535 
z
" clip-path="url(#p4221b5652b)" style="fill: #b3bac2; stroke: #b3bac2; stroke-width: 1.1; stroke-linecap: round"/>
   </g>
   <g id="patch_8">
    <path d="M 181.09548 167.678633 
Q 173.443085 166.011557 166.992343 164.606261 
" clip-path="url(#p4221b5652b)" style="fill: none; stroke: #b3bac2; stroke-width: 1.1; stroke-linecap: round"/>
    <path d="M 169.778437 166.850739 
L 166.992343 164.606261 
L 170.459582 163.724073 
z
" clip-path="url(#p4221b5652b)" style="fill: #b3bac2; stroke: #b3bac2; stroke-width: 1.1; stroke-linecap: round"/>
   </g>
   <g id="patch_9">
    <path d="M 151.052944 157.385098 
Q 145.569993 152.927304 141.041288 149.24534 
" clip-path="url(#p4221b5652b)" style="fill: none; stroke: #b3bac2; stroke-width: 1.1; stroke-linecap: round"/>
    <path d="M 142.514868 152.505488 
L 141.041288 149.24534 
L 144.533554 150.022565 
z
" clip-path="url(#p4221b5652b)" style="fill: #b3bac2; stroke: #b3bac2; stroke-width: 1.1; stroke-linecap: round"/>
   </g>
   <g id="patch_10">
    <path d="M 131.422128 136.169796 
Q 129.474766 130.260989 127.912353 125.520219 
" clip-path="url(#p4221b5652b)" style="fill: none; stroke: #b3bac2; stroke-width: 1.1; stroke-linecap: round"/>
    <path d="M 127.39438 129.060234 
L 127.912353 125.520219 
L 130.433581 128.058606 
z
" clip-path="url(#p4221b5652b)" style="fill: #b3bac2; stroke: #b3bac2; stroke-width: 1.1; stroke-linecap: round"/>
   </g>
   <g id="patch_11">
    <path d="M 127.528755 109.99964 
Q 129.476117 104.090833 131.03853 99.350063 
" clip-path="url(#p4221b5652b)" style="fill: none; stroke: #b3bac2; stroke-width: 1.1; stroke-linecap: round"/>
    <path d="M 128.517301 101.88845 
L 131.03853 99.350063 
L 131.556502 102.890078 
z
" clip-path="url(#p4221b5652b)" style="fill: #b3bac2; stroke: #b3bac2; stroke-width: 1.1; stroke-linecap: round"/>
   </g>
   <g id="patch_12">
    <path d="M 140.086438 85.886902 
Q 145.56939 81.429108 150.098094 77.747144 
" clip-path="url(#p4221b5652b)" style="fill: none; stroke: #b3bac2; stroke-width: 1.1; stroke-linecap: round"/>
    <path d="M 146.605828 78.524369 
L 150.098094 77.747144 
L 148.624514 81.007292 
z
" clip-path="url(#p4221b5652b)" style="fill: #b3bac2; stroke: #b3bac2; stroke-width: 1.1; stroke-linecap: round"/>
   </g>
   <g id="patch_13">
    <path d="M 165.79602 70.010281 
Q 173.448415 68.343205 179.899157 66.937909 
" clip-path="url(#p4221b5652b)" style="fill: none; stroke: #b3bac2; stroke-width: 1.1; stroke-linecap: round"/>
    <path d="M 176.431918 66.055721 
L 179.899157 66.937909 
L 177.113063 69.182387 
z
" clip-path="url(#p4221b5652b)" style="fill: #b3bac2; stroke: #b3bac2; stroke-width: 1.1; stroke-linecap: round"/>
   </g>
   <g id="patch_14">
    <path d="M 141.18958 230.901523 
Q 152.467481 236.195393 162.632095 240.966683 
" clip-path="url(#p4221b5652b)" style="fill: none; stroke: #b3bac2; stroke-width: 1.1; stroke-linecap: round"/>
    <path d="M 160.415221 238.158575 
L 162.632095 240.966683 
L 159.055484 241.055318 
z
" clip-path="url(#p4221b5652b)" style="fill: #b3bac2; stroke: #b3bac2; stroke-width: 1.1; stroke-linecap: round"/>
   </g>
   <g id="patch_15">
    <path d="M 171.37448 252.533071 
Q 171.37448 262.822114 171.37448 271.88132 
" clip-path="url(#p4221b5652b)" style="fill: none; stroke: #b3bac2; stroke-width: 1.1; stroke-linecap: round"/>
    <path d="M 172.97448 268.68132 
L 171.37448 271.88132 
L 169.77448 268.68132 
z
" clip-path="url(#p4221b5652b)" style="fill: #b3bac2; stroke: #b3bac2; stroke-width: 1.1; stroke-linecap: round"/>
   </g>
   <g id="patch_16">
    <path d="M 163.7449 284.152102 
Q 152.466998 289.445971 142.302385 294.217261 
" clip-path="url(#p4221b5652b)" style="fill: none; stroke: #b3bac2; stroke-width: 1.1; stroke-linecap: round"/>
    <path d="M 145.878995 294.305896 
L 142.302385 294.217261 
L 144.519259 291.409154 
z
" clip-path="url(#p4221b5652b)" style="fill: #b3bac2; stroke: #b3bac2; stroke-width: 1.1; stroke-linecap: round"/>
   </g>
   <g id="patch_17">
    <path d="M 125.93042 294.739614 
Q 114.652519 289.445744 104.487905 284.674454 
" clip-path="url(#p4221b5652b)" style="fill: none; stroke: #b3bac2; stroke-width: 1.1; stroke-linecap: round"/>
    <path d="M 106.704779 287.482562 
L 104.487905 284.674454 
L 108.064516 284.58582 
z
" clip-path="url(#p4221b5652b)" style="fill: #b3bac2; stroke: #b3bac2; stroke-width: 1.1; stroke-linecap: round"/>
   </g>
   <g id="patch_18">
    <path d="M 95.74552 273.108067 
Q 95.74552 262.819023 95.74552 253.759817 
" clip-path="url(#p4221b5652b)" style="fill: none; stroke: #b3bac2; stroke-width: 1.1; stroke-linecap: round"/>
    <path d="M 94.14552 256.959817 
L 95.74552 253.759817 
L 97.34552 256.959817 
z
" clip-path="url(#p4221b5652b)" style="fill: #b3bac2; stroke: #b3bac2; stroke-width: 1.1; stroke-linecap: round"/>
   </g>
   <g id="patch_19">
    <path d="M 103.3751 241.489036 
Q 114.653002 236.195166 124.817615 231.423876 
" clip-path="url(#p4221b5652b)" style="fill: none; stroke: #b3bac2; stroke-width: 1.1; stroke-linecap: round"/>
    <path d="M 121.241005 231.335242 
L 124.817615 231.423876 
L 122.600741 234.231984 
z
" clip-path="url(#p4221b5652b)" style="fill: #b3bac2; stroke: #b3bac2; stroke-width: 1.1; stroke-linecap: round"/>
   </g>
   <g id="patch_20">
    <path d="M 253.14958 230.901523 
Q 264.427481 236.195393 274.592095 240.966683 
" clip-path="url(#p4221b5652b)" style="fill: none; stroke: #b3bac2; stroke-width: 1.1; stroke-linecap: round"/>
    <path d="M 272.375221 238.158575 
L 274.592095 240.966683 
L 271.015484 241.055318 
z
" clip-path="url(#p4221b5652b)" style="fill: #b3bac2; stroke: #b3bac2; stroke-width: 1.1; stroke-linecap: round"/>
   </g>
   <g id="patch_21">
    <path d="M 283.33448 252.533071 
Q 283.33448 262.822114 283.33448 271.88132 
" clip-path="url(#p4221b5652b)" style="fill: none; stroke: #b3bac2; stroke-width: 1.1; stroke-linecap: round"/>
    <path d="M 284.93448 268.68132 
L 283.33448 271.88132 
L 281.73448 268.68132 
z
" clip-path="url(#p4221b5652b)" style="fill: #b3bac2; stroke: #b3bac2; stroke-width: 1.1; stroke-linecap: round"/>
   </g>
   <g id="patch_22">
    <path d="M 275.7049 284.152102 
Q 264.426998 289.445971 254.262385 294.217261 
" clip-path="url(#p4221b5652b)" style="fill: none; stroke: #b3bac2; stroke-width: 1.1; stroke-linecap: round"/>
    <path d="M 257.838995 294.305896 
L 254.262385 294.217261 
L 256.479259 291.409154 
z
" clip-path="url(#p4221b5652b)" style="fill: #b3bac2; stroke: #b3bac2; stroke-width: 1.1; stroke-linecap: round"/>
   </g>
   <g id="patch_23">
    <path d="M 237.89042 294.739614 
Q 226.612519 289.445744 216.447905 284.674454 
" clip-path="url(#p4221b5652b)" style="fill: none; stroke: #b3bac2; stroke-width: 1.1; stroke-linecap: round"/>
    <path d="M 218.664779 287.482562 
L 216.447905 284.674454 
L 220.024516 284.58582 
z
" clip-path="url(#p4221b5652b)" style="fill: #b3bac2; stroke: #b3bac2; stroke-width: 1.1; stroke-linecap: round"/>
   </g>
   <g id="patch_24">
    <path d="M 207.70552 273.108067 
Q 207.70552 262.819023 207.70552 253.759817 
" clip-path="url(#p4221b5652b)" style="fill: none; stroke: #b3bac2; stroke-width: 1.1; stroke-linecap: round"/>
    <path d="M 206.10552 256.959817 
L 207.70552 253.759817 
L 209.30552 256.959817 
z
" clip-path="url(#p4221b5652b)" style="fill: #b3bac2; stroke: #b3bac2; stroke-width: 1.1; stroke-linecap: round"/>
   </g>
   <g id="patch_25">
    <path d="M 215.3351 241.489036 
Q 226.613002 236.195166 236.777615 231.423876 
" clip-path="url(#p4221b5652b)" style="fill: none; stroke: #b3bac2; stroke-width: 1.1; stroke-linecap: round"/>
    <path d="M 233.201005 231.335242 
L 236.777615 231.423876 
L 234.560741 234.231984 
z
" clip-path="url(#p4221b5652b)" style="fill: #b3bac2; stroke: #b3bac2; stroke-width: 1.1; stroke-linecap: round"/>
   </g>
   <g id="patch_26">
    <path d="M 320.290748 117.177961 
Q 351.87985 117.177961 381.232884 117.177961 
" clip-path="url(#p4221b5652b)" style="fill: none; stroke: #7b8794; stroke-width: 2; stroke-linecap: round"/>
    <path d="M 375.632884 114.377961 
L 381.232884 117.177961 
L 375.632884 119.977961 
z
" clip-path="url(#p4221b5652b)" style="fill: #7b8794; stroke: #7b8794; stroke-width: 2; stroke-linecap: round"/>
   </g>
   <g id="patch_27">
    <path d="M 320.290748 262.820569 
Q 351.87985 262.820569 381.232884 262.820569 
" clip-path="url(#p4221b5652b)" style="fill: none; stroke: #7b8794; stroke-width: 2; stroke-linecap: round"/>
    <path d="M 375.632884 260.020569 
L 381.232884 262.820569 
L 375.632884 265.620569 
z
" clip-path="url(#p4221b5652b)" style="fill: #7b8794; stroke: #7b8794; stroke-width: 2; stroke-linecap: round"/>
   </g>
   <g id="patch_28">
    <path d="M 189.54 70.299247 
C 191.321528 70.299247 193.03033 69.723778 194.290061 68.699582 
C 195.549791 67.675385 196.2576 66.286082 196.2576 64.837649 
C 196.2576 63.389216 195.549791 61.999913 194.290061 60.975716 
C 193.03033 59.95152 191.321528 59.376051 189.54 59.376051 
C 187.758472 59.376051 186.04967 59.95152 184.789939 60.975716 
C 183.530209 61.999913 182.8224 63.389216 182.8224 64.837649 
C 182.8224 66.286082 183.530209 67.675385 184.789939 68.699582 
C 186.04967 69.723778 187.758472 70.299247 189.54 70.299247 
z
" clip-path="url(#p4221b5652b)" style="fill: #eef2f6; stroke: #33414f; stroke-width: 1.3; stroke-linejoin: miter"/>
   </g>
   <g id="patch_29">
    <path d="M 221.7285 77.311519 
C 223.510028 77.311519 225.21883 76.736051 226.478561 75.711854 
C 227.738291 74.687658 228.4461 73.298354 228.4461 71.849921 
C 228.4461 70.401489 227.738291 69.012185 226.478561 67.987988 
C 225.21883 66.963792 223.510028 66.388323 221.7285 66.388323 
C 219.946972 66.388323 218.23817 66.963792 216.978439 67.987988 
C 215.718709 69.012185 215.0109 70.401489 215.0109 71.849921 
C 215.0109 73.298354 215.718709 74.687658 216.978439 75.711854 
C 218.23817 76.736051 219.946972 77.311519 221.7285 77.311519 
z
" clip-path="url(#p4221b5652b)" style="fill: #eef2f6; stroke: #33414f; stroke-width: 1.3; stroke-linejoin: miter"/>
   </g>
   <g id="patch_30">
    <path d="M 245.292117 96.469403 
C 247.073646 96.469403 248.782447 95.893935 250.042178 94.869738 
C 251.301909 93.845541 252.009717 92.456238 252.009717 91.007805 
C 252.009717 89.559372 251.301909 88.170069 250.042178 87.145872 
C 248.782447 86.121676 247.073646 85.546207 245.292117 85.546207 
C 243.510589 85.546207 241.801788 86.121676 240.542057 87.145872 
C 239.282326 88.170069 238.574517 89.559372 238.574517 91.007805 
C 238.574517 92.456238 239.282326 93.845541 240.542057 94.869738 
C 241.801788 95.893935 243.510589 96.469403 245.292117 96.469403 
z
" clip-path="url(#p4221b5652b)" style="fill: #eef2f6; stroke: #33414f; stroke-width: 1.3; stroke-linejoin: miter"/>
   </g>
   <g id="patch_31">
    <path d="M 253.917 122.639559 
C 255.698528 122.639559 257.40733 122.064091 258.667061 121.039894 
C 259.926791 120.015697 260.6346 118.626394 260.6346 117.177961 
C 260.6346 115.729529 259.926791 114.340225 258.667061 113.316028 
C 257.40733 112.291832 255.698528 111.716363 253.917 111.716363 
C 252.135472 111.716363 250.42667 112.291832 249.166939 113.316028 
C 247.907209 114.340225 247.1994 115.729529 247.1994 117.177961 
C 247.1994 118.626394 247.907209 120.015697 249.166939 121.039894 
C 250.42667 122.064091 252.135472 122.639559 253.917 122.639559 
z
" clip-path="url(#p4221b5652b)" style="fill: #eef2f6; stroke: #33414f; stroke-width: 1.3; stroke-linejoin: miter"/>
   </g>
   <g id="patch_32">
    <path d="M 245.292117 148.809715 
C 247.073646 148.809715 248.782447 148.234247 250.042178 147.21005 
C 251.301909 146.185853 252.009717 144.79655 252.009717 143.348117 
C 252.009717 141.899685 251.301909 140.510381 250.042178 139.486184 
C 248.782447 138.461988 247.073646 137.886519 245.292117 137.886519 
C 243.510589 137.886519 241.801788 138.461988 240.542057 139.486184 
C 239.282326 140.510381 238.574517 141.899685 238.574517 143.348117 
C 238.574517 144.79655 239.282326 146.185853 240.542057 147.21005 
C 241.801788 148.234247 243.510589 148.809715 245.292117 148.809715 
z
" clip-path="url(#p4221b5652b)" style="fill: #eef2f6; stroke: #33414f; stroke-width: 1.3; stroke-linejoin: miter"/>
   </g>
   <g id="patch_33">
    <path d="M 221.7285 167.967599 
C 223.510028 167.967599 225.21883 167.39213 226.478561 166.367934 
C 227.738291 165.343737 228.4461 163.954434 228.4461 162.506001 
C 228.4461 161.057568 227.738291 159.668265 226.478561 158.644068 
C 225.21883 157.619872 223.510028 157.044403 221.7285 157.044403 
C 219.946972 157.044403 218.23817 157.619872 216.978439 158.644068 
C 215.718709 159.668265 215.0109 161.057568 215.0109 162.506001 
C 215.0109 163.954434 215.718709 165.343737 216.978439 166.367934 
C 218.23817 167.39213 219.946972 167.967599 221.7285 167.967599 
z
" clip-path="url(#p4221b5652b)" style="fill: #eef2f6; stroke: #33414f; stroke-width: 1.3; stroke-linejoin: miter"/>
   </g>
   <g id="patch_34">
    <path d="M 189.54 174.979871 
C 191.321528 174.979871 193.03033 174.404403 194.290061 173.380206 
C 195.549791 172.35601 196.2576 170.966706 196.2576 169.518273 
C 196.2576 168.069841 195.549791 166.680537 194.290061 165.65634 
C 193.03033 164.632144 191.321528 164.056675 189.54 164.056675 
C 187.758472 164.056675 186.04967 164.632144 184.789939 165.65634 
C 183.530209 166.680537 182.8224 168.069841 182.8224 169.518273 
C 182.8224 170.966706 183.530209 172.35601 184.789939 173.380206 
C 186.04967 174.404403 187.758472 174.979871 189.54 174.979871 
z
" clip-path="url(#p4221b5652b)" style="fill: #eef2f6; stroke: #33414f; stroke-width: 1.3; stroke-linejoin: miter"/>
   </g>
   <g id="patch_35">
    <path d="M 157.3515 167.967599 
C 159.133028 167.967599 160.84183 167.39213 162.101561 166.367934 
C 163.361291 165.343737 164.0691 163.954434 164.0691 162.506001 
C 164.0691 161.057568 163.361291 159.668265 162.101561 158.644068 
C 160.84183 157.619872 159.133028 157.044403 157.3515 157.044403 
C 155.569972 157.044403 153.86117 157.619872 152.601439 158.644068 
C 151.341709 159.668265 150.6339 161.057568 150.6339 162.506001 
C 150.6339 163.954434 151.341709 165.343737 152.601439 166.367934 
C 153.86117 167.39213 155.569972 167.967599 157.3515 167.967599 
z
" clip-path="url(#p4221b5652b)" style="fill: #eef2f6; stroke: #33414f; stroke-width: 1.3; stroke-linejoin: miter"/>
   </g>
   <g id="patch_36">
    <path d="M 133.787883 148.809715 
C 135.569411 148.809715 137.278212 148.234247 138.537943 147.21005 
C 139.797674 146.185853 140.505483 144.79655 140.505483 143.348117 
C 140.505483 141.899685 139.797674 140.510381 138.537943 139.486184 
C 137.278212 138.461988 135.569411 137.886519 133.787883 137.886519 
C 132.006354 137.886519 130.297553 138.461988 129.037822 139.486184 
C 127.778091 140.510381 127.070283 141.899685 127.070283 143.348117 
C 127.070283 144.79655 127.778091 146.185853 129.037822 147.21005 
C 130.297553 148.234247 132.006354 148.809715 133.787883 148.809715 
z
" clip-path="url(#p4221b5652b)" style="fill: #eef2f6; stroke: #33414f; stroke-width: 1.3; stroke-linejoin: miter"/>
   </g>
   <g id="patch_37">
    <path d="M 125.163 122.639559 
C 126.944528 122.639559 128.65333 122.064091 129.913061 121.039894 
C 131.172791 120.015697 131.8806 118.626394 131.8806 117.177961 
C 131.8806 115.729529 131.172791 114.340225 129.913061 113.316028 
C 128.65333 112.291832 126.944528 111.716363 125.163 111.716363 
C 123.381472 111.716363 121.67267 112.291832 120.412939 113.316028 
C 119.153209 114.340225 118.4454 115.729529 118.4454 117.177961 
C 118.4454 118.626394 119.153209 120.015697 120.412939 121.039894 
C 121.67267 122.064091 123.381472 122.639559 125.163 122.639559 
z
" clip-path="url(#p4221b5652b)" style="fill: #eef2f6; stroke: #33414f; stroke-width: 1.3; stroke-linejoin: miter"/>
   </g>
   <g id="patch_38">
    <path d="M 133.787883 96.469403 
C 135.569411 96.469403 137.278212 95.893935 138.537943 94.869738 
C 139.797674 93.845541 140.505483 92.456238 140.505483 91.007805 
C 140.505483 89.559372 139.797674 88.170069 138.537943 87.145872 
C 137.278212 86.121676 135.569411 85.546207 133.787883 85.546207 
C 132.006354 85.546207 130.297553 86.121676 129.037822 87.145872 
C 127.778091 88.170069 127.070283 89.559372 127.070283 91.007805 
C 127.070283 92.456238 127.778091 93.845541 129.037822 94.869738 
C 130.297553 95.893935 132.006354 96.469403 133.787883 96.469403 
z
" clip-path="url(#p4221b5652b)" style="fill: #eef2f6; stroke: #33414f; stroke-width: 1.3; stroke-linejoin: miter"/>
   </g>
   <g id="patch_39">
    <path d="M 157.3515 77.311519 
C 159.133028 77.311519 160.84183 76.736051 162.101561 75.711854 
C 163.361291 74.687658 164.0691 73.298354 164.0691 71.849921 
C 164.0691 70.401489 163.361291 69.012185 162.101561 67.987988 
C 160.84183 66.963792 159.133028 66.388323 157.3515 66.388323 
C 155.569972 66.388323 153.86117 66.963792 152.601439 67.987988 
C 151.341709 69.012185 150.6339 70.401489 150.6339 71.849921 
C 150.6339 73.298354 151.341709 74.687658 152.601439 75.711854 
C 153.86117 76.736051 155.569972 77.311519 157.3515 77.311519 
z
" clip-path="url(#p4221b5652b)" style="fill: #eef2f6; stroke: #33414f; stroke-width: 1.3; stroke-linejoin: miter"/>
   </g>
   <g id="patch_40">
    <path d="M 133.56 232.781781 
C 135.341528 232.781781 137.05033 232.206312 138.310061 231.182116 
C 139.569791 230.157919 140.2776 228.768616 140.2776 227.320183 
C 140.2776 225.87175 139.569791 224.482447 138.310061 223.45825 
C 137.05033 222.434054 135.341528 221.858585 133.56 221.858585 
C 131.778472 221.858585 130.06967 222.434054 128.809939 223.45825 
C 127.550209 224.482447 126.8424 225.87175 126.8424 227.320183 
C 126.8424 228.768616 127.550209 230.157919 128.809939 231.182116 
C 130.06967 232.206312 131.778472 232.781781 133.56 232.781781 
z
" clip-path="url(#p4221b5652b)" style="fill: #eef2f6; stroke: #33414f; stroke-width: 1.3; stroke-linejoin: miter"/>
   </g>
   <g id="patch_41">
    <path d="M 171.37448 250.531974 
C 173.156008 250.531974 174.864809 249.956505 176.12454 248.932309 
C 177.384271 247.908112 178.09208 246.518809 178.09208 245.070376 
C 178.09208 243.621943 177.384271 242.23264 176.12454 241.208443 
C 174.864809 240.184247 173.156008 239.608778 171.37448 239.608778 
C 169.592951 239.608778 167.88415 240.184247 166.624419 241.208443 
C 165.364688 242.23264 164.65688 243.621943 164.65688 245.070376 
C 164.65688 246.518809 165.364688 247.908112 166.624419 248.932309 
C 167.88415 249.956505 169.592951 250.531974 171.37448 250.531974 
z
" clip-path="url(#p4221b5652b)" style="fill: #eef2f6; stroke: #33414f; stroke-width: 1.3; stroke-linejoin: miter"/>
   </g>
   <g id="patch_42">
    <path d="M 171.37448 286.032359 
C 173.156008 286.032359 174.864809 285.456891 176.12454 284.432694 
C 177.384271 283.408498 178.09208 282.019194 178.09208 280.570761 
C 178.09208 279.122329 177.384271 277.733025 176.12454 276.708829 
C 174.864809 275.684632 173.156008 275.109164 171.37448 275.109164 
C 169.592951 275.109164 167.88415 275.684632 166.624419 276.708829 
C 165.364688 277.733025 164.65688 279.122329 164.65688 280.570761 
C 164.65688 282.019194 165.364688 283.408498 166.624419 284.432694 
C 167.88415 285.456891 169.592951 286.032359 171.37448 286.032359 
z
" clip-path="url(#p4221b5652b)" style="fill: #eef2f6; stroke: #33414f; stroke-width: 1.3; stroke-linejoin: miter"/>
   </g>
   <g id="patch_43">
    <path d="M 133.56 303.782552 
C 135.341528 303.782552 137.05033 303.207084 138.310061 302.182887 
C 139.569791 301.158691 140.2776 299.769387 140.2776 298.320954 
C 140.2776 296.872522 139.569791 295.483218 138.310061 294.459021 
C 137.05033 293.434825 135.341528 292.859356 133.56 292.859356 
C 131.778472 292.859356 130.06967 293.434825 128.809939 294.459021 
C 127.550209 295.483218 126.8424 296.872522 126.8424 298.320954 
C 126.8424 299.769387 127.550209 301.158691 128.809939 302.182887 
C 130.06967 303.207084 131.778472 303.782552 133.56 303.782552 
z
" clip-path="url(#p4221b5652b)" style="fill: #eef2f6; stroke: #33414f; stroke-width: 1.3; stroke-linejoin: miter"/>
   </g>
   <g id="patch_44">
    <path d="M 95.74552 286.032359 
C 97.527049 286.032359 99.23585 285.456891 100.495581 284.432694 
C 101.755312 283.408498 102.46312 282.019194 102.46312 280.570761 
C 102.46312 279.122329 101.755312 277.733025 100.495581 276.708829 
C 99.23585 275.684632 97.527049 275.109164 95.74552 275.109164 
C 93.963992 275.109164 92.255191 275.684632 90.99546 276.708829 
C 89.735729 277.733025 89.02792 279.122329 89.02792 280.570761 
C 89.02792 282.019194 89.735729 283.408498 90.99546 284.432694 
C 92.255191 285.456891 93.963992 286.032359 95.74552 286.032359 
z
" clip-path="url(#p4221b5652b)" style="fill: #eef2f6; stroke: #33414f; stroke-width: 1.3; stroke-linejoin: miter"/>
   </g>
   <g id="patch_45">
    <path d="M 95.74552 250.531974 
C 97.527049 250.531974 99.23585 249.956505 100.495581 248.932309 
C 101.755312 247.908112 102.46312 246.518809 102.46312 245.070376 
C 102.46312 243.621943 101.755312 242.23264 100.495581 241.208443 
C 99.23585 240.184247 97.527049 239.608778 95.74552 239.608778 
C 93.963992 239.608778 92.255191 240.184247 90.99546 241.208443 
C 89.735729 242.23264 89.02792 243.621943 89.02792 245.070376 
C 89.02792 246.518809 89.735729 247.908112 90.99546 248.932309 
C 92.255191 249.956505 93.963992 250.531974 95.74552 250.531974 
z
" clip-path="url(#p4221b5652b)" style="fill: #eef2f6; stroke: #33414f; stroke-width: 1.3; stroke-linejoin: miter"/>
   </g>
   <g id="patch_46">
    <path d="M 245.52 232.781781 
C 247.301528 232.781781 249.01033 232.206312 250.270061 231.182116 
C 251.529791 230.157919 252.2376 228.768616 252.2376 227.320183 
C 252.2376 225.87175 251.529791 224.482447 250.270061 223.45825 
C 249.01033 222.434054 247.301528 221.858585 245.52 221.858585 
C 243.738472 221.858585 242.02967 222.434054 240.769939 223.45825 
C 239.510209 224.482447 238.8024 225.87175 238.8024 227.320183 
C 238.8024 228.768616 239.510209 230.157919 240.769939 231.182116 
C 242.02967 232.206312 243.738472 232.781781 245.52 232.781781 
z
" clip-path="url(#p4221b5652b)" style="fill: #eef2f6; stroke: #33414f; stroke-width: 1.3; stroke-linejoin: miter"/>
   </g>
   <g id="patch_47">
    <path d="M 283.33448 250.531974 
C 285.116008 250.531974 286.824809 249.956505 288.08454 248.932309 
C 289.344271 247.908112 290.05208 246.518809 290.05208 245.070376 
C 290.05208 243.621943 289.344271 242.23264 288.08454 241.208443 
C 286.824809 240.184247 285.116008 239.608778 283.33448 239.608778 
C 281.552951 239.608778 279.84415 240.184247 278.584419 241.208443 
C 277.324688 242.23264 276.61688 243.621943 276.61688 245.070376 
C 276.61688 246.518809 277.324688 247.908112 278.584419 248.932309 
C 279.84415 249.956505 281.552951 250.531974 283.33448 250.531974 
z
" clip-path="url(#p4221b5652b)" style="fill: #eef2f6; stroke: #33414f; stroke-width: 1.3; stroke-linejoin: miter"/>
   </g>
   <g id="patch_48">
    <path d="M 283.33448 286.032359 
C 285.116008 286.032359 286.824809 285.456891 288.08454 284.432694 
C 289.344271 283.408498 290.05208 282.019194 290.05208 280.570761 
C 290.05208 279.122329 289.344271 277.733025 288.08454 276.708829 
C 286.824809 275.684632 285.116008 275.109164 283.33448 275.109164 
C 281.552951 275.109164 279.84415 275.684632 278.584419 276.708829 
C 277.324688 277.733025 276.61688 279.122329 276.61688 280.570761 
C 276.61688 282.019194 277.324688 283.408498 278.584419 284.432694 
C 279.84415 285.456891 281.552951 286.032359 283.33448 286.032359 
z
" clip-path="url(#p4221b5652b)" style="fill: #eef2f6; stroke: #33414f; stroke-width: 1.3; stroke-linejoin: miter"/>
   </g>
   <g id="patch_49">
    <path d="M 245.52 303.782552 
C 247.301528 303.782552 249.01033 303.207084 250.270061 302.182887 
C 251.529791 301.158691 252.2376 299.769387 252.2376 298.320954 
C 252.2376 296.872522 251.529791 295.483218 250.270061 294.459021 
C 249.01033 293.434825 247.301528 292.859356 245.52 292.859356 
C 243.738472 292.859356 242.02967 293.434825 240.769939 294.459021 
C 239.510209 295.483218 238.8024 296.872522 238.8024 298.320954 
C 238.8024 299.769387 239.510209 301.158691 240.769939 302.182887 
C 242.02967 303.207084 243.738472 303.782552 245.52 303.782552 
z
" clip-path="url(#p4221b5652b)" style="fill: #eef2f6; stroke: #33414f; stroke-width: 1.3; stroke-linejoin: miter"/>
   </g>
   <g id="patch_50">
    <path d="M 207.70552 286.032359 
C 209.487049 286.032359 211.19585 285.456891 212.455581 284.432694 
C 213.715312 283.408498 214.42312 282.019194 214.42312 280.570761 
C 214.42312 279.122329 213.715312 277.733025 212.455581 276.708829 
C 211.19585 275.684632 209.487049 275.109164 207.70552 275.109164 
C 205.923992 275.109164 204.215191 275.684632 202.95546 276.708829 
C 201.695729 277.733025 200.98792 279.122329 200.98792 280.570761 
C 200.98792 282.019194 201.695729 283.408498 202.95546 284.432694 
C 204.215191 285.456891 205.923992 286.032359 207.70552 286.032359 
z
" clip-path="url(#p4221b5652b)" style="fill: #eef2f6; stroke: #33414f; stroke-width: 1.3; stroke-linejoin: miter"/>
   </g>
   <g id="patch_51">
    <path d="M 207.70552 250.531974 
C 209.487049 250.531974 211.19585 249.956505 212.455581 248.932309 
C 213.715312 247.908112 214.42312 246.518809 214.42312 245.070376 
C 214.42312 243.621943 213.715312 242.23264 212.455581 241.208443 
C 211.19585 240.184247 209.487049 239.608778 207.70552 239.608778 
C 205.923992 239.608778 204.215191 240.184247 202.95546 241.208443 
C 201.695729 242.23264 200.98792 243.621943 200.98792 245.070376 
C 200.98792 246.518809 201.695729 247.908112 202.95546 248.932309 
C 204.215191 249.956505 205.923992 250.531974 207.70552 250.531974 
z
" clip-path="url(#p4221b5652b)" style="fill: #eef2f6; stroke: #33414f; stroke-width: 1.3; stroke-linejoin: miter"/>
   </g>
   <g id="line2d_1">
    <path d="M 698.958 189.088999 
L 698.958 181.806868 
" clip-path="url(#p4221b5652b)" style="fill: none; stroke: #7b8794; stroke-width: 1.4; stroke-linecap: square"/>
   </g>
   <g id="line2d_2">
    <path d="M 883.692 189.088999 
L 883.692 181.806868 
" clip-path="url(#p4221b5652b)" style="fill: none; stroke: #7b8794; stroke-width: 1.4; stroke-linecap: square"/>
   </g>
   <g id="text_1">
    <!-- TWO ESTATES  ·  LOCALLY IDENTICAL -->
    <g style="fill: #7b8794" transform="translate(92.055937 42.648998) scale(0.11 -0.11)">
     <defs>
      <path id="HelveticaNeue-54" d="M 1536 4058 
L 1536 0 
L 2144 0 
L 2144 4058 
L 3667 4058 
L 3667 4570 
L 13 4570 
L 13 4058 
L 1536 4058 
z
" transform="scale(0.015625)"/>
      <path id="HelveticaNeue-57" d="M 4627 0 
L 5850 4570 
L 5242 4570 
L 4314 768 
L 4301 768 
L 3290 4570 
L 2630 4570 
L 1606 768 
L 1594 768 
L 698 4570 
L 77 4570 
L 1248 0 
L 1882 0 
L 2938 3840 
L 2950 3840 
L 3994 0 
L 4627 0 
z
" transform="scale(0.015625)"/>
      <path id="HelveticaNeue-4f" d="M 851 2285 
Q 851 2630 940 2966 
Q 1030 3302 1222 3571 
Q 1414 3840 1715 4003 
Q 2016 4166 2432 4166 
Q 2848 4166 3149 4003 
Q 3450 3840 3642 3571 
Q 3834 3302 3923 2966 
Q 4013 2630 4013 2285 
Q 4013 1939 3923 1603 
Q 3834 1267 3642 998 
Q 3450 730 3149 566 
Q 2848 403 2432 403 
Q 2016 403 1715 566 
Q 1414 730 1222 998 
Q 1030 1267 940 1603 
Q 851 1939 851 2285 
z
M 243 2285 
Q 243 1818 380 1386 
Q 518 954 793 621 
Q 1069 288 1478 93 
Q 1888 -102 2432 -102 
Q 2976 -102 3385 93 
Q 3795 288 4070 621 
Q 4346 954 4483 1386 
Q 4621 1818 4621 2285 
Q 4621 2752 4483 3184 
Q 4346 3616 4070 3949 
Q 3795 4282 3385 4480 
Q 2976 4678 2432 4678 
Q 1888 4678 1478 4480 
Q 1069 4282 793 3949 
Q 518 3616 380 3184 
Q 243 2752 243 2285 
z
" transform="scale(0.015625)"/>
      <path id="HelveticaNeue-20" transform="scale(0.015625)"/>
      <path id="HelveticaNeue-45" d="M 499 4570 
L 499 0 
L 3674 0 
L 3674 512 
L 1107 512 
L 1107 2093 
L 3482 2093 
L 3482 2605 
L 1107 2605 
L 1107 4058 
L 3654 4058 
L 3654 4570 
L 499 4570 
z
" transform="scale(0.015625)"/>
      <path id="HelveticaNeue-53" d="M 3142 3232 
L 3718 3232 
Q 3706 3610 3574 3882 
Q 3443 4154 3216 4333 
Q 2989 4512 2688 4595 
Q 2387 4678 2035 4678 
Q 1722 4678 1424 4598 
Q 1126 4518 892 4355 
Q 659 4192 518 3939 
Q 378 3686 378 3341 
Q 378 3027 502 2819 
Q 627 2611 835 2480 
Q 1043 2349 1305 2269 
Q 1568 2189 1840 2128 
Q 2112 2067 2374 2009 
Q 2637 1952 2845 1859 
Q 3053 1766 3177 1619 
Q 3302 1472 3302 1235 
Q 3302 986 3200 826 
Q 3098 666 2931 573 
Q 2765 480 2557 441 
Q 2349 403 2144 403 
Q 1888 403 1645 467 
Q 1402 531 1219 665 
Q 1037 800 925 1008 
Q 813 1216 813 1504 
L 237 1504 
Q 237 1088 387 784 
Q 538 480 797 285 
Q 1056 90 1398 -6 
Q 1741 -102 2125 -102 
Q 2438 -102 2755 -28 
Q 3072 45 3328 208 
Q 3584 371 3747 630 
Q 3910 890 3910 1254 
Q 3910 1594 3785 1818 
Q 3661 2042 3453 2189 
Q 3245 2336 2982 2422 
Q 2720 2509 2448 2573 
Q 2176 2637 1913 2691 
Q 1651 2746 1443 2829 
Q 1235 2912 1110 3043 
Q 986 3174 986 3386 
Q 986 3610 1072 3760 
Q 1158 3910 1302 4000 
Q 1446 4090 1632 4128 
Q 1818 4166 2010 4166 
Q 2483 4166 2787 3945 
Q 3091 3725 3142 3232 
z
" transform="scale(0.015625)"/>
      <path id="HelveticaNeue-41" d="M 1286 1888 
L 2061 4019 
L 2074 4019 
L 2835 1888 
L 1286 1888 
z
M 1741 4570 
L -38 0 
L 582 0 
L 1094 1376 
L 3027 1376 
L 3526 0 
L 4198 0 
L 2413 4570 
L 1741 4570 
z
" transform="scale(0.015625)"/>
      <path id="HelveticaNeue-b7" d="M 480 1990 
Q 480 1824 605 1702 
Q 730 1581 896 1581 
Q 1056 1581 1177 1709 
Q 1299 1837 1299 1990 
Q 1299 2157 1177 2278 
Q 1056 2400 890 2400 
Q 723 2400 601 2278 
Q 480 2157 480 1990 
z
" transform="scale(0.015625)"/>
      <path id="HelveticaNeue-4c" d="M 499 4570 
L 499 0 
L 3526 0 
L 3526 512 
L 1107 512 
L 1107 4570 
L 499 4570 
z
" transform="scale(0.015625)"/>
      <path id="HelveticaNeue-43" d="M 3712 3194 
L 4320 3194 
Q 4269 3558 4102 3836 
Q 3936 4115 3686 4300 
Q 3437 4486 3117 4582 
Q 2797 4678 2438 4678 
Q 1914 4678 1507 4489 
Q 1101 4301 829 3974 
Q 557 3648 416 3209 
Q 275 2771 275 2272 
Q 275 1773 406 1337 
Q 538 902 800 582 
Q 1062 262 1459 80 
Q 1856 -102 2387 -102 
Q 3264 -102 3769 378 
Q 4275 858 4365 1722 
L 3757 1722 
Q 3738 1440 3642 1197 
Q 3546 954 3376 778 
Q 3206 602 2972 502 
Q 2739 403 2438 403 
Q 2029 403 1734 556 
Q 1440 710 1251 969 
Q 1062 1229 972 1577 
Q 883 1926 883 2317 
Q 883 2675 972 3008 
Q 1062 3341 1251 3600 
Q 1440 3859 1731 4012 
Q 2022 4166 2432 4166 
Q 2912 4166 3261 3923 
Q 3610 3680 3712 3194 
z
" transform="scale(0.015625)"/>
      <path id="HelveticaNeue-59" d="M 2387 1869 
L 4134 4570 
L 3443 4570 
L 2106 2394 
L 736 4570 
L 13 4570 
L 1779 1869 
L 1779 0 
L 2387 0 
L 2387 1869 
z
" transform="scale(0.015625)"/>
      <path id="HelveticaNeue-49" d="M 525 4570 
L 525 0 
L 1133 0 
L 1133 4570 
L 525 4570 
z
" transform="scale(0.015625)"/>
      <path id="HelveticaNeue-44" d="M 1107 512 
L 1107 4058 
L 2131 4058 
Q 2554 4058 2842 3939 
Q 3130 3821 3312 3593 
Q 3494 3366 3574 3043 
Q 3654 2720 3654 2310 
Q 3654 1888 3568 1590 
Q 3482 1293 3347 1094 
Q 3213 896 3043 781 
Q 2874 666 2701 605 
Q 2528 544 2374 528 
Q 2221 512 2118 512 
L 1107 512 
z
M 499 4570 
L 499 0 
L 2067 0 
Q 2637 0 3053 160 
Q 3469 320 3737 624 
Q 4006 928 4134 1373 
Q 4262 1818 4262 2394 
Q 4262 3494 3692 4032 
Q 3123 4570 2067 4570 
L 499 4570 
z
" transform="scale(0.015625)"/>
      <path id="HelveticaNeue-4e" d="M 493 4570 
L 493 0 
L 1069 0 
L 1069 3667 
L 1082 3667 
L 3469 0 
L 4134 0 
L 4134 4570 
L 3558 4570 
L 3558 864 
L 3546 864 
L 1139 4570 
L 493 4570 
z
" transform="scale(0.015625)"/>
     </defs>
     <use xlink:href="#HelveticaNeue-54"/>
     <use xlink:href="#HelveticaNeue-57" transform="translate(57.399994 0)"/>
     <use xlink:href="#HelveticaNeue-4f" transform="translate(149.999985 0)"/>
     <use xlink:href="#HelveticaNeue-20" transform="translate(225.999969 0)"/>
     <use xlink:href="#HelveticaNeue-45" transform="translate(253.799957 0)"/>
     <use xlink:href="#HelveticaNeue-53" transform="translate(314.899948 0)"/>
     <use xlink:href="#HelveticaNeue-54" transform="translate(379.699936 0)"/>
     <use xlink:href="#HelveticaNeue-41" transform="translate(427.84993 0)"/>
     <use xlink:href="#HelveticaNeue-54" transform="translate(483.399918 0)"/>
     <use xlink:href="#HelveticaNeue-45" transform="translate(540.799911 0)"/>
     <use xlink:href="#HelveticaNeue-53" transform="translate(601.899902 0)"/>
     <use xlink:href="#HelveticaNeue-20" transform="translate(666.69989 0)"/>
     <use xlink:href="#HelveticaNeue-20" transform="translate(694.499878 0)"/>
     <use xlink:href="#HelveticaNeue-b7" transform="translate(722.299866 0)"/>
     <use xlink:href="#HelveticaNeue-20" transform="translate(750.099854 0)"/>
     <use xlink:href="#HelveticaNeue-20" transform="translate(777.899841 0)"/>
     <use xlink:href="#HelveticaNeue-4c" transform="translate(805.699829 0)"/>
     <use xlink:href="#HelveticaNeue-4f" transform="translate(861.29982 0)"/>
     <use xlink:href="#HelveticaNeue-43" transform="translate(937.299805 0)"/>
     <use xlink:href="#HelveticaNeue-41" transform="translate(1009.499786 0)"/>
     <use xlink:href="#HelveticaNeue-4c" transform="translate(1074.299774 0)"/>
     <use xlink:href="#HelveticaNeue-4c" transform="translate(1129.899765 0)"/>
     <use xlink:href="#HelveticaNeue-59" transform="translate(1174.374756 0)"/>
     <use xlink:href="#HelveticaNeue-20" transform="translate(1239.174744 0)"/>
     <use xlink:href="#HelveticaNeue-49" transform="translate(1266.974731 0)"/>
     <use xlink:href="#HelveticaNeue-44" transform="translate(1292.874725 0)"/>
     <use xlink:href="#HelveticaNeue-45" transform="translate(1363.274719 0)"/>
     <use xlink:href="#HelveticaNeue-4e" transform="translate(1424.37471 0)"/>
     <use xlink:href="#HelveticaNeue-54" transform="translate(1496.574692 0)"/>
     <use xlink:href="#HelveticaNeue-49" transform="translate(1553.974686 0)"/>
     <use xlink:href="#HelveticaNeue-43" transform="translate(1579.87468 0)"/>
     <use xlink:href="#HelveticaNeue-41" transform="translate(1652.074661 0)"/>
     <use xlink:href="#HelveticaNeue-4c" transform="translate(1716.874649 0)"/>
    </g>
   </g>
   <g id="text_2">
    <!-- flat: one cycle, reach all -->
    <g style="fill: #1f2933" transform="translate(126.530625 187.723599) scale(0.12 -0.12)">
     <defs>
      <path id="HelveticaNeue-66" d="M 634 2829 
L 634 0 
L 1178 0 
L 1178 2829 
L 1818 2829 
L 1818 3309 
L 1178 3309 
L 1178 3770 
Q 1178 3987 1286 4064 
Q 1395 4141 1594 4141 
Q 1664 4141 1747 4131 
Q 1830 4122 1901 4096 
L 1901 4570 
Q 1824 4595 1725 4608 
Q 1626 4621 1549 4621 
Q 1101 4621 867 4413 
Q 634 4205 634 3802 
L 634 3309 
L 77 3309 
L 77 2829 
L 634 2829 
z
" transform="scale(0.015625)"/>
      <path id="HelveticaNeue-6c" d="M 442 4570 
L 442 0 
L 986 0 
L 986 4570 
L 442 4570 
z
" transform="scale(0.015625)"/>
      <path id="HelveticaNeue-61" d="M 3341 13 
Q 3200 -70 2950 -70 
Q 2739 -70 2614 48 
Q 2490 166 2490 435 
Q 2266 166 1968 48 
Q 1670 -70 1325 -70 
Q 1101 -70 899 -19 
Q 698 32 550 141 
Q 403 250 316 426 
Q 230 602 230 851 
Q 230 1133 326 1312 
Q 422 1491 579 1603 
Q 736 1715 937 1772 
Q 1139 1830 1350 1869 
Q 1574 1914 1776 1936 
Q 1978 1958 2131 2000 
Q 2285 2042 2374 2122 
Q 2464 2202 2464 2355 
Q 2464 2534 2397 2643 
Q 2330 2752 2224 2809 
Q 2118 2867 1987 2886 
Q 1856 2906 1728 2906 
Q 1382 2906 1152 2774 
Q 922 2643 902 2278 
L 358 2278 
Q 371 2586 486 2797 
Q 602 3008 794 3139 
Q 986 3270 1232 3328 
Q 1478 3386 1760 3386 
Q 1984 3386 2205 3354 
Q 2426 3322 2605 3222 
Q 2784 3123 2893 2944 
Q 3002 2765 3002 2477 
L 3002 774 
Q 3002 582 3024 492 
Q 3046 403 3174 403 
Q 3245 403 3341 435 
L 3341 13 
z
M 2458 1709 
Q 2355 1632 2188 1597 
Q 2022 1562 1840 1539 
Q 1658 1517 1472 1488 
Q 1286 1459 1139 1395 
Q 992 1331 899 1212 
Q 806 1094 806 890 
Q 806 755 860 662 
Q 915 570 1001 512 
Q 1088 454 1203 428 
Q 1318 403 1446 403 
Q 1715 403 1907 476 
Q 2099 550 2220 662 
Q 2342 774 2400 905 
Q 2458 1037 2458 1152 
L 2458 1709 
z
" transform="scale(0.015625)"/>
      <path id="HelveticaNeue-74" d="M 1165 3309 
L 1165 4301 
L 621 4301 
L 621 3309 
L 58 3309 
L 58 2829 
L 621 2829 
L 621 723 
Q 621 493 665 352 
Q 710 211 803 134 
Q 896 58 1046 29 
Q 1197 0 1408 0 
L 1824 0 
L 1824 480 
L 1574 480 
Q 1446 480 1366 489 
Q 1286 499 1241 531 
Q 1197 563 1181 620 
Q 1165 678 1165 774 
L 1165 2829 
L 1824 2829 
L 1824 3309 
L 1165 3309 
z
" transform="scale(0.015625)"/>
      <path id="HelveticaNeue-3a" d="M 1242 2598 
L 1242 3309 
L 531 3309 
L 531 2598 
L 1242 2598 
z
M 531 710 
L 531 0 
L 1242 0 
L 1242 710 
L 531 710 
z
" transform="scale(0.015625)"/>
      <path id="HelveticaNeue-6f" d="M 806 1651 
Q 806 1952 886 2185 
Q 966 2419 1107 2579 
Q 1248 2739 1437 2822 
Q 1626 2906 1837 2906 
Q 2048 2906 2237 2822 
Q 2426 2739 2566 2579 
Q 2707 2419 2787 2185 
Q 2867 1952 2867 1651 
Q 2867 1350 2787 1116 
Q 2707 883 2566 726 
Q 2426 570 2237 486 
Q 2048 403 1837 403 
Q 1626 403 1437 486 
Q 1248 570 1107 726 
Q 966 883 886 1116 
Q 806 1350 806 1651 
z
M 230 1651 
Q 230 1286 332 972 
Q 435 659 640 425 
Q 845 192 1145 61 
Q 1446 -70 1837 -70 
Q 2234 -70 2531 61 
Q 2829 192 3033 425 
Q 3238 659 3340 972 
Q 3443 1286 3443 1651 
Q 3443 2016 3340 2333 
Q 3238 2650 3033 2883 
Q 2829 3117 2531 3251 
Q 2234 3386 1837 3386 
Q 1446 3386 1145 3251 
Q 845 3117 640 2883 
Q 435 2650 332 2333 
Q 230 2016 230 1651 
z
" transform="scale(0.015625)"/>
      <path id="HelveticaNeue-6e" d="M 410 3309 
L 410 0 
L 954 0 
L 954 1869 
Q 954 2093 1014 2281 
Q 1075 2470 1196 2611 
Q 1318 2752 1500 2829 
Q 1683 2906 1933 2906 
Q 2246 2906 2425 2726 
Q 2605 2547 2605 2240 
L 2605 0 
L 3149 0 
L 3149 2176 
Q 3149 2445 3094 2665 
Q 3040 2886 2905 3046 
Q 2771 3206 2553 3296 
Q 2336 3386 2010 3386 
Q 1274 3386 934 2784 
L 922 2784 
L 922 3309 
L 410 3309 
z
" transform="scale(0.015625)"/>
      <path id="HelveticaNeue-65" d="M 2707 1971 
L 806 1971 
Q 819 2163 889 2332 
Q 960 2502 1081 2630 
Q 1203 2758 1372 2832 
Q 1542 2906 1754 2906 
Q 1958 2906 2128 2832 
Q 2298 2758 2422 2633 
Q 2547 2509 2620 2336 
Q 2694 2163 2707 1971 
z
M 3232 1050 
L 2694 1050 
Q 2624 723 2403 563 
Q 2182 403 1837 403 
Q 1568 403 1369 492 
Q 1171 582 1043 732 
Q 915 883 857 1078 
Q 800 1274 806 1491 
L 3283 1491 
Q 3296 1792 3229 2125 
Q 3162 2458 2986 2739 
Q 2810 3021 2518 3203 
Q 2227 3386 1786 3386 
Q 1446 3386 1161 3258 
Q 877 3130 669 2899 
Q 461 2669 345 2355 
Q 230 2042 230 1664 
Q 243 1286 342 966 
Q 442 646 640 416 
Q 838 186 1129 58 
Q 1421 -70 1818 -70 
Q 2381 -70 2752 211 
Q 3123 493 3232 1050 
z
" transform="scale(0.015625)"/>
      <path id="HelveticaNeue-63" d="M 2656 2246 
L 3219 2246 
Q 3187 2541 3065 2755 
Q 2944 2970 2755 3110 
Q 2566 3251 2320 3318 
Q 2074 3386 1792 3386 
Q 1402 3386 1107 3248 
Q 813 3110 617 2870 
Q 422 2630 326 2307 
Q 230 1984 230 1613 
Q 230 1242 329 931 
Q 429 621 624 397 
Q 819 173 1110 51 
Q 1402 -70 1779 -70 
Q 2413 -70 2781 262 
Q 3149 595 3238 1210 
L 2682 1210 
Q 2630 826 2403 614 
Q 2176 403 1773 403 
Q 1517 403 1331 505 
Q 1146 608 1030 777 
Q 915 947 860 1164 
Q 806 1382 806 1613 
Q 806 1862 857 2096 
Q 909 2330 1027 2509 
Q 1146 2688 1344 2797 
Q 1542 2906 1837 2906 
Q 2182 2906 2387 2733 
Q 2592 2560 2656 2246 
z
" transform="scale(0.015625)"/>
      <path id="HelveticaNeue-79" d="M 1709 -442 
Q 1613 -685 1520 -851 
Q 1427 -1018 1315 -1123 
Q 1203 -1229 1065 -1277 
Q 928 -1325 749 -1325 
Q 653 -1325 557 -1312 
Q 461 -1299 371 -1267 
L 371 -768 
Q 442 -800 534 -822 
Q 627 -845 691 -845 
Q 858 -845 970 -765 
Q 1082 -685 1139 -538 
L 1363 19 
L 51 3309 
L 666 3309 
L 1632 602 
L 1645 602 
L 2573 3309 
L 3149 3309 
L 1709 -442 
z
" transform="scale(0.015625)"/>
      <path id="HelveticaNeue-2c" d="M 531 710 
L 531 0 
L 909 0 
Q 915 -77 899 -166 
Q 883 -256 838 -342 
Q 794 -429 720 -502 
Q 646 -576 538 -614 
L 538 -934 
Q 909 -826 1075 -563 
Q 1242 -301 1242 64 
L 1242 710 
L 531 710 
z
" transform="scale(0.015625)"/>
      <path id="HelveticaNeue-72" d="M 390 3309 
L 390 0 
L 934 0 
L 934 1472 
Q 934 1792 998 2038 
Q 1062 2285 1203 2457 
Q 1344 2630 1574 2720 
Q 1805 2810 2131 2810 
L 2131 3386 
Q 1690 3398 1402 3206 
Q 1114 3014 915 2611 
L 902 2611 
L 902 3309 
L 390 3309 
z
" transform="scale(0.015625)"/>
      <path id="HelveticaNeue-68" d="M 410 4570 
L 410 0 
L 954 0 
L 954 1869 
Q 954 2093 1014 2281 
Q 1075 2470 1196 2611 
Q 1318 2752 1500 2829 
Q 1683 2906 1933 2906 
Q 2246 2906 2425 2726 
Q 2605 2547 2605 2240 
L 2605 0 
L 3149 0 
L 3149 2176 
Q 3149 2445 3094 2665 
Q 3040 2886 2905 3046 
Q 2771 3206 2553 3296 
Q 2336 3386 2010 3386 
Q 1862 3386 1705 3354 
Q 1549 3322 1405 3254 
Q 1261 3187 1145 3081 
Q 1030 2976 966 2822 
L 954 2822 
L 954 4570 
L 410 4570 
z
" transform="scale(0.015625)"/>
     </defs>
     <use xlink:href="#HelveticaNeue-66"/>
     <use xlink:href="#HelveticaNeue-6c" transform="translate(29.599991 0)"/>
     <use xlink:href="#HelveticaNeue-61" transform="translate(51.799988 0)"/>
     <use xlink:href="#HelveticaNeue-74" transform="translate(105.499985 0)"/>
     <use xlink:href="#HelveticaNeue-3a" transform="translate(136.999969 0)"/>
     <use xlink:href="#HelveticaNeue-20" transform="translate(164.799957 0)"/>
     <use xlink:href="#HelveticaNeue-6f" transform="translate(192.599945 0)"/>
     <use xlink:href="#HelveticaNeue-6e" transform="translate(249.999939 0)"/>
     <use xlink:href="#HelveticaNeue-65" transform="translate(305.59993 0)"/>
     <use xlink:href="#HelveticaNeue-20" transform="translate(359.299927 0)"/>
     <use xlink:href="#HelveticaNeue-63" transform="translate(387.099915 0)"/>
     <use xlink:href="#HelveticaNeue-79" transform="translate(440.799911 0)"/>
     <use xlink:href="#HelveticaNeue-63" transform="translate(490.799896 0)"/>
     <use xlink:href="#HelveticaNeue-6c" transform="translate(544.499893 0)"/>
     <use xlink:href="#HelveticaNeue-65" transform="translate(566.69989 0)"/>
     <use xlink:href="#HelveticaNeue-2c" transform="translate(620.399887 0)"/>
     <use xlink:href="#HelveticaNeue-20" transform="translate(648.199875 0)"/>
     <use xlink:href="#HelveticaNeue-72" transform="translate(675.999863 0)"/>
     <use xlink:href="#HelveticaNeue-65" transform="translate(707.54985 0)"/>
     <use xlink:href="#HelveticaNeue-61" transform="translate(761.249847 0)"/>
     <use xlink:href="#HelveticaNeue-63" transform="translate(814.949844 0)"/>
     <use xlink:href="#HelveticaNeue-68" transform="translate(868.649841 0)"/>
     <use xlink:href="#HelveticaNeue-20" transform="translate(924.249832 0)"/>
     <use xlink:href="#HelveticaNeue-61" transform="translate(952.04982 0)"/>
     <use xlink:href="#HelveticaNeue-6c" transform="translate(1005.749817 0)"/>
     <use xlink:href="#HelveticaNeue-6c" transform="translate(1027.949814 0)"/>
    </g>
   </g>
   <g id="text_3">
    <!-- segmented: k enclaves, reach one -->
    <g style="fill: #1f2933" transform="translate(97.952812 324.263544) scale(0.12 -0.12)">
     <defs>
      <path id="HelveticaNeue-73" d="M 742 1043 
L 198 1043 
Q 211 736 326 521 
Q 442 307 634 176 
Q 826 45 1075 -12 
Q 1325 -70 1600 -70 
Q 1850 -70 2102 -22 
Q 2355 26 2556 147 
Q 2758 269 2883 467 
Q 3008 666 3008 966 
Q 3008 1203 2915 1363 
Q 2822 1523 2672 1628 
Q 2522 1734 2326 1798 
Q 2131 1862 1926 1907 
Q 1734 1952 1542 1993 
Q 1350 2035 1196 2096 
Q 1043 2157 944 2249 
Q 845 2342 845 2483 
Q 845 2611 909 2691 
Q 973 2771 1075 2819 
Q 1178 2867 1302 2886 
Q 1427 2906 1549 2906 
Q 1683 2906 1814 2877 
Q 1946 2848 2054 2784 
Q 2163 2720 2233 2614 
Q 2304 2509 2317 2349 
L 2861 2349 
Q 2842 2650 2733 2851 
Q 2624 3053 2441 3171 
Q 2259 3290 2022 3338 
Q 1786 3386 1504 3386 
Q 1286 3386 1065 3331 
Q 845 3277 669 3165 
Q 493 3053 381 2873 
Q 269 2694 269 2445 
Q 269 2125 429 1945 
Q 589 1766 829 1667 
Q 1069 1568 1350 1513 
Q 1632 1459 1872 1392 
Q 2112 1325 2272 1216 
Q 2432 1107 2432 896 
Q 2432 742 2355 643 
Q 2278 544 2160 493 
Q 2042 442 1901 422 
Q 1760 403 1632 403 
Q 1466 403 1309 435 
Q 1152 467 1027 540 
Q 902 614 825 739 
Q 749 864 742 1043 
z
" transform="scale(0.015625)"/>
      <path id="HelveticaNeue-67" d="M 3264 282 
L 3264 3309 
L 2752 3309 
L 2752 2835 
L 2746 2835 
Q 2598 3110 2336 3248 
Q 2074 3386 1760 3386 
Q 1331 3386 1036 3222 
Q 742 3059 563 2806 
Q 384 2554 307 2243 
Q 230 1933 230 1638 
Q 230 1299 323 995 
Q 416 691 601 464 
Q 787 237 1062 102 
Q 1338 -32 1709 -32 
Q 2029 -32 2313 112 
Q 2598 256 2739 563 
L 2752 563 
L 2752 346 
Q 2752 70 2697 -160 
Q 2643 -390 2521 -553 
Q 2400 -717 2214 -809 
Q 2029 -902 1760 -902 
Q 1626 -902 1478 -873 
Q 1331 -845 1206 -781 
Q 1082 -717 995 -614 
Q 909 -512 902 -365 
L 358 -365 
Q 371 -634 499 -819 
Q 627 -1005 822 -1120 
Q 1018 -1235 1258 -1286 
Q 1498 -1338 1728 -1338 
Q 2522 -1338 2893 -934 
Q 3264 -531 3264 282 
z
M 1741 442 
Q 1472 442 1293 554 
Q 1114 666 1005 848 
Q 896 1030 851 1254 
Q 806 1478 806 1702 
Q 806 1939 860 2156 
Q 915 2374 1033 2540 
Q 1152 2707 1337 2806 
Q 1523 2906 1786 2906 
Q 2042 2906 2221 2803 
Q 2400 2701 2512 2531 
Q 2624 2362 2675 2150 
Q 2726 1939 2726 1722 
Q 2726 1491 2672 1260 
Q 2618 1030 2502 848 
Q 2387 666 2198 554 
Q 2010 442 1741 442 
z
" transform="scale(0.015625)"/>
      <path id="HelveticaNeue-6d" d="M 410 3309 
L 410 0 
L 954 0 
L 954 2061 
Q 954 2157 1002 2301 
Q 1050 2445 1155 2579 
Q 1261 2714 1430 2810 
Q 1600 2906 1837 2906 
Q 2022 2906 2140 2851 
Q 2259 2797 2329 2697 
Q 2400 2598 2429 2464 
Q 2458 2330 2458 2170 
L 2458 0 
L 3002 0 
L 3002 2061 
Q 3002 2445 3232 2675 
Q 3462 2906 3866 2906 
Q 4064 2906 4189 2848 
Q 4314 2790 4384 2691 
Q 4454 2592 4480 2457 
Q 4506 2323 4506 2170 
L 4506 0 
L 5050 0 
L 5050 2426 
Q 5050 2682 4970 2864 
Q 4890 3046 4746 3161 
Q 4602 3277 4400 3331 
Q 4198 3386 3949 3386 
Q 3622 3386 3350 3238 
Q 3078 3091 2912 2822 
Q 2810 3130 2560 3258 
Q 2310 3386 2003 3386 
Q 1306 3386 934 2822 
L 922 2822 
L 922 3309 
L 410 3309 
z
" transform="scale(0.015625)"/>
      <path id="HelveticaNeue-64" d="M 806 1626 
Q 806 1869 857 2099 
Q 909 2330 1024 2509 
Q 1139 2688 1331 2797 
Q 1523 2906 1798 2906 
Q 2080 2906 2278 2800 
Q 2477 2694 2601 2521 
Q 2726 2349 2784 2121 
Q 2842 1894 2842 1651 
Q 2842 1421 2787 1197 
Q 2733 973 2611 797 
Q 2490 621 2298 512 
Q 2106 403 1830 403 
Q 1568 403 1373 505 
Q 1178 608 1053 781 
Q 928 954 867 1174 
Q 806 1395 806 1626 
z
M 3366 0 
L 3366 4570 
L 2822 4570 
L 2822 2867 
L 2810 2867 
Q 2720 3014 2589 3113 
Q 2458 3213 2310 3273 
Q 2163 3334 2016 3360 
Q 1869 3386 1741 3386 
Q 1363 3386 1078 3248 
Q 794 3110 605 2876 
Q 416 2643 323 2329 
Q 230 2016 230 1664 
Q 230 1312 326 998 
Q 422 685 611 448 
Q 800 211 1085 70 
Q 1370 -70 1754 -70 
Q 2099 -70 2387 51 
Q 2675 173 2810 448 
L 2822 448 
L 2822 0 
L 3366 0 
z
" transform="scale(0.015625)"/>
      <path id="HelveticaNeue-6b" d="M 442 4570 
L 442 0 
L 986 0 
L 986 1254 
L 1498 1728 
L 2630 0 
L 3322 0 
L 1914 2106 
L 3226 3309 
L 2496 3309 
L 986 1862 
L 986 4570 
L 442 4570 
z
" transform="scale(0.015625)"/>
      <path id="HelveticaNeue-76" d="M 1901 0 
L 3110 3309 
L 2541 3309 
L 1638 550 
L 1626 550 
L 698 3309 
L 90 3309 
L 1318 0 
L 1901 0 
z
" transform="scale(0.015625)"/>
     </defs>
     <use xlink:href="#HelveticaNeue-73"/>
     <use xlink:href="#HelveticaNeue-65" transform="translate(49.999985 0)"/>
     <use xlink:href="#HelveticaNeue-67" transform="translate(103.699982 0)"/>
     <use xlink:href="#HelveticaNeue-6d" transform="translate(161.099976 0)"/>
     <use xlink:href="#HelveticaNeue-65" transform="translate(246.399963 0)"/>
     <use xlink:href="#HelveticaNeue-6e" transform="translate(300.09996 0)"/>
     <use xlink:href="#HelveticaNeue-74" transform="translate(355.699951 0)"/>
     <use xlink:href="#HelveticaNeue-65" transform="translate(387.199936 0)"/>
     <use xlink:href="#HelveticaNeue-64" transform="translate(440.899933 0)"/>
     <use xlink:href="#HelveticaNeue-3a" transform="translate(500.199921 0)"/>
     <use xlink:href="#HelveticaNeue-20" transform="translate(527.999908 0)"/>
     <use xlink:href="#HelveticaNeue-6b" transform="translate(555.799896 0)"/>
     <use xlink:href="#HelveticaNeue-20" transform="translate(607.69989 0)"/>
     <use xlink:href="#HelveticaNeue-65" transform="translate(635.499878 0)"/>
     <use xlink:href="#HelveticaNeue-6e" transform="translate(689.199875 0)"/>
     <use xlink:href="#HelveticaNeue-63" transform="translate(744.799866 0)"/>
     <use xlink:href="#HelveticaNeue-6c" transform="translate(798.499863 0)"/>
     <use xlink:href="#HelveticaNeue-61" transform="translate(820.69986 0)"/>
     <use xlink:href="#HelveticaNeue-76" transform="translate(874.399857 0)"/>
     <use xlink:href="#HelveticaNeue-65" transform="translate(924.399841 0)"/>
     <use xlink:href="#HelveticaNeue-73" transform="translate(978.099838 0)"/>
     <use xlink:href="#HelveticaNeue-2c" transform="translate(1028.099823 0)"/>
     <use xlink:href="#HelveticaNeue-20" transform="translate(1055.899811 0)"/>
     <use xlink:href="#HelveticaNeue-72" transform="translate(1083.699799 0)"/>
     <use xlink:href="#HelveticaNeue-65" transform="translate(1115.249786 0)"/>
     <use xlink:href="#HelveticaNeue-61" transform="translate(1168.949783 0)"/>
     <use xlink:href="#HelveticaNeue-63" transform="translate(1222.64978 0)"/>
     <use xlink:href="#HelveticaNeue-68" transform="translate(1276.349777 0)"/>
     <use xlink:href="#HelveticaNeue-20" transform="translate(1331.949768 0)"/>
     <use xlink:href="#HelveticaNeue-6f" transform="translate(1359.749756 0)"/>
     <use xlink:href="#HelveticaNeue-6e" transform="translate(1417.14975 0)"/>
     <use xlink:href="#HelveticaNeue-65" transform="translate(1472.749741 0)"/>
    </g>
   </g>
   <g id="text_4">
    <!-- TWO LENSES -->
    <g style="fill: #7b8794" transform="translate(490.584375 42.648998) scale(0.11 -0.11)">
     <use xlink:href="#HelveticaNeue-54"/>
     <use xlink:href="#HelveticaNeue-57" transform="translate(57.399994 0)"/>
     <use xlink:href="#HelveticaNeue-4f" transform="translate(149.999985 0)"/>
     <use xlink:href="#HelveticaNeue-20" transform="translate(225.999969 0)"/>
     <use xlink:href="#HelveticaNeue-4c" transform="translate(253.799957 0)"/>
     <use xlink:href="#HelveticaNeue-45" transform="translate(309.399948 0)"/>
     <use xlink:href="#HelveticaNeue-4e" transform="translate(370.499939 0)"/>
     <use xlink:href="#HelveticaNeue-53" transform="translate(442.699921 0)"/>
     <use xlink:href="#HelveticaNeue-45" transform="translate(507.499908 0)"/>
     <use xlink:href="#HelveticaNeue-53" transform="translate(568.599899 0)"/>
    </g>
   </g>
   <g id="text_5">
    <!-- 1-WL GNN -->
    <g style="fill: #1f2933" transform="translate(396.666 101.248301) scale(0.13 -0.13)">
     <defs>
      <path id="HelveticaNeue-31" d="M 2278 0 
L 2278 4538 
L 1862 4538 
Q 1818 4282 1696 4115 
Q 1574 3949 1398 3853 
Q 1222 3757 1004 3721 
Q 787 3686 557 3686 
L 557 3251 
L 1734 3251 
L 1734 0 
L 2278 0 
z
" transform="scale(0.015625)"/>
      <path id="HelveticaNeue-2d" d="M 320 2035 
L 320 1523 
L 2170 1523 
L 2170 2035 
L 320 2035 
z
" transform="scale(0.015625)"/>
      <path id="HelveticaNeue-47" d="M 3917 570 
L 4077 0 
L 4461 0 
L 4461 2406 
L 2458 2406 
L 2458 1894 
L 3917 1894 
Q 3930 1581 3834 1309 
Q 3738 1037 3549 835 
Q 3360 634 3085 518 
Q 2810 403 2451 403 
Q 2067 403 1776 553 
Q 1485 704 1286 957 
Q 1088 1210 985 1539 
Q 883 1869 883 2227 
Q 883 2592 972 2941 
Q 1062 3290 1251 3562 
Q 1440 3834 1737 4000 
Q 2035 4166 2451 4166 
Q 2707 4166 2934 4105 
Q 3162 4045 3341 3923 
Q 3520 3802 3641 3613 
Q 3763 3424 3808 3162 
L 4416 3162 
Q 4352 3565 4176 3849 
Q 4000 4134 3741 4320 
Q 3482 4506 3152 4592 
Q 2822 4678 2451 4678 
Q 1907 4678 1500 4476 
Q 1094 4275 822 3936 
Q 550 3597 412 3145 
Q 275 2694 275 2195 
Q 275 1747 422 1331 
Q 570 915 851 595 
Q 1133 275 1536 86 
Q 1939 -102 2451 -102 
Q 2854 -102 3251 54 
Q 3648 211 3917 570 
z
" transform="scale(0.015625)"/>
     </defs>
     <use xlink:href="#HelveticaNeue-31"/>
     <use xlink:href="#HelveticaNeue-2d" transform="translate(55.599991 0)"/>
     <use xlink:href="#HelveticaNeue-57" transform="translate(94.499985 0)"/>
     <use xlink:href="#HelveticaNeue-4c" transform="translate(187.099976 0)"/>
     <use xlink:href="#HelveticaNeue-20" transform="translate(242.699966 0)"/>
     <use xlink:href="#HelveticaNeue-47" transform="translate(270.499954 0)"/>
     <use xlink:href="#HelveticaNeue-4e" transform="translate(346.399948 0)"/>
     <use xlink:href="#HelveticaNeue-4e" transform="translate(418.59993 0)"/>
    </g>
   </g>
   <g id="text_6">
    <!-- both collapse to one embedding -->
    <g style="fill: #7b8794" transform="translate(396.666 126.280624) scale(0.115 -0.115)">
     <defs>
      <path id="HelveticaNeue-62" d="M 429 4570 
L 429 0 
L 973 0 
L 973 442 
L 986 442 
Q 1075 294 1206 195 
Q 1338 96 1485 38 
Q 1632 -19 1782 -44 
Q 1933 -70 2054 -70 
Q 2432 -70 2717 64 
Q 3002 198 3190 432 
Q 3379 666 3472 979 
Q 3565 1293 3565 1645 
Q 3565 1997 3469 2310 
Q 3373 2624 3184 2864 
Q 2995 3104 2710 3245 
Q 2426 3386 2042 3386 
Q 1696 3386 1408 3261 
Q 1120 3136 986 2861 
L 973 2861 
L 973 4570 
L 429 4570 
z
M 2989 1683 
Q 2989 1440 2937 1209 
Q 2886 979 2771 800 
Q 2656 621 2467 512 
Q 2278 403 1997 403 
Q 1715 403 1516 508 
Q 1318 614 1193 787 
Q 1069 960 1011 1187 
Q 954 1414 954 1658 
Q 954 1888 1008 2112 
Q 1062 2336 1184 2512 
Q 1306 2688 1498 2797 
Q 1690 2906 1965 2906 
Q 2227 2906 2422 2803 
Q 2618 2701 2742 2528 
Q 2867 2355 2928 2134 
Q 2989 1914 2989 1683 
z
" transform="scale(0.015625)"/>
      <path id="HelveticaNeue-70" d="M 429 3309 
L 429 -1261 
L 973 -1261 
L 973 442 
L 986 442 
Q 1075 294 1206 195 
Q 1338 96 1485 38 
Q 1632 -19 1782 -44 
Q 1933 -70 2054 -70 
Q 2432 -70 2717 64 
Q 3002 198 3190 432 
Q 3379 666 3472 979 
Q 3565 1293 3565 1645 
Q 3565 1997 3469 2310 
Q 3373 2624 3184 2864 
Q 2995 3104 2710 3245 
Q 2426 3386 2042 3386 
Q 1696 3386 1408 3261 
Q 1120 3136 986 2861 
L 973 2861 
L 973 3309 
L 429 3309 
z
M 2989 1683 
Q 2989 1440 2937 1209 
Q 2886 979 2771 800 
Q 2656 621 2467 512 
Q 2278 403 1997 403 
Q 1715 403 1516 508 
Q 1318 614 1193 787 
Q 1069 960 1011 1187 
Q 954 1414 954 1658 
Q 954 1888 1008 2112 
Q 1062 2336 1184 2512 
Q 1306 2688 1498 2797 
Q 1690 2906 1965 2906 
Q 2227 2906 2422 2803 
Q 2618 2701 2742 2528 
Q 2867 2355 2928 2134 
Q 2989 1914 2989 1683 
z
" transform="scale(0.015625)"/>
      <path id="HelveticaNeue-69" d="M 986 3904 
L 986 4570 
L 442 4570 
L 442 3904 
L 986 3904 
z
M 442 3309 
L 442 0 
L 986 0 
L 986 3309 
L 442 3309 
z
" transform="scale(0.015625)"/>
     </defs>
     <use xlink:href="#HelveticaNeue-62"/>
     <use xlink:href="#HelveticaNeue-6f" transform="translate(59.299988 0)"/>
     <use xlink:href="#HelveticaNeue-74" transform="translate(116.699982 0)"/>
     <use xlink:href="#HelveticaNeue-68" transform="translate(148.199966 0)"/>
     <use xlink:href="#HelveticaNeue-20" transform="translate(203.799957 0)"/>
     <use xlink:href="#HelveticaNeue-63" transform="translate(231.599945 0)"/>
     <use xlink:href="#HelveticaNeue-6f" transform="translate(285.299942 0)"/>
     <use xlink:href="#HelveticaNeue-6c" transform="translate(342.699936 0)"/>
     <use xlink:href="#HelveticaNeue-6c" transform="translate(364.899933 0)"/>
     <use xlink:href="#HelveticaNeue-61" transform="translate(387.09993 0)"/>
     <use xlink:href="#HelveticaNeue-70" transform="translate(440.799927 0)"/>
     <use xlink:href="#HelveticaNeue-73" transform="translate(500.099915 0)"/>
     <use xlink:href="#HelveticaNeue-65" transform="translate(550.099899 0)"/>
     <use xlink:href="#HelveticaNeue-20" transform="translate(603.799896 0)"/>
     <use xlink:href="#HelveticaNeue-74" transform="translate(631.599884 0)"/>
     <use xlink:href="#HelveticaNeue-6f" transform="translate(663.099869 0)"/>
     <use xlink:href="#HelveticaNeue-20" transform="translate(720.499863 0)"/>
     <use xlink:href="#HelveticaNeue-6f" transform="translate(748.29985 0)"/>
     <use xlink:href="#HelveticaNeue-6e" transform="translate(805.699844 0)"/>
     <use xlink:href="#HelveticaNeue-65" transform="translate(861.299835 0)"/>
     <use xlink:href="#HelveticaNeue-20" transform="translate(914.999832 0)"/>
     <use xlink:href="#HelveticaNeue-65" transform="translate(942.79982 0)"/>
     <use xlink:href="#HelveticaNeue-6d" transform="translate(996.499817 0)"/>
     <use xlink:href="#HelveticaNeue-62" transform="translate(1081.799805 0)"/>
     <use xlink:href="#HelveticaNeue-65" transform="translate(1141.099792 0)"/>
     <use xlink:href="#HelveticaNeue-64" transform="translate(1194.799789 0)"/>
     <use xlink:href="#HelveticaNeue-64" transform="translate(1254.099777 0)"/>
     <use xlink:href="#HelveticaNeue-69" transform="translate(1313.399765 0)"/>
     <use xlink:href="#HelveticaNeue-6e" transform="translate(1335.599762 0)"/>
     <use xlink:href="#HelveticaNeue-67" transform="translate(1391.199753 0)"/>
    </g>
   </g>
   <g id="line2d_3">
    <path d="M 585.8784 124.915225 
L 610.5096 104.889366 
" clip-path="url(#p4221b5652b)" style="fill: none; stroke: #c0392b; stroke-width: 3.2; stroke-linecap: round"/>
   </g>
   <g id="line2d_4">
    <path d="M 585.8784 104.889366 
L 610.5096 124.915225 
" clip-path="url(#p4221b5652b)" style="fill: none; stroke: #c0392b; stroke-width: 3.2; stroke-linecap: round"/>
   </g>
   <g id="text_7">
    <!-- reachability cover -->
    <g style="fill: #1f2933" transform="translate(396.666 246.890908) scale(0.13 -0.13)">
     <use xlink:href="#HelveticaNeue-72"/>
     <use xlink:href="#HelveticaNeue-65" transform="translate(31.549988 0)"/>
     <use xlink:href="#HelveticaNeue-61" transform="translate(85.249985 0)"/>
     <use xlink:href="#HelveticaNeue-63" transform="translate(138.949982 0)"/>
     <use xlink:href="#HelveticaNeue-68" transform="translate(192.649979 0)"/>
     <use xlink:href="#HelveticaNeue-61" transform="translate(248.249969 0)"/>
     <use xlink:href="#HelveticaNeue-62" transform="translate(301.949966 0)"/>
     <use xlink:href="#HelveticaNeue-69" transform="translate(361.249954 0)"/>
     <use xlink:href="#HelveticaNeue-6c" transform="translate(383.449951 0)"/>
     <use xlink:href="#HelveticaNeue-69" transform="translate(405.649948 0)"/>
     <use xlink:href="#HelveticaNeue-74" transform="translate(427.849945 0)"/>
     <use xlink:href="#HelveticaNeue-79" transform="translate(459.34993 0)"/>
     <use xlink:href="#HelveticaNeue-20" transform="translate(509.349915 0)"/>
     <use xlink:href="#HelveticaNeue-63" transform="translate(537.149902 0)"/>
     <use xlink:href="#HelveticaNeue-6f" transform="translate(590.849899 0)"/>
     <use xlink:href="#HelveticaNeue-76" transform="translate(648.249893 0)"/>
     <use xlink:href="#HelveticaNeue-65" transform="translate(698.249878 0)"/>
     <use xlink:href="#HelveticaNeue-72" transform="translate(751.949875 0)"/>
    </g>
   </g>
   <g id="text_8">
    <!-- A^t · 1 differs by class -->
    <g style="fill: #7b8794" transform="translate(396.666 271.923232) scale(0.115 -0.115)">
     <defs>
      <path id="HelveticaNeue-5e" d="M 1715 4461 
L 320 1690 
L 774 1690 
L 1914 3994 
L 3072 1690 
L 3520 1690 
L 2125 4461 
L 1715 4461 
z
" transform="scale(0.015625)"/>
     </defs>
     <use xlink:href="#HelveticaNeue-41"/>
     <use xlink:href="#HelveticaNeue-5e" transform="translate(64.799988 0)"/>
     <use xlink:href="#HelveticaNeue-74" transform="translate(124.799973 0)"/>
     <use xlink:href="#HelveticaNeue-20" transform="translate(156.299957 0)"/>
     <use xlink:href="#HelveticaNeue-b7" transform="translate(184.099945 0)"/>
     <use xlink:href="#HelveticaNeue-20" transform="translate(211.899933 0)"/>
     <use xlink:href="#HelveticaNeue-31" transform="translate(239.699921 0)"/>
     <use xlink:href="#HelveticaNeue-20" transform="translate(295.299911 0)"/>
     <use xlink:href="#HelveticaNeue-64" transform="translate(323.099899 0)"/>
     <use xlink:href="#HelveticaNeue-69" transform="translate(382.399887 0)"/>
     <use xlink:href="#HelveticaNeue-66" transform="translate(404.599884 0)"/>
     <use xlink:href="#HelveticaNeue-66" transform="translate(432.449875 0)"/>
     <use xlink:href="#HelveticaNeue-65" transform="translate(462.049866 0)"/>
     <use xlink:href="#HelveticaNeue-72" transform="translate(515.749863 0)"/>
     <use xlink:href="#HelveticaNeue-73" transform="translate(549.04985 0)"/>
     <use xlink:href="#HelveticaNeue-20" transform="translate(599.049835 0)"/>
     <use xlink:href="#HelveticaNeue-62" transform="translate(626.849823 0)"/>
     <use xlink:href="#HelveticaNeue-79" transform="translate(686.149811 0)"/>
     <use xlink:href="#HelveticaNeue-20" transform="translate(736.149796 0)"/>
     <use xlink:href="#HelveticaNeue-63" transform="translate(763.949783 0)"/>
     <use xlink:href="#HelveticaNeue-6c" transform="translate(817.64978 0)"/>
     <use xlink:href="#HelveticaNeue-61" transform="translate(839.849777 0)"/>
     <use xlink:href="#HelveticaNeue-73" transform="translate(893.549774 0)"/>
     <use xlink:href="#HelveticaNeue-73" transform="translate(943.549759 0)"/>
    </g>
   </g>
   <g id="line2d_5">
    <path d="M 585.8784 261.546196 
L 595.1151 270.557832 
L 612.97272 249.530681 
" clip-path="url(#p4221b5652b)" style="fill: none; stroke: #2b6cb0; stroke-width: 3.2; stroke-linecap: round"/>
   </g>
   <g id="text_9">
    <!-- BLAST RADIUS -->
    <g style="fill: #7b8794" transform="translate(749.7235 42.648998) scale(0.11 -0.11)">
     <defs>
      <path id="HelveticaNeue-42" d="M 1107 2605 
L 1107 4058 
L 2323 4058 
Q 2522 4058 2698 4035 
Q 2874 4013 3008 3936 
Q 3142 3859 3219 3718 
Q 3296 3578 3296 3334 
Q 3296 2970 3069 2787 
Q 2842 2605 2323 2605 
L 1107 2605 
z
M 499 4570 
L 499 0 
L 2707 0 
Q 3046 0 3305 112 
Q 3565 224 3741 406 
Q 3917 589 4006 825 
Q 4096 1062 4096 1312 
Q 4096 1734 3872 2028 
Q 3648 2323 3226 2413 
L 3226 2426 
Q 3552 2554 3728 2819 
Q 3904 3085 3904 3450 
Q 3904 3795 3747 4032 
Q 3590 4269 3366 4403 
Q 3264 4467 3120 4499 
Q 2976 4531 2809 4547 
Q 2643 4563 2473 4566 
Q 2304 4570 2157 4570 
L 499 4570 
z
M 1107 512 
L 1107 2093 
L 2496 2093 
Q 2688 2093 2867 2057 
Q 3046 2022 3184 1936 
Q 3322 1850 3405 1702 
Q 3488 1555 3488 1331 
Q 3488 947 3261 729 
Q 3034 512 2630 512 
L 1107 512 
z
" transform="scale(0.015625)"/>
      <path id="HelveticaNeue-52" d="M 499 4570 
L 499 0 
L 1107 0 
L 1107 1952 
L 2592 1952 
Q 2816 1952 2950 1885 
Q 3085 1818 3168 1706 
Q 3251 1594 3289 1443 
Q 3328 1293 3354 1126 
Q 3386 960 3392 787 
Q 3398 614 3404 464 
Q 3411 314 3433 192 
Q 3456 70 3520 0 
L 4198 0 
Q 4102 115 4054 265 
Q 4006 416 3980 582 
Q 3955 749 3948 921 
Q 3942 1094 3930 1261 
Q 3910 1427 3875 1580 
Q 3840 1734 3766 1859 
Q 3693 1984 3568 2073 
Q 3443 2163 3245 2202 
L 3245 2214 
Q 3661 2330 3849 2643 
Q 4038 2957 4038 3373 
Q 4038 3930 3670 4250 
Q 3302 4570 2650 4570 
L 499 4570 
z
M 2374 2464 
L 1107 2464 
L 1107 4058 
L 2618 4058 
Q 3046 4058 3238 3840 
Q 3430 3622 3430 3277 
Q 3430 3027 3344 2870 
Q 3258 2714 3114 2621 
Q 2970 2528 2778 2496 
Q 2586 2464 2374 2464 
z
" transform="scale(0.015625)"/>
      <path id="HelveticaNeue-55" d="M 4147 1651 
L 4147 4570 
L 3539 4570 
L 3539 1651 
Q 3539 1037 3235 720 
Q 2931 403 2349 403 
Q 1734 403 1408 720 
Q 1082 1037 1082 1651 
L 1082 4570 
L 474 4570 
L 474 1651 
Q 474 736 970 317 
Q 1466 -102 2349 -102 
Q 3213 -102 3680 336 
Q 4147 774 4147 1651 
z
" transform="scale(0.015625)"/>
     </defs>
     <use xlink:href="#HelveticaNeue-42"/>
     <use xlink:href="#HelveticaNeue-4c" transform="translate(68.499985 0)"/>
     <use xlink:href="#HelveticaNeue-41" transform="translate(124.099976 0)"/>
     <use xlink:href="#HelveticaNeue-53" transform="translate(188.899963 0)"/>
     <use xlink:href="#HelveticaNeue-54" transform="translate(253.699951 0)"/>
     <use xlink:href="#HelveticaNeue-20" transform="translate(311.099945 0)"/>
     <use xlink:href="#HelveticaNeue-52" transform="translate(338.899933 0)"/>
     <use xlink:href="#HelveticaNeue-41" transform="translate(407.399918 0)"/>
     <use xlink:href="#HelveticaNeue-44" transform="translate(472.199905 0)"/>
     <use xlink:href="#HelveticaNeue-49" transform="translate(542.599899 0)"/>
     <use xlink:href="#HelveticaNeue-55" transform="translate(568.499893 0)"/>
     <use xlink:href="#HelveticaNeue-53" transform="translate(640.699875 0)"/>
    </g>
   </g>
   <g id="patch_52">
    <path d="M 692.562873 185.447933 
Q 791.325809 185.447933 890.088746 185.447933 
" style="fill: none; stroke: #7b8794; stroke-width: 1.4; stroke-linecap: round"/>
   </g>
   <g id="text_10">
    <!-- 0 -->
    <g style="fill: #7b8794" transform="translate(695.900344 203.653259) scale(0.11 -0.11)">
     <defs>
      <path id="HelveticaNeue-30" d="M 845 2234 
Q 845 2400 848 2601 
Q 851 2803 880 3004 
Q 909 3206 963 3398 
Q 1018 3590 1123 3734 
Q 1229 3878 1389 3968 
Q 1549 4058 1779 4058 
Q 2010 4058 2170 3968 
Q 2330 3878 2435 3734 
Q 2541 3590 2595 3398 
Q 2650 3206 2678 3004 
Q 2707 2803 2710 2601 
Q 2714 2400 2714 2234 
Q 2714 1978 2698 1661 
Q 2682 1344 2595 1065 
Q 2509 787 2317 595 
Q 2125 403 1779 403 
Q 1434 403 1242 595 
Q 1050 787 963 1065 
Q 877 1344 861 1661 
Q 845 1978 845 2234 
z
M 269 2227 
Q 269 1978 281 1709 
Q 294 1440 345 1184 
Q 397 928 493 701 
Q 589 474 755 301 
Q 922 128 1174 29 
Q 1427 -70 1779 -70 
Q 2138 -70 2387 29 
Q 2637 128 2803 301 
Q 2970 474 3066 701 
Q 3162 928 3213 1184 
Q 3264 1440 3277 1709 
Q 3290 1978 3290 2227 
Q 3290 2477 3277 2745 
Q 3264 3014 3213 3270 
Q 3162 3526 3066 3756 
Q 2970 3987 2803 4160 
Q 2637 4333 2384 4435 
Q 2131 4538 1779 4538 
Q 1427 4538 1174 4435 
Q 922 4333 755 4160 
Q 589 3987 493 3756 
Q 397 3526 345 3270 
Q 294 3014 281 2745 
Q 269 2477 269 2227 
z
" transform="scale(0.015625)"/>
     </defs>
     <use xlink:href="#HelveticaNeue-30"/>
    </g>
   </g>
   <g id="text_11">
    <!-- 1 -->
    <g style="fill: #7b8794" transform="translate(880.634344 203.653259) scale(0.11 -0.11)">
     <use xlink:href="#HelveticaNeue-31"/>
    </g>
   </g>
   <g id="patch_53">
    <path d="M 760.536 191.364664 
C 762.465989 191.364664 764.317191 190.74124 765.681899 189.631694 
C 767.046607 188.522148 767.8134 187.017069 767.8134 185.447933 
C 767.8134 183.878798 767.046607 182.373719 765.681899 181.264173 
C 764.317191 180.154627 762.465989 179.531203 760.536 179.531203 
C 758.606011 179.531203 756.754809 180.154627 755.390101 181.264173 
C 754.025393 182.373719 753.2586 183.878798 753.2586 185.447933 
C 753.2586 187.017069 754.025393 188.522148 755.390101 189.631694 
C 756.754809 190.74124 758.606011 191.364664 760.536 191.364664 
z
" clip-path="url(#p4221b5652b)" style="fill: #2b6cb0; stroke: #2b6cb0; stroke-linejoin: miter"/>
   </g>
   <g id="text_12">
    <!-- segmented -->
    <g style="fill: #2b6cb0" transform="translate(733.024828 151.074286) scale(0.11 -0.11)">
     <use xlink:href="#HelveticaNeue-73"/>
     <use xlink:href="#HelveticaNeue-65" transform="translate(49.999985 0)"/>
     <use xlink:href="#HelveticaNeue-67" transform="translate(103.699982 0)"/>
     <use xlink:href="#HelveticaNeue-6d" transform="translate(161.099976 0)"/>
     <use xlink:href="#HelveticaNeue-65" transform="translate(246.399963 0)"/>
     <use xlink:href="#HelveticaNeue-6e" transform="translate(300.09996 0)"/>
     <use xlink:href="#HelveticaNeue-74" transform="translate(355.699951 0)"/>
     <use xlink:href="#HelveticaNeue-65" transform="translate(387.199936 0)"/>
     <use xlink:href="#HelveticaNeue-64" transform="translate(440.899933 0)"/>
    </g>
    <!-- ≈ 1/k -->
    <g style="fill: #2b6cb0" transform="translate(747.963344 162.799598) scale(0.11 -0.11)">
     <defs>
      <path id="HelveticaNeue-2248" d="M 230 544 
Q 256 717 310 886 
Q 365 1056 464 1190 
Q 563 1325 707 1408 
Q 851 1491 1056 1491 
Q 1267 1491 1494 1420 
Q 1722 1350 1952 1264 
Q 2182 1178 2400 1107 
Q 2618 1037 2810 1037 
Q 3027 1037 3139 1177 
Q 3251 1318 3290 1510 
L 3610 1510 
Q 3590 1331 3536 1164 
Q 3482 998 3382 867 
Q 3283 736 3136 659 
Q 2989 582 2784 582 
Q 2579 582 2342 652 
Q 2106 723 1869 809 
Q 1632 896 1417 969 
Q 1203 1043 1043 1043 
Q 838 1043 713 886 
Q 589 730 563 544 
L 230 544 
L 230 544 
z
M 230 1696 
Q 256 1869 310 2038 
Q 365 2208 464 2342 
Q 563 2477 707 2560 
Q 851 2643 1056 2643 
Q 1267 2643 1494 2572 
Q 1722 2502 1952 2416 
Q 2182 2330 2400 2259 
Q 2618 2189 2810 2189 
Q 3027 2189 3139 2329 
Q 3251 2470 3290 2662 
L 3610 2662 
Q 3590 2483 3536 2316 
Q 3482 2150 3382 2019 
Q 3283 1888 3136 1811 
Q 2989 1734 2784 1734 
Q 2579 1734 2342 1804 
Q 2106 1875 1869 1961 
Q 1632 2048 1417 2121 
Q 1203 2195 1043 2195 
Q 838 2195 713 2038 
Q 589 1882 563 1696 
L 230 1696 
L 230 1696 
z
" transform="scale(0.015625)"/>
      <path id="HelveticaNeue-2f" d="M 1779 4678 
L -109 -102 
L 352 -102 
L 2246 4678 
L 1779 4678 
z
" transform="scale(0.015625)"/>
     </defs>
     <use xlink:href="#HelveticaNeue-2248"/>
     <use xlink:href="#HelveticaNeue-20" transform="translate(59.999985 0)"/>
     <use xlink:href="#HelveticaNeue-31" transform="translate(87.799973 0)"/>
     <use xlink:href="#HelveticaNeue-2f" transform="translate(143.399963 0)"/>
     <use xlink:href="#HelveticaNeue-6b" transform="translate(176.699951 0)"/>
    </g>
   </g>
   <g id="patch_54">
    <path d="M 883.692 191.364664 
C 885.621989 191.364664 887.473191 190.74124 888.837899 189.631694 
C 890.202607 188.522148 890.9694 187.017069 890.9694 185.447933 
C 890.9694 183.878798 890.202607 182.373719 888.837899 181.264173 
C 887.473191 180.154627 885.621989 179.531203 883.692 179.531203 
C 881.762011 179.531203 879.910809 180.154627 878.546101 181.264173 
C 877.181393 182.373719 876.4146 183.878798 876.4146 185.447933 
C 876.4146 187.017069 877.181393 188.522148 878.546101 189.631694 
C 879.910809 190.74124 881.762011 191.364664 883.692 191.364664 
z
" clip-path="url(#p4221b5652b)" style="fill: #c0392b; stroke: #c0392b; stroke-linejoin: miter"/>
   </g>
   <g id="text_13">
    <!-- flat -->
    <g style="fill: #c0392b" transform="translate(876.157 151.206629) scale(0.11 -0.11)">
     <use xlink:href="#HelveticaNeue-66"/>
     <use xlink:href="#HelveticaNeue-6c" transform="translate(29.599991 0)"/>
     <use xlink:href="#HelveticaNeue-61" transform="translate(51.799988 0)"/>
     <use xlink:href="#HelveticaNeue-74" transform="translate(105.499985 0)"/>
    </g>
    <!-- ≈ 1.0 -->
    <g style="fill: #c0392b" transform="translate(871.219031 162.799598) scale(0.11 -0.11)">
     <defs>
      <path id="HelveticaNeue-2e" d="M 531 710 
L 531 0 
L 1242 0 
L 1242 710 
L 531 710 
z
" transform="scale(0.015625)"/>
     </defs>
     <use xlink:href="#HelveticaNeue-2248"/>
     <use xlink:href="#HelveticaNeue-20" transform="translate(59.999985 0)"/>
     <use xlink:href="#HelveticaNeue-31" transform="translate(87.799973 0)"/>
     <use xlink:href="#HelveticaNeue-2e" transform="translate(143.399963 0)"/>
     <use xlink:href="#HelveticaNeue-30" transform="translate(171.199951 0)"/>
    </g>
   </g>
   <g id="line2d_6">
    <path d="M 737.5842 259.907717 
L 744.3018 266.461634 
L 757.28916 251.16916 
" clip-path="url(#p4221b5652b)" style="fill: none; stroke: #2b6cb0; stroke-width: 3.2; stroke-linecap: round"/>
   </g>
   <g id="text_14">
    <!-- separated -->
    <g style="fill: #2b6cb0" transform="translate(763.335 262.820569) scale(0.13 -0.13)">
     <use xlink:href="#HelveticaNeue-73"/>
     <use xlink:href="#HelveticaNeue-65" transform="translate(49.999985 0)"/>
     <use xlink:href="#HelveticaNeue-70" transform="translate(103.699982 0)"/>
     <use xlink:href="#HelveticaNeue-61" transform="translate(162.999969 0)"/>
     <use xlink:href="#HelveticaNeue-72" transform="translate(216.699966 0)"/>
     <use xlink:href="#HelveticaNeue-61" transform="translate(249.999954 0)"/>
     <use xlink:href="#HelveticaNeue-74" transform="translate(303.699951 0)"/>
     <use xlink:href="#HelveticaNeue-65" transform="translate(335.199936 0)"/>
     <use xlink:href="#HelveticaNeue-64" transform="translate(388.899933 0)"/>
    </g>
   </g>
   <g id="text_15">
    <!-- Standard GNNs can't separate these estates. A Grothendieck cover can. -->
    <g style="fill: #1f2933" transform="translate(250.517461 342.46887) scale(0.135 -0.135)">
     <defs>
      <path id="HelveticaNeue-27" d="M 672 4570 
L 672 2918 
L 1107 2918 
L 1107 4570 
L 672 4570 
z
" transform="scale(0.015625)"/>
     </defs>
     <use xlink:href="#HelveticaNeue-53"/>
     <use xlink:href="#HelveticaNeue-74" transform="translate(64.799988 0)"/>
     <use xlink:href="#HelveticaNeue-61" transform="translate(96.299973 0)"/>
     <use xlink:href="#HelveticaNeue-6e" transform="translate(149.999969 0)"/>
     <use xlink:href="#HelveticaNeue-64" transform="translate(205.59996 0)"/>
     <use xlink:href="#HelveticaNeue-61" transform="translate(264.899948 0)"/>
     <use xlink:href="#HelveticaNeue-72" transform="translate(318.599945 0)"/>
     <use xlink:href="#HelveticaNeue-64" transform="translate(350.149933 0)"/>
     <use xlink:href="#HelveticaNeue-20" transform="translate(409.449921 0)"/>
     <use xlink:href="#HelveticaNeue-47" transform="translate(437.249908 0)"/>
     <use xlink:href="#HelveticaNeue-4e" transform="translate(513.149902 0)"/>
     <use xlink:href="#HelveticaNeue-4e" transform="translate(585.349884 0)"/>
     <use xlink:href="#HelveticaNeue-73" transform="translate(657.549866 0)"/>
     <use xlink:href="#HelveticaNeue-20" transform="translate(707.54985 0)"/>
     <use xlink:href="#HelveticaNeue-63" transform="translate(735.349838 0)"/>
     <use xlink:href="#HelveticaNeue-61" transform="translate(789.049835 0)"/>
     <use xlink:href="#HelveticaNeue-6e" transform="translate(842.749832 0)"/>
     <use xlink:href="#HelveticaNeue-27" transform="translate(898.349823 0)"/>
     <use xlink:href="#HelveticaNeue-74" transform="translate(926.149811 0)"/>
     <use xlink:href="#HelveticaNeue-20" transform="translate(957.649796 0)"/>
     <use xlink:href="#HelveticaNeue-73" transform="translate(985.449783 0)"/>
     <use xlink:href="#HelveticaNeue-65" transform="translate(1035.449768 0)"/>
     <use xlink:href="#HelveticaNeue-70" transform="translate(1089.149765 0)"/>
     <use xlink:href="#HelveticaNeue-61" transform="translate(1148.449753 0)"/>
     <use xlink:href="#HelveticaNeue-72" transform="translate(1202.14975 0)"/>
     <use xlink:href="#HelveticaNeue-61" transform="translate(1235.449738 0)"/>
     <use xlink:href="#HelveticaNeue-74" transform="translate(1289.149734 0)"/>
     <use xlink:href="#HelveticaNeue-65" transform="translate(1320.649719 0)"/>
     <use xlink:href="#HelveticaNeue-20" transform="translate(1374.349716 0)"/>
     <use xlink:href="#HelveticaNeue-74" transform="translate(1402.149704 0)"/>
     <use xlink:href="#HelveticaNeue-68" transform="translate(1433.649689 0)"/>
     <use xlink:href="#HelveticaNeue-65" transform="translate(1489.24968 0)"/>
     <use xlink:href="#HelveticaNeue-73" transform="translate(1542.949677 0)"/>
     <use xlink:href="#HelveticaNeue-65" transform="translate(1592.949661 0)"/>
     <use xlink:href="#HelveticaNeue-20" transform="translate(1646.649658 0)"/>
     <use xlink:href="#HelveticaNeue-65" transform="translate(1674.449646 0)"/>
     <use xlink:href="#HelveticaNeue-73" transform="translate(1728.149643 0)"/>
     <use xlink:href="#HelveticaNeue-74" transform="translate(1778.149628 0)"/>
     <use xlink:href="#HelveticaNeue-61" transform="translate(1809.649612 0)"/>
     <use xlink:href="#HelveticaNeue-74" transform="translate(1863.349609 0)"/>
     <use xlink:href="#HelveticaNeue-65" transform="translate(1894.849594 0)"/>
     <use xlink:href="#HelveticaNeue-73" transform="translate(1948.549591 0)"/>
     <use xlink:href="#HelveticaNeue-2e" transform="translate(1998.549576 0)"/>
     <use xlink:href="#HelveticaNeue-20" transform="translate(2026.349564 0)"/>
     <use xlink:href="#HelveticaNeue-41" transform="translate(2054.149551 0)"/>
     <use xlink:href="#HelveticaNeue-20" transform="translate(2118.949539 0)"/>
     <use xlink:href="#HelveticaNeue-47" transform="translate(2146.749527 0)"/>
     <use xlink:href="#HelveticaNeue-72" transform="translate(2222.649521 0)"/>
     <use xlink:href="#HelveticaNeue-6f" transform="translate(2254.199509 0)"/>
     <use xlink:href="#HelveticaNeue-74" transform="translate(2311.599503 0)"/>
     <use xlink:href="#HelveticaNeue-68" transform="translate(2343.099487 0)"/>
     <use xlink:href="#HelveticaNeue-65" transform="translate(2398.699478 0)"/>
     <use xlink:href="#HelveticaNeue-6e" transform="translate(2452.399475 0)"/>
     <use xlink:href="#HelveticaNeue-64" transform="translate(2507.999466 0)"/>
     <use xlink:href="#HelveticaNeue-69" transform="translate(2567.299454 0)"/>
     <use xlink:href="#HelveticaNeue-65" transform="translate(2589.499451 0)"/>
     <use xlink:href="#HelveticaNeue-63" transform="translate(2643.199448 0)"/>
     <use xlink:href="#HelveticaNeue-6b" transform="translate(2696.899445 0)"/>
     <use xlink:href="#HelveticaNeue-20" transform="translate(2748.799438 0)"/>
     <use xlink:href="#HelveticaNeue-63" transform="translate(2776.599426 0)"/>
     <use xlink:href="#HelveticaNeue-6f" transform="translate(2830.299423 0)"/>
     <use xlink:href="#HelveticaNeue-76" transform="translate(2887.699417 0)"/>
     <use xlink:href="#HelveticaNeue-65" transform="translate(2937.699402 0)"/>
     <use xlink:href="#HelveticaNeue-72" transform="translate(2991.399399 0)"/>
     <use xlink:href="#HelveticaNeue-20" transform="translate(3024.699387 0)"/>
     <use xlink:href="#HelveticaNeue-63" transform="translate(3052.499374 0)"/>
     <use xlink:href="#HelveticaNeue-61" transform="translate(3106.199371 0)"/>
     <use xlink:href="#HelveticaNeue-6e" transform="translate(3159.899368 0)"/>
     <use xlink:href="#HelveticaNeue-2e" transform="translate(3215.499359 0)"/>
    </g>
   </g>
   <g id="text_16">
    <!-- So can a one-line component count: the signal, not the architecture. -->
    <g style="fill: #7b8794" transform="translate(302.345703 367.501193) scale(0.11 -0.11)">
     <defs>
      <path id="HelveticaNeue-75" d="M 3149 0 
L 3149 3309 
L 2605 3309 
L 2605 1440 
Q 2605 1216 2544 1027 
Q 2483 838 2361 697 
Q 2240 557 2057 480 
Q 1875 403 1626 403 
Q 1312 403 1133 582 
Q 954 762 954 1069 
L 954 3309 
L 410 3309 
L 410 1133 
Q 410 864 464 643 
Q 518 422 652 262 
Q 787 102 1004 16 
Q 1222 -70 1549 -70 
Q 1914 -70 2182 74 
Q 2451 218 2624 525 
L 2637 525 
L 2637 0 
L 3149 0 
z
" transform="scale(0.015625)"/>
     </defs>
     <use xlink:href="#HelveticaNeue-53"/>
     <use xlink:href="#HelveticaNeue-6f" transform="translate(64.799988 0)"/>
     <use xlink:href="#HelveticaNeue-20" transform="translate(122.199982 0)"/>
     <use xlink:href="#HelveticaNeue-63" transform="translate(149.999969 0)"/>
     <use xlink:href="#HelveticaNeue-61" transform="translate(203.699966 0)"/>
     <use xlink:href="#HelveticaNeue-6e" transform="translate(257.399963 0)"/>
     <use xlink:href="#HelveticaNeue-20" transform="translate(312.999954 0)"/>
     <use xlink:href="#HelveticaNeue-61" transform="translate(340.799942 0)"/>
     <use xlink:href="#HelveticaNeue-20" transform="translate(394.499939 0)"/>
     <use xlink:href="#HelveticaNeue-6f" transform="translate(422.299927 0)"/>
     <use xlink:href="#HelveticaNeue-6e" transform="translate(479.699921 0)"/>
     <use xlink:href="#HelveticaNeue-65" transform="translate(535.299911 0)"/>
     <use xlink:href="#HelveticaNeue-2d" transform="translate(588.999908 0)"/>
     <use xlink:href="#HelveticaNeue-6c" transform="translate(627.899902 0)"/>
     <use xlink:href="#HelveticaNeue-69" transform="translate(650.099899 0)"/>
     <use xlink:href="#HelveticaNeue-6e" transform="translate(672.299896 0)"/>
     <use xlink:href="#HelveticaNeue-65" transform="translate(727.899887 0)"/>
     <use xlink:href="#HelveticaNeue-20" transform="translate(781.599884 0)"/>
     <use xlink:href="#HelveticaNeue-63" transform="translate(809.399872 0)"/>
     <use xlink:href="#HelveticaNeue-6f" transform="translate(863.099869 0)"/>
     <use xlink:href="#HelveticaNeue-6d" transform="translate(920.499863 0)"/>
     <use xlink:href="#HelveticaNeue-70" transform="translate(1005.79985 0)"/>
     <use xlink:href="#HelveticaNeue-6f" transform="translate(1065.099838 0)"/>
     <use xlink:href="#HelveticaNeue-6e" transform="translate(1122.499832 0)"/>
     <use xlink:href="#HelveticaNeue-65" transform="translate(1178.099823 0)"/>
     <use xlink:href="#HelveticaNeue-6e" transform="translate(1231.79982 0)"/>
     <use xlink:href="#HelveticaNeue-74" transform="translate(1287.399811 0)"/>
     <use xlink:href="#HelveticaNeue-20" transform="translate(1318.899796 0)"/>
     <use xlink:href="#HelveticaNeue-63" transform="translate(1346.699783 0)"/>
     <use xlink:href="#HelveticaNeue-6f" transform="translate(1400.39978 0)"/>
     <use xlink:href="#HelveticaNeue-75" transform="translate(1457.799774 0)"/>
     <use xlink:href="#HelveticaNeue-6e" transform="translate(1513.399765 0)"/>
     <use xlink:href="#HelveticaNeue-74" transform="translate(1568.999756 0)"/>
     <use xlink:href="#HelveticaNeue-3a" transform="translate(1600.499741 0)"/>
     <use xlink:href="#HelveticaNeue-20" transform="translate(1628.299728 0)"/>
     <use xlink:href="#HelveticaNeue-74" transform="translate(1656.099716 0)"/>
     <use xlink:href="#HelveticaNeue-68" transform="translate(1687.599701 0)"/>
     <use xlink:href="#HelveticaNeue-65" transform="translate(1743.199692 0)"/>
     <use xlink:href="#HelveticaNeue-20" transform="translate(1796.899689 0)"/>
     <use xlink:href="#HelveticaNeue-73" transform="translate(1824.699677 0)"/>
     <use xlink:href="#HelveticaNeue-69" transform="translate(1874.699661 0)"/>
     <use xlink:href="#HelveticaNeue-67" transform="translate(1896.899658 0)"/>
     <use xlink:href="#HelveticaNeue-6e" transform="translate(1954.299652 0)"/>
     <use xlink:href="#HelveticaNeue-61" transform="translate(2009.899643 0)"/>
     <use xlink:href="#HelveticaNeue-6c" transform="translate(2063.59964 0)"/>
     <use xlink:href="#HelveticaNeue-2c" transform="translate(2085.799637 0)"/>
     <use xlink:href="#HelveticaNeue-20" transform="translate(2113.599625 0)"/>
     <use xlink:href="#HelveticaNeue-6e" transform="translate(2141.399612 0)"/>
     <use xlink:href="#HelveticaNeue-6f" transform="translate(2196.999603 0)"/>
     <use xlink:href="#HelveticaNeue-74" transform="translate(2254.399597 0)"/>
     <use xlink:href="#HelveticaNeue-20" transform="translate(2285.899582 0)"/>
     <use xlink:href="#HelveticaNeue-74" transform="translate(2313.69957 0)"/>
     <use xlink:href="#HelveticaNeue-68" transform="translate(2345.199554 0)"/>
     <use xlink:href="#HelveticaNeue-65" transform="translate(2400.799545 0)"/>
     <use xlink:href="#HelveticaNeue-20" transform="translate(2454.499542 0)"/>
     <use xlink:href="#HelveticaNeue-61" transform="translate(2482.29953 0)"/>
     <use xlink:href="#HelveticaNeue-72" transform="translate(2535.999527 0)"/>
     <use xlink:href="#HelveticaNeue-63" transform="translate(2567.549515 0)"/>
     <use xlink:href="#HelveticaNeue-68" transform="translate(2621.249512 0)"/>
     <use xlink:href="#HelveticaNeue-69" transform="translate(2676.849503 0)"/>
     <use xlink:href="#HelveticaNeue-74" transform="translate(2699.0495 0)"/>
     <use xlink:href="#HelveticaNeue-65" transform="translate(2730.549484 0)"/>
     <use xlink:href="#HelveticaNeue-63" transform="translate(2784.249481 0)"/>
     <use xlink:href="#HelveticaNeue-74" transform="translate(2837.949478 0)"/>
     <use xlink:href="#HelveticaNeue-75" transform="translate(2869.449463 0)"/>
     <use xlink:href="#HelveticaNeue-72" transform="translate(2925.049454 0)"/>
     <use xlink:href="#HelveticaNeue-65" transform="translate(2956.599442 0)"/>
     <use xlink:href="#HelveticaNeue-2e" transform="translate(3010.299438 0)"/>
    </g>
   </g>
  </g>
 </g>
 <defs>
  <clipPath id="p4221b5652b">
   <rect x="21.6" y="21.6" width="895.68" height="318.593204"/>
  </clipPath>
 </defs>
</svg>
