<?xml version="1.0" encoding="utf-8" standalone="no"?>
<!DOCTYPE svg PUBLIC "-//W3C//DTD SVG 1.1//EN"
  "http://www.w3.org/Graphics/SVG/1.1/DTD/svg11.dtd">
<svg xmlns:xlink="http://www.w3.org/1999/xlink" width="938.88pt" height="391.661236pt" viewBox="0 0 938.88 391.661236" xmlns="http://www.w3.org/2000/svg" version="1.1">
 <metadata>
  <rdf:RDF xmlns:dc="http://purl.org/dc/elements/1.1/" xmlns:cc="http://creativecommons.org/ns#" xmlns:rdf="http://www.w3.org/1999/02/22-rdf-syntax-ns#">
   <cc:Work>
    <dc:type rdf:resource="http://purl.org/dc/dcmitype/StillImage"/>
    <dc:date>2026-06-09T14:13:34.570767</dc:date>
    <dc:format>image/svg+xml</dc:format>
    <dc:creator>
     <cc:Agent>
      <dc:title>Matplotlib v3.10.9, https://matplotlib.org/</dc:title>
     </cc:Agent>
    </dc:creator>
   </cc:Work>
  </rdf:RDF>
 </metadata>
 <defs>
  <style type="text/css">*{stroke-linejoin: round; stroke-linecap: butt}</style>
 </defs>
 <g id="figure_1">
  <g id="patch_1">
   <path d="M 0 391.661236 
L 938.88 391.661236 
L 938.88 -0 
L 0 -0 
z
" style="fill: #ffffff"/>
  </g>
  <g id="axes_1">
   <g id="patch_2">
    <path d="M 197.97514 69.498315 
Q 205.631695 71.270763 212.090098 72.765846 
" clip-path="url(#p7b65e2b040)" style="fill: none; stroke: #b3bac2; stroke-width: 1.1; stroke-linecap: round"/>
    <path d="M 209.33339 70.485372 
L 212.090098 72.765846 
L 208.611694 73.602928 
z
" clip-path="url(#p7b65e2b040)" style="fill: #b3bac2; stroke: #b3bac2; stroke-width: 1.1; stroke-linecap: round"/>
   </g>
   <g id="patch_3">
    <path d="M 227.992721 80.409043 
Q 233.512162 85.177554 238.100977 89.142052 
" clip-path="url(#p7b65e2b040)" style="fill: none; stroke: #b3bac2; stroke-width: 1.1; stroke-linecap: round"/>
    <path d="M 236.725524 85.839306 
L 238.100977 89.142052 
L 234.633508 88.260766 
z
" clip-path="url(#p7b65e2b040)" style="fill: #b3bac2; stroke: #b3bac2; stroke-width: 1.1; stroke-linecap: round"/>
   </g>
   <g id="patch_4">
    <path d="M 247.622684 102.869267 
Q 249.604112 109.257985 251.221233 114.472063 
" clip-path="url(#p7b65e2b040)" style="fill: none; stroke: #b3bac2; stroke-width: 1.1; stroke-linecap: round"/>
    <path d="M 251.801501 110.941725 
L 251.221233 114.472063 
L 248.745123 111.889645 
z
" clip-path="url(#p7b65e2b040)" style="fill: #b3bac2; stroke: #b3bac2; stroke-width: 1.1; stroke-linecap: round"/>
   </g>
   <g id="patch_5">
    <path d="M 251.586434 130.678464 
Q 249.605005 137.067182 247.987885 142.28126 
" clip-path="url(#p7b65e2b040)" style="fill: none; stroke: #b3bac2; stroke-width: 1.1; stroke-linecap: round"/>
    <path d="M 250.463994 139.698842 
L 247.987885 142.28126 
L 247.407616 138.750922 
z
" clip-path="url(#p7b65e2b040)" style="fill: #b3bac2; stroke: #b3bac2; stroke-width: 1.1; stroke-linecap: round"/>
   </g>
   <g id="patch_6">
    <path d="M 239.027896 156.385181 
Q 233.508456 161.153692 228.919641 165.11819 
" clip-path="url(#p7b65e2b040)" style="fill: none; stroke: #b3bac2; stroke-width: 1.1; stroke-linecap: round"/>
    <path d="M 232.387109 164.236904 
L 228.919641 165.11819 
L 230.295093 161.815444 
z
" clip-path="url(#p7b65e2b040)" style="fill: #b3bac2; stroke: #b3bac2; stroke-width: 1.1; stroke-linecap: round"/>
   </g>
   <g id="patch_7">
    <path d="M 213.29336 173.28365 
Q 205.636805 175.056098 199.178402 176.551181 
" clip-path="url(#p7b65e2b040)" style="fill: none; stroke: #b3bac2; stroke-width: 1.1; stroke-linecap: round"/>
    <path d="M 202.656806 177.388263 
L 199.178402 176.551181 
L 201.93511 174.270707 
z
" clip-path="url(#p7b65e2b040)" style="fill: #b3bac2; stroke: #b3bac2; stroke-width: 1.1; stroke-linecap: round"/>
   </g>
   <g id="patch_8">
    <path d="M 181.10486 176.829729 
Q 173.448305 175.057281 166.989902 173.562198 
" clip-path="url(#p7b65e2b040)" style="fill: none; stroke: #b3bac2; stroke-width: 1.1; stroke-linecap: round"/>
    <path d="M 169.74661 175.842672 
L 166.989902 173.562198 
L 170.468306 172.725116 
z
" clip-path="url(#p7b65e2b040)" style="fill: #b3bac2; stroke: #b3bac2; stroke-width: 1.1; stroke-linecap: round"/>
   </g>
   <g id="patch_9">
    <path d="M 151.087279 165.919001 
Q 145.567838 161.15049 140.979023 157.185992 
" clip-path="url(#p7b65e2b040)" style="fill: none; stroke: #b3bac2; stroke-width: 1.1; stroke-linecap: round"/>
    <path d="M 142.354476 160.488738 
L 140.979023 157.185992 
L 144.446492 158.067278 
z
" clip-path="url(#p7b65e2b040)" style="fill: #b3bac2; stroke: #b3bac2; stroke-width: 1.1; stroke-linecap: round"/>
   </g>
   <g id="patch_10">
    <path d="M 131.457316 143.458778 
Q 129.475888 137.070059 127.858767 131.855981 
" clip-path="url(#p7b65e2b040)" style="fill: none; stroke: #b3bac2; stroke-width: 1.1; stroke-linecap: round"/>
    <path d="M 127.278499 135.38632 
L 127.858767 131.855981 
L 130.334877 134.438399 
z
" clip-path="url(#p7b65e2b040)" style="fill: #b3bac2; stroke: #b3bac2; stroke-width: 1.1; stroke-linecap: round"/>
   </g>
   <g id="patch_11">
    <path d="M 127.493566 115.649581 
Q 129.474995 109.260863 131.092115 104.046785 
" clip-path="url(#p7b65e2b040)" style="fill: none; stroke: #b3bac2; stroke-width: 1.1; stroke-linecap: round"/>
    <path d="M 128.616006 106.629203 
L 131.092115 104.046785 
L 131.672384 107.577123 
z
" clip-path="url(#p7b65e2b040)" style="fill: #b3bac2; stroke: #b3bac2; stroke-width: 1.1; stroke-linecap: round"/>
   </g>
   <g id="patch_12">
    <path d="M 140.052104 89.942863 
Q 145.571544 85.174352 150.160359 81.209854 
" clip-path="url(#p7b65e2b040)" style="fill: none; stroke: #b3bac2; stroke-width: 1.1; stroke-linecap: round"/>
    <path d="M 146.692891 82.09114 
L 150.160359 81.209854 
L 148.784907 84.5126 
z
" clip-path="url(#p7b65e2b040)" style="fill: #b3bac2; stroke: #b3bac2; stroke-width: 1.1; stroke-linecap: round"/>
   </g>
   <g id="patch_13">
    <path d="M 165.78664 73.044395 
Q 173.443195 71.271947 179.901598 69.776864 
" clip-path="url(#p7b65e2b040)" style="fill: none; stroke: #b3bac2; stroke-width: 1.1; stroke-linecap: round"/>
    <path d="M 176.423194 68.939782 
L 179.901598 69.776864 
L 177.14489 72.057338 
z
" clip-path="url(#p7b65e2b040)" style="fill: #b3bac2; stroke: #b3bac2; stroke-width: 1.1; stroke-linecap: round"/>
   </g>
   <g id="patch_14">
    <path d="M 141.170405 244.000543 
Q 152.469089 249.636334 162.667245 254.723182 
" clip-path="url(#p7b65e2b040)" style="fill: none; stroke: #b3bac2; stroke-width: 1.1; stroke-linecap: round"/>
    <path d="M 160.517874 251.863077 
L 162.667245 254.723182 
L 159.089538 254.726616 
z
" clip-path="url(#p7b65e2b040)" style="fill: #b3bac2; stroke: #b3bac2; stroke-width: 1.1; stroke-linecap: round"/>
   </g>
   <g id="patch_15">
    <path d="M 171.37448 266.868919 
Q 171.37448 277.928198 171.37448 287.757639 
" clip-path="url(#p7b65e2b040)" style="fill: none; stroke: #b3bac2; stroke-width: 1.1; stroke-linecap: round"/>
    <path d="M 172.97448 284.557639 
L 171.37448 287.757639 
L 169.77448 284.557639 
z
" clip-path="url(#p7b65e2b040)" style="fill: #b3bac2; stroke: #b3bac2; stroke-width: 1.1; stroke-linecap: round"/>
   </g>
   <g id="patch_16">
    <path d="M 163.764074 300.586212 
Q 152.465391 306.222004 142.267234 311.308852 
" clip-path="url(#p7b65e2b040)" style="fill: none; stroke: #b3bac2; stroke-width: 1.1; stroke-linecap: round"/>
    <path d="M 145.844941 311.312286 
L 142.267234 311.308852 
L 144.416606 308.448746 
z
" clip-path="url(#p7b65e2b040)" style="fill: #b3bac2; stroke: #b3bac2; stroke-width: 1.1; stroke-linecap: round"/>
   </g>
   <g id="patch_17">
    <path d="M 125.949595 311.855951 
Q 114.650911 306.220159 104.452755 301.133311 
" clip-path="url(#p7b65e2b040)" style="fill: none; stroke: #b3bac2; stroke-width: 1.1; stroke-linecap: round"/>
    <path d="M 106.602126 303.993417 
L 104.452755 301.133311 
L 108.030462 301.129877 
z
" clip-path="url(#p7b65e2b040)" style="fill: #b3bac2; stroke: #b3bac2; stroke-width: 1.1; stroke-linecap: round"/>
   </g>
   <g id="patch_18">
    <path d="M 95.74552 288.987574 
Q 95.74552 277.928296 95.74552 268.098854 
" clip-path="url(#p7b65e2b040)" style="fill: none; stroke: #b3bac2; stroke-width: 1.1; stroke-linecap: round"/>
    <path d="M 94.14552 271.298854 
L 95.74552 268.098854 
L 97.34552 271.298854 
z
" clip-path="url(#p7b65e2b040)" style="fill: #b3bac2; stroke: #b3bac2; stroke-width: 1.1; stroke-linecap: round"/>
   </g>
   <g id="patch_19">
    <path d="M 103.355926 255.270281 
Q 114.654609 249.63449 124.852766 244.547642 
" clip-path="url(#p7b65e2b040)" style="fill: none; stroke: #b3bac2; stroke-width: 1.1; stroke-linecap: round"/>
    <path d="M 121.275059 244.544208 
L 124.852766 244.547642 
L 122.703394 247.407747 
z
" clip-path="url(#p7b65e2b040)" style="fill: #b3bac2; stroke: #b3bac2; stroke-width: 1.1; stroke-linecap: round"/>
   </g>
   <g id="patch_20">
    <path d="M 253.130405 244.000543 
Q 264.429089 249.636334 274.627245 254.723182 
" clip-path="url(#p7b65e2b040)" style="fill: none; stroke: #b3bac2; stroke-width: 1.1; stroke-linecap: round"/>
    <path d="M 272.477874 251.863077 
L 274.627245 254.723182 
L 271.049538 254.726616 
z
" clip-path="url(#p7b65e2b040)" style="fill: #b3bac2; stroke: #b3bac2; stroke-width: 1.1; stroke-linecap: round"/>
   </g>
   <g id="patch_21">
    <path d="M 283.33448 266.868919 
Q 283.33448 277.928198 283.33448 287.757639 
" clip-path="url(#p7b65e2b040)" style="fill: none; stroke: #b3bac2; stroke-width: 1.1; stroke-linecap: round"/>
    <path d="M 284.93448 284.557639 
L 283.33448 287.757639 
L 281.73448 284.557639 
z
" clip-path="url(#p7b65e2b040)" style="fill: #b3bac2; stroke: #b3bac2; stroke-width: 1.1; stroke-linecap: round"/>
   </g>
   <g id="patch_22">
    <path d="M 275.724074 300.586212 
Q 264.425391 306.222004 254.227234 311.308852 
" clip-path="url(#p7b65e2b040)" style="fill: none; stroke: #b3bac2; stroke-width: 1.1; stroke-linecap: round"/>
    <path d="M 257.804941 311.312286 
L 254.227234 311.308852 
L 256.376606 308.448746 
z
" clip-path="url(#p7b65e2b040)" style="fill: #b3bac2; stroke: #b3bac2; stroke-width: 1.1; stroke-linecap: round"/>
   </g>
   <g id="patch_23">
    <path d="M 237.909595 311.855951 
Q 226.610911 306.220159 216.412755 301.133311 
" clip-path="url(#p7b65e2b040)" style="fill: none; stroke: #b3bac2; stroke-width: 1.1; stroke-linecap: round"/>
    <path d="M 218.562126 303.993417 
L 216.412755 301.133311 
L 219.990462 301.129877 
z
" clip-path="url(#p7b65e2b040)" style="fill: #b3bac2; stroke: #b3bac2; stroke-width: 1.1; stroke-linecap: round"/>
   </g>
   <g id="patch_24">
    <path d="M 207.70552 288.987574 
Q 207.70552 277.928296 207.70552 268.098854 
" clip-path="url(#p7b65e2b040)" style="fill: none; stroke: #b3bac2; stroke-width: 1.1; stroke-linecap: round"/>
    <path d="M 206.10552 271.298854 
L 207.70552 268.098854 
L 209.30552 271.298854 
z
" clip-path="url(#p7b65e2b040)" style="fill: #b3bac2; stroke: #b3bac2; stroke-width: 1.1; stroke-linecap: round"/>
   </g>
   <g id="patch_25">
    <path d="M 215.315926 255.270281 
Q 226.614609 249.63449 236.812766 244.547642 
" clip-path="url(#p7b65e2b040)" style="fill: none; stroke: #b3bac2; stroke-width: 1.1; stroke-linecap: round"/>
    <path d="M 233.235059 244.544208 
L 236.812766 244.547642 
L 234.663394 247.407747 
z
" clip-path="url(#p7b65e2b040)" style="fill: #b3bac2; stroke: #b3bac2; stroke-width: 1.1; stroke-linecap: round"/>
   </g>
   <g id="patch_26">
    <path d="M 320.290748 123.164022 
Q 351.87985 123.164022 381.232884 123.164022 
" clip-path="url(#p7b65e2b040)" style="fill: none; stroke: #7b8794; stroke-width: 2; stroke-linecap: round"/>
    <path d="M 375.632884 120.364022 
L 381.232884 123.164022 
L 375.632884 125.964022 
z
" clip-path="url(#p7b65e2b040)" style="fill: #7b8794; stroke: #7b8794; stroke-width: 2; stroke-linecap: round"/>
   </g>
   <g id="patch_27">
    <path d="M 320.290748 277.928247 
Q 351.87985 277.928247 381.232884 277.928247 
" clip-path="url(#p7b65e2b040)" style="fill: none; stroke: #7b8794; stroke-width: 2; stroke-linecap: round"/>
    <path d="M 375.632884 275.128247 
L 381.232884 277.928247 
L 375.632884 280.728247 
z
" clip-path="url(#p7b65e2b040)" style="fill: #7b8794; stroke: #7b8794; stroke-width: 2; stroke-linecap: round"/>
   </g>
   <g id="patch_28">
    <path d="M 189.54 73.349288 
C 191.321528 73.349288 193.03033 72.737777 194.290061 71.649435 
C 195.549791 70.561093 196.2576 69.084777 196.2576 67.545629 
C 196.2576 66.006481 195.549791 64.530165 194.290061 63.441823 
C 193.03033 62.353481 191.321528 61.741971 189.54 61.741971 
C 187.758472 61.741971 186.04967 62.353481 184.789939 63.441823 
C 183.530209 64.530165 182.8224 66.006481 182.8224 67.545629 
C 182.8224 69.084777 183.530209 70.561093 184.789939 71.649435 
C 186.04967 72.737777 187.758472 73.349288 189.54 73.349288 
z
" clip-path="url(#p7b65e2b040)" style="fill: #eef2f6; stroke: #33414f; stroke-width: 1.3; stroke-linejoin: miter"/>
   </g>
   <g id="patch_29">
    <path d="M 221.7285 80.800739 
C 223.510028 80.800739 225.21883 80.189229 226.478561 79.100887 
C 227.738291 78.012545 228.4461 76.536229 228.4461 74.997081 
C 228.4461 73.457933 227.738291 71.981617 226.478561 70.893275 
C 225.21883 69.804933 223.510028 69.193422 221.7285 69.193422 
C 219.946972 69.193422 218.23817 69.804933 216.978439 70.893275 
C 215.718709 71.981617 215.0109 73.457933 215.0109 74.997081 
C 215.0109 76.536229 215.718709 78.012545 216.978439 79.100887 
C 218.23817 80.189229 219.946972 80.800739 221.7285 80.800739 
z
" clip-path="url(#p7b65e2b040)" style="fill: #eef2f6; stroke: #33414f; stroke-width: 1.3; stroke-linejoin: miter"/>
   </g>
   <g id="patch_30">
    <path d="M 245.292117 101.158484 
C 247.073646 101.158484 248.782447 100.546974 250.042178 99.458632 
C 251.301909 98.37029 252.009717 96.893974 252.009717 95.354826 
C 252.009717 93.815678 251.301909 92.339362 250.042178 91.251019 
C 248.782447 90.162677 247.073646 89.551167 245.292117 89.551167 
C 243.510589 89.551167 241.801788 90.162677 240.542057 91.251019 
C 239.282326 92.339362 238.574517 93.815678 238.574517 95.354826 
C 238.574517 96.893974 239.282326 98.37029 240.542057 99.458632 
C 241.801788 100.546974 243.510589 101.158484 245.292117 101.158484 
z
" clip-path="url(#p7b65e2b040)" style="fill: #eef2f6; stroke: #33414f; stroke-width: 1.3; stroke-linejoin: miter"/>
   </g>
   <g id="patch_31">
    <path d="M 253.917 128.967681 
C 255.698528 128.967681 257.40733 128.356171 258.667061 127.267829 
C 259.926791 126.179486 260.6346 124.70317 260.6346 123.164022 
C 260.6346 121.624874 259.926791 120.148558 258.667061 119.060216 
C 257.40733 117.971874 255.698528 117.360364 253.917 117.360364 
C 252.135472 117.360364 250.42667 117.971874 249.166939 119.060216 
C 247.907209 120.148558 247.1994 121.624874 247.1994 123.164022 
C 247.1994 124.70317 247.907209 126.179486 249.166939 127.267829 
C 250.42667 128.356171 252.135472 128.967681 253.917 128.967681 
z
" clip-path="url(#p7b65e2b040)" style="fill: #eef2f6; stroke: #33414f; stroke-width: 1.3; stroke-linejoin: miter"/>
   </g>
   <g id="patch_32">
    <path d="M 245.292117 156.776877 
C 247.073646 156.776877 248.782447 156.165367 250.042178 155.077025 
C 251.301909 153.988683 252.009717 152.512367 252.009717 150.973219 
C 252.009717 149.434071 251.301909 147.957755 250.042178 146.869413 
C 248.782447 145.781071 247.073646 145.16956 245.292117 145.16956 
C 243.510589 145.16956 241.801788 145.781071 240.542057 146.869413 
C 239.282326 147.957755 238.574517 149.434071 238.574517 150.973219 
C 238.574517 152.512367 239.282326 153.988683 240.542057 155.077025 
C 241.801788 156.165367 243.510589 156.776877 245.292117 156.776877 
z
" clip-path="url(#p7b65e2b040)" style="fill: #eef2f6; stroke: #33414f; stroke-width: 1.3; stroke-linejoin: miter"/>
   </g>
   <g id="patch_33">
    <path d="M 221.7285 177.134622 
C 223.510028 177.134622 225.21883 176.523112 226.478561 175.43477 
C 227.738291 174.346428 228.4461 172.870112 228.4461 171.330964 
C 228.4461 169.791815 227.738291 168.3155 226.478561 167.227157 
C 225.21883 166.138815 223.510028 165.527305 221.7285 165.527305 
C 219.946972 165.527305 218.23817 166.138815 216.978439 167.227157 
C 215.718709 168.3155 215.0109 169.791815 215.0109 171.330964 
C 215.0109 172.870112 215.718709 174.346428 216.978439 175.43477 
C 218.23817 176.523112 219.946972 177.134622 221.7285 177.134622 
z
" clip-path="url(#p7b65e2b040)" style="fill: #eef2f6; stroke: #33414f; stroke-width: 1.3; stroke-linejoin: miter"/>
   </g>
   <g id="patch_34">
    <path d="M 189.54 184.586074 
C 191.321528 184.586074 193.03033 183.974564 194.290061 182.886222 
C 195.549791 181.79788 196.2576 180.321564 196.2576 178.782415 
C 196.2576 177.243267 195.549791 175.766951 194.290061 174.678609 
C 193.03033 173.590267 191.321528 172.978757 189.54 172.978757 
C 187.758472 172.978757 186.04967 173.590267 184.789939 174.678609 
C 183.530209 175.766951 182.8224 177.243267 182.8224 178.782415 
C 182.8224 180.321564 183.530209 181.79788 184.789939 182.886222 
C 186.04967 183.974564 187.758472 184.586074 189.54 184.586074 
z
" clip-path="url(#p7b65e2b040)" style="fill: #eef2f6; stroke: #33414f; stroke-width: 1.3; stroke-linejoin: miter"/>
   </g>
   <g id="patch_35">
    <path d="M 157.3515 177.134622 
C 159.133028 177.134622 160.84183 176.523112 162.101561 175.43477 
C 163.361291 174.346428 164.0691 172.870112 164.0691 171.330964 
C 164.0691 169.791815 163.361291 168.3155 162.101561 167.227157 
C 160.84183 166.138815 159.133028 165.527305 157.3515 165.527305 
C 155.569972 165.527305 153.86117 166.138815 152.601439 167.227157 
C 151.341709 168.3155 150.6339 169.791815 150.6339 171.330964 
C 150.6339 172.870112 151.341709 174.346428 152.601439 175.43477 
C 153.86117 176.523112 155.569972 177.134622 157.3515 177.134622 
z
" clip-path="url(#p7b65e2b040)" style="fill: #eef2f6; stroke: #33414f; stroke-width: 1.3; stroke-linejoin: miter"/>
   </g>
   <g id="patch_36">
    <path d="M 133.787883 156.776877 
C 135.569411 156.776877 137.278212 156.165367 138.537943 155.077025 
C 139.797674 153.988683 140.505483 152.512367 140.505483 150.973219 
C 140.505483 149.434071 139.797674 147.957755 138.537943 146.869413 
C 137.278212 145.781071 135.569411 145.16956 133.787883 145.16956 
C 132.006354 145.16956 130.297553 145.781071 129.037822 146.869413 
C 127.778091 147.957755 127.070283 149.434071 127.070283 150.973219 
C 127.070283 152.512367 127.778091 153.988683 129.037822 155.077025 
C 130.297553 156.165367 132.006354 156.776877 133.787883 156.776877 
z
" clip-path="url(#p7b65e2b040)" style="fill: #eef2f6; stroke: #33414f; stroke-width: 1.3; stroke-linejoin: miter"/>
   </g>
   <g id="patch_37">
    <path d="M 125.163 128.967681 
C 126.944528 128.967681 128.65333 128.356171 129.913061 127.267829 
C 131.172791 126.179486 131.8806 124.70317 131.8806 123.164022 
C 131.8806 121.624874 131.172791 120.148558 129.913061 119.060216 
C 128.65333 117.971874 126.944528 117.360364 125.163 117.360364 
C 123.381472 117.360364 121.67267 117.971874 120.412939 119.060216 
C 119.153209 120.148558 118.4454 121.624874 118.4454 123.164022 
C 118.4454 124.70317 119.153209 126.179486 120.412939 127.267829 
C 121.67267 128.356171 123.381472 128.967681 125.163 128.967681 
z
" clip-path="url(#p7b65e2b040)" style="fill: #eef2f6; stroke: #33414f; stroke-width: 1.3; stroke-linejoin: miter"/>
   </g>
   <g id="patch_38">
    <path d="M 133.787883 101.158484 
C 135.569411 101.158484 137.278212 100.546974 138.537943 99.458632 
C 139.797674 98.37029 140.505483 96.893974 140.505483 95.354826 
C 140.505483 93.815678 139.797674 92.339362 138.537943 91.251019 
C 137.278212 90.162677 135.569411 89.551167 133.787883 89.551167 
C 132.006354 89.551167 130.297553 90.162677 129.037822 91.251019 
C 127.778091 92.339362 127.070283 93.815678 127.070283 95.354826 
C 127.070283 96.893974 127.778091 98.37029 129.037822 99.458632 
C 130.297553 100.546974 132.006354 101.158484 133.787883 101.158484 
z
" clip-path="url(#p7b65e2b040)" style="fill: #eef2f6; stroke: #33414f; stroke-width: 1.3; stroke-linejoin: miter"/>
   </g>
   <g id="patch_39">
    <path d="M 157.3515 80.800739 
C 159.133028 80.800739 160.84183 80.189229 162.101561 79.100887 
C 163.361291 78.012545 164.0691 76.536229 164.0691 74.997081 
C 164.0691 73.457933 163.361291 71.981617 162.101561 70.893275 
C 160.84183 69.804933 159.133028 69.193422 157.3515 69.193422 
C 155.569972 69.193422 153.86117 69.804933 152.601439 70.893275 
C 151.341709 71.981617 150.6339 73.457933 150.6339 74.997081 
C 150.6339 76.536229 151.341709 78.012545 152.601439 79.100887 
C 153.86117 80.189229 155.569972 80.800739 157.3515 80.800739 
z
" clip-path="url(#p7b65e2b040)" style="fill: #eef2f6; stroke: #33414f; stroke-width: 1.3; stroke-linejoin: miter"/>
   </g>
   <g id="patch_40">
    <path d="M 133.56 246.008125 
C 135.341528 246.008125 137.05033 245.396615 138.310061 244.308273 
C 139.569791 243.219931 140.2776 241.743615 140.2776 240.204467 
C 140.2776 238.665319 139.569791 237.189003 138.310061 236.100661 
C 137.05033 235.012319 135.341528 234.400809 133.56 234.400809 
C 131.778472 234.400809 130.06967 235.012319 128.809939 236.100661 
C 127.550209 237.189003 126.8424 238.665319 126.8424 240.204467 
C 126.8424 241.743615 127.550209 243.219931 128.809939 244.308273 
C 130.06967 245.396615 131.778472 246.008125 133.56 246.008125 
z
" clip-path="url(#p7b65e2b040)" style="fill: #eef2f6; stroke: #33414f; stroke-width: 1.3; stroke-linejoin: miter"/>
   </g>
   <g id="patch_41">
    <path d="M 171.37448 264.870015 
C 173.156008 264.870015 174.864809 264.258505 176.12454 263.170163 
C 177.384271 262.081821 178.09208 260.605505 178.09208 259.066357 
C 178.09208 257.527209 177.384271 256.050893 176.12454 254.962551 
C 174.864809 253.874209 173.156008 253.262698 171.37448 253.262698 
C 169.592951 253.262698 167.88415 253.874209 166.624419 254.962551 
C 165.364688 256.050893 164.65688 257.527209 164.65688 259.066357 
C 164.65688 260.605505 165.364688 262.081821 166.624419 263.170163 
C 167.88415 264.258505 169.592951 264.870015 171.37448 264.870015 
z
" clip-path="url(#p7b65e2b040)" style="fill: #eef2f6; stroke: #33414f; stroke-width: 1.3; stroke-linejoin: miter"/>
   </g>
   <g id="patch_42">
    <path d="M 171.37448 302.593795 
C 173.156008 302.593795 174.864809 301.982285 176.12454 300.893943 
C 177.384271 299.805601 178.09208 298.329285 178.09208 296.790137 
C 178.09208 295.250988 177.384271 293.774673 176.12454 292.68633 
C 174.864809 291.597988 173.156008 290.986478 171.37448 290.986478 
C 169.592951 290.986478 167.88415 291.597988 166.624419 292.68633 
C 165.364688 293.774673 164.65688 295.250988 164.65688 296.790137 
C 164.65688 298.329285 165.364688 299.805601 166.624419 300.893943 
C 167.88415 301.982285 169.592951 302.593795 171.37448 302.593795 
z
" clip-path="url(#p7b65e2b040)" style="fill: #eef2f6; stroke: #33414f; stroke-width: 1.3; stroke-linejoin: miter"/>
   </g>
   <g id="patch_43">
    <path d="M 133.56 321.455685 
C 135.341528 321.455685 137.05033 320.844175 138.310061 319.755833 
C 139.569791 318.667491 140.2776 317.191175 140.2776 315.652026 
C 140.2776 314.112878 139.569791 312.636562 138.310061 311.54822 
C 137.05033 310.459878 135.341528 309.848368 133.56 309.848368 
C 131.778472 309.848368 130.06967 310.459878 128.809939 311.54822 
C 127.550209 312.636562 126.8424 314.112878 126.8424 315.652026 
C 126.8424 317.191175 127.550209 318.667491 128.809939 319.755833 
C 130.06967 320.844175 131.778472 321.455685 133.56 321.455685 
z
" clip-path="url(#p7b65e2b040)" style="fill: #eef2f6; stroke: #33414f; stroke-width: 1.3; stroke-linejoin: miter"/>
   </g>
   <g id="patch_44">
    <path d="M 95.74552 302.593795 
C 97.527049 302.593795 99.23585 301.982285 100.495581 300.893943 
C 101.755312 299.805601 102.46312 298.329285 102.46312 296.790137 
C 102.46312 295.250988 101.755312 293.774673 100.495581 292.68633 
C 99.23585 291.597988 97.527049 290.986478 95.74552 290.986478 
C 93.963992 290.986478 92.255191 291.597988 90.99546 292.68633 
C 89.735729 293.774673 89.02792 295.250988 89.02792 296.790137 
C 89.02792 298.329285 89.735729 299.805601 90.99546 300.893943 
C 92.255191 301.982285 93.963992 302.593795 95.74552 302.593795 
z
" clip-path="url(#p7b65e2b040)" style="fill: #eef2f6; stroke: #33414f; stroke-width: 1.3; stroke-linejoin: miter"/>
   </g>
   <g id="patch_45">
    <path d="M 95.74552 264.870015 
C 97.527049 264.870015 99.23585 264.258505 100.495581 263.170163 
C 101.755312 262.081821 102.46312 260.605505 102.46312 259.066357 
C 102.46312 257.527209 101.755312 256.050893 100.495581 254.962551 
C 99.23585 253.874209 97.527049 253.262698 95.74552 253.262698 
C 93.963992 253.262698 92.255191 253.874209 90.99546 254.962551 
C 89.735729 256.050893 89.02792 257.527209 89.02792 259.066357 
C 89.02792 260.605505 89.735729 262.081821 90.99546 263.170163 
C 92.255191 264.258505 93.963992 264.870015 95.74552 264.870015 
z
" clip-path="url(#p7b65e2b040)" style="fill: #eef2f6; stroke: #33414f; stroke-width: 1.3; stroke-linejoin: miter"/>
   </g>
   <g id="patch_46">
    <path d="M 245.52 246.008125 
C 247.301528 246.008125 249.01033 245.396615 250.270061 244.308273 
C 251.529791 243.219931 252.2376 241.743615 252.2376 240.204467 
C 252.2376 238.665319 251.529791 237.189003 250.270061 236.100661 
C 249.01033 235.012319 247.301528 234.400809 245.52 234.400809 
C 243.738472 234.400809 242.02967 235.012319 240.769939 236.100661 
C 239.510209 237.189003 238.8024 238.665319 238.8024 240.204467 
C 238.8024 241.743615 239.510209 243.219931 240.769939 244.308273 
C 242.02967 245.396615 243.738472 246.008125 245.52 246.008125 
z
" clip-path="url(#p7b65e2b040)" style="fill: #eef2f6; stroke: #33414f; stroke-width: 1.3; stroke-linejoin: miter"/>
   </g>
   <g id="patch_47">
    <path d="M 283.33448 264.870015 
C 285.116008 264.870015 286.824809 264.258505 288.08454 263.170163 
C 289.344271 262.081821 290.05208 260.605505 290.05208 259.066357 
C 290.05208 257.527209 289.344271 256.050893 288.08454 254.962551 
C 286.824809 253.874209 285.116008 253.262698 283.33448 253.262698 
C 281.552951 253.262698 279.84415 253.874209 278.584419 254.962551 
C 277.324688 256.050893 276.61688 257.527209 276.61688 259.066357 
C 276.61688 260.605505 277.324688 262.081821 278.584419 263.170163 
C 279.84415 264.258505 281.552951 264.870015 283.33448 264.870015 
z
" clip-path="url(#p7b65e2b040)" style="fill: #eef2f6; stroke: #33414f; stroke-width: 1.3; stroke-linejoin: miter"/>
   </g>
   <g id="patch_48">
    <path d="M 283.33448 302.593795 
C 285.116008 302.593795 286.824809 301.982285 288.08454 300.893943 
C 289.344271 299.805601 290.05208 298.329285 290.05208 296.790137 
C 290.05208 295.250988 289.344271 293.774673 288.08454 292.68633 
C 286.824809 291.597988 285.116008 290.986478 283.33448 290.986478 
C 281.552951 290.986478 279.84415 291.597988 278.584419 292.68633 
C 277.324688 293.774673 276.61688 295.250988 276.61688 296.790137 
C 276.61688 298.329285 277.324688 299.805601 278.584419 300.893943 
C 279.84415 301.982285 281.552951 302.593795 283.33448 302.593795 
z
" clip-path="url(#p7b65e2b040)" style="fill: #eef2f6; stroke: #33414f; stroke-width: 1.3; stroke-linejoin: miter"/>
   </g>
   <g id="patch_49">
    <path d="M 245.52 321.455685 
C 247.301528 321.455685 249.01033 320.844175 250.270061 319.755833 
C 251.529791 318.667491 252.2376 317.191175 252.2376 315.652026 
C 252.2376 314.112878 251.529791 312.636562 250.270061 311.54822 
C 249.01033 310.459878 247.301528 309.848368 245.52 309.848368 
C 243.738472 309.848368 242.02967 310.459878 240.769939 311.54822 
C 239.510209 312.636562 238.8024 314.112878 238.8024 315.652026 
C 238.8024 317.191175 239.510209 318.667491 240.769939 319.755833 
C 242.02967 320.844175 243.738472 321.455685 245.52 321.455685 
z
" clip-path="url(#p7b65e2b040)" style="fill: #eef2f6; stroke: #33414f; stroke-width: 1.3; stroke-linejoin: miter"/>
   </g>
   <g id="patch_50">
    <path d="M 207.70552 302.593795 
C 209.487049 302.593795 211.19585 301.982285 212.455581 300.893943 
C 213.715312 299.805601 214.42312 298.329285 214.42312 296.790137 
C 214.42312 295.250988 213.715312 293.774673 212.455581 292.68633 
C 211.19585 291.597988 209.487049 290.986478 207.70552 290.986478 
C 205.923992 290.986478 204.215191 291.597988 202.95546 292.68633 
C 201.695729 293.774673 200.98792 295.250988 200.98792 296.790137 
C 200.98792 298.329285 201.695729 299.805601 202.95546 300.893943 
C 204.215191 301.982285 205.923992 302.593795 207.70552 302.593795 
z
" clip-path="url(#p7b65e2b040)" style="fill: #eef2f6; stroke: #33414f; stroke-width: 1.3; stroke-linejoin: miter"/>
   </g>
   <g id="patch_51">
    <path d="M 207.70552 264.870015 
C 209.487049 264.870015 211.19585 264.258505 212.455581 263.170163 
C 213.715312 262.081821 214.42312 260.605505 214.42312 259.066357 
C 214.42312 257.527209 213.715312 256.050893 212.455581 254.962551 
C 211.19585 253.874209 209.487049 253.262698 207.70552 253.262698 
C 205.923992 253.262698 204.215191 253.874209 202.95546 254.962551 
C 201.695729 256.050893 200.98792 257.527209 200.98792 259.066357 
C 200.98792 260.605505 201.695729 262.081821 202.95546 263.170163 
C 204.215191 264.258505 205.923992 264.870015 207.70552 264.870015 
z
" clip-path="url(#p7b65e2b040)" style="fill: #eef2f6; stroke: #33414f; stroke-width: 1.3; stroke-linejoin: miter"/>
   </g>
   <g id="line2d_1">
    <path d="M 698.958 199.578858 
L 698.958 191.840647 
" clip-path="url(#p7b65e2b040)" style="fill: none; stroke: #7b8794; stroke-width: 1.4; stroke-linecap: square"/>
   </g>
   <g id="line2d_2">
    <path d="M 883.692 199.578858 
L 883.692 191.840647 
" clip-path="url(#p7b65e2b040)" style="fill: none; stroke: #7b8794; stroke-width: 1.4; stroke-linecap: square"/>
   </g>
   <g id="text_1">
    <!-- TWO ESTATES  ·  LOCALLY IDENTICAL -->
    <g style="fill: #7b8794" transform="translate(92.055937 43.7892) scale(0.11 -0.11)">
     <defs>
      <path id="HelveticaNeue-54" d="M 1536 4058 
L 1536 0 
L 2144 0 
L 2144 4058 
L 3667 4058 
L 3667 4570 
L 13 4570 
L 13 4058 
L 1536 4058 
z
" transform="scale(0.015625)"/>
      <path id="HelveticaNeue-57" d="M 4627 0 
L 5850 4570 
L 5242 4570 
L 4314 768 
L 4301 768 
L 3290 4570 
L 2630 4570 
L 1606 768 
L 1594 768 
L 698 4570 
L 77 4570 
L 1248 0 
L 1882 0 
L 2938 3840 
L 2950 3840 
L 3994 0 
L 4627 0 
z
" transform="scale(0.015625)"/>
      <path id="HelveticaNeue-4f" d="M 851 2285 
Q 851 2630 940 2966 
Q 1030 3302 1222 3571 
Q 1414 3840 1715 4003 
Q 2016 4166 2432 4166 
Q 2848 4166 3149 4003 
Q 3450 3840 3642 3571 
Q 3834 3302 3923 2966 
Q 4013 2630 4013 2285 
Q 4013 1939 3923 1603 
Q 3834 1267 3642 998 
Q 3450 730 3149 566 
Q 2848 403 2432 403 
Q 2016 403 1715 566 
Q 1414 730 1222 998 
Q 1030 1267 940 1603 
Q 851 1939 851 2285 
z
M 243 2285 
Q 243 1818 380 1386 
Q 518 954 793 621 
Q 1069 288 1478 93 
Q 1888 -102 2432 -102 
Q 2976 -102 3385 93 
Q 3795 288 4070 621 
Q 4346 954 4483 1386 
Q 4621 1818 4621 2285 
Q 4621 2752 4483 3184 
Q 4346 3616 4070 3949 
Q 3795 4282 3385 4480 
Q 2976 4678 2432 4678 
Q 1888 4678 1478 4480 
Q 1069 4282 793 3949 
Q 518 3616 380 3184 
Q 243 2752 243 2285 
z
" transform="scale(0.015625)"/>
      <path id="HelveticaNeue-20" transform="scale(0.015625)"/>
      <path id="HelveticaNeue-45" d="M 499 4570 
L 499 0 
L 3674 0 
L 3674 512 
L 1107 512 
L 1107 2093 
L 3482 2093 
L 3482 2605 
L 1107 2605 
L 1107 4058 
L 3654 4058 
L 3654 4570 
L 499 4570 
z
" transform="scale(0.015625)"/>
      <path id="HelveticaNeue-53" d="M 3142 3232 
L 3718 3232 
Q 3706 3610 3574 3882 
Q 3443 4154 3216 4333 
Q 2989 4512 2688 4595 
Q 2387 4678 2035 4678 
Q 1722 4678 1424 4598 
Q 1126 4518 892 4355 
Q 659 4192 518 3939 
Q 378 3686 378 3341 
Q 378 3027 502 2819 
Q 627 2611 835 2480 
Q 1043 2349 1305 2269 
Q 1568 2189 1840 2128 
Q 2112 2067 2374 2009 
Q 2637 1952 2845 1859 
Q 3053 1766 3177 1619 
Q 3302 1472 3302 1235 
Q 3302 986 3200 826 
Q 3098 666 2931 573 
Q 2765 480 2557 441 
Q 2349 403 2144 403 
Q 1888 403 1645 467 
Q 1402 531 1219 665 
Q 1037 800 925 1008 
Q 813 1216 813 1504 
L 237 1504 
Q 237 1088 387 784 
Q 538 480 797 285 
Q 1056 90 1398 -6 
Q 1741 -102 2125 -102 
Q 2438 -102 2755 -28 
Q 3072 45 3328 208 
Q 3584 371 3747 630 
Q 3910 890 3910 1254 
Q 3910 1594 3785 1818 
Q 3661 2042 3453 2189 
Q 3245 2336 2982 2422 
Q 2720 2509 2448 2573 
Q 2176 2637 1913 2691 
Q 1651 2746 1443 2829 
Q 1235 2912 1110 3043 
Q 986 3174 986 3386 
Q 986 3610 1072 3760 
Q 1158 3910 1302 4000 
Q 1446 4090 1632 4128 
Q 1818 4166 2010 4166 
Q 2483 4166 2787 3945 
Q 3091 3725 3142 3232 
z
" transform="scale(0.015625)"/>
      <path id="HelveticaNeue-41" d="M 1286 1888 
L 2061 4019 
L 2074 4019 
L 2835 1888 
L 1286 1888 
z
M 1741 4570 
L -38 0 
L 582 0 
L 1094 1376 
L 3027 1376 
L 3526 0 
L 4198 0 
L 2413 4570 
L 1741 4570 
z
" transform="scale(0.015625)"/>
      <path id="HelveticaNeue-b7" d="M 480 1990 
Q 480 1824 605 1702 
Q 730 1581 896 1581 
Q 1056 1581 1177 1709 
Q 1299 1837 1299 1990 
Q 1299 2157 1177 2278 
Q 1056 2400 890 2400 
Q 723 2400 601 2278 
Q 480 2157 480 1990 
z
" transform="scale(0.015625)"/>
      <path id="HelveticaNeue-4c" d="M 499 4570 
L 499 0 
L 3526 0 
L 3526 512 
L 1107 512 
L 1107 4570 
L 499 4570 
z
" transform="scale(0.015625)"/>
      <path id="HelveticaNeue-43" d="M 3712 3194 
L 4320 3194 
Q 4269 3558 4102 3836 
Q 3936 4115 3686 4300 
Q 3437 4486 3117 4582 
Q 2797 4678 2438 4678 
Q 1914 4678 1507 4489 
Q 1101 4301 829 3974 
Q 557 3648 416 3209 
Q 275 2771 275 2272 
Q 275 1773 406 1337 
Q 538 902 800 582 
Q 1062 262 1459 80 
Q 1856 -102 2387 -102 
Q 3264 -102 3769 378 
Q 4275 858 4365 1722 
L 3757 1722 
Q 3738 1440 3642 1197 
Q 3546 954 3376 778 
Q 3206 602 2972 502 
Q 2739 403 2438 403 
Q 2029 403 1734 556 
Q 1440 710 1251 969 
Q 1062 1229 972 1577 
Q 883 1926 883 2317 
Q 883 2675 972 3008 
Q 1062 3341 1251 3600 
Q 1440 3859 1731 4012 
Q 2022 4166 2432 4166 
Q 2912 4166 3261 3923 
Q 3610 3680 3712 3194 
z
" transform="scale(0.015625)"/>
      <path id="HelveticaNeue-59" d="M 2387 1869 
L 4134 4570 
L 3443 4570 
L 2106 2394 
L 736 4570 
L 13 4570 
L 1779 1869 
L 1779 0 
L 2387 0 
L 2387 1869 
z
" transform="scale(0.015625)"/>
      <path id="HelveticaNeue-49" d="M 525 4570 
L 525 0 
L 1133 0 
L 1133 4570 
L 525 4570 
z
" transform="scale(0.015625)"/>
      <path id="HelveticaNeue-44" d="M 1107 512 
L 1107 4058 
L 2131 4058 
Q 2554 4058 2842 3939 
Q 3130 3821 3312 3593 
Q 3494 3366 3574 3043 
Q 3654 2720 3654 2310 
Q 3654 1888 3568 1590 
Q 3482 1293 3347 1094 
Q 3213 896 3043 781 
Q 2874 666 2701 605 
Q 2528 544 2374 528 
Q 2221 512 2118 512 
L 1107 512 
z
M 499 4570 
L 499 0 
L 2067 0 
Q 2637 0 3053 160 
Q 3469 320 3737 624 
Q 4006 928 4134 1373 
Q 4262 1818 4262 2394 
Q 4262 3494 3692 4032 
Q 3123 4570 2067 4570 
L 499 4570 
z
" transform="scale(0.015625)"/>
      <path id="HelveticaNeue-4e" d="M 493 4570 
L 493 0 
L 1069 0 
L 1069 3667 
L 1082 3667 
L 3469 0 
L 4134 0 
L 4134 4570 
L 3558 4570 
L 3558 864 
L 3546 864 
L 1139 4570 
L 493 4570 
z
" transform="scale(0.015625)"/>
     </defs>
     <use xlink:href="#HelveticaNeue-54"/>
     <use xlink:href="#HelveticaNeue-57" transform="translate(57.399994 0)"/>
     <use xlink:href="#HelveticaNeue-4f" transform="translate(149.999985 0)"/>
     <use xlink:href="#HelveticaNeue-20" transform="translate(225.999969 0)"/>
     <use xlink:href="#HelveticaNeue-45" transform="translate(253.799957 0)"/>
     <use xlink:href="#HelveticaNeue-53" transform="translate(314.899948 0)"/>
     <use xlink:href="#HelveticaNeue-54" transform="translate(379.699936 0)"/>
     <use xlink:href="#HelveticaNeue-41" transform="translate(427.84993 0)"/>
     <use xlink:href="#HelveticaNeue-54" transform="translate(483.399918 0)"/>
     <use xlink:href="#HelveticaNeue-45" transform="translate(540.799911 0)"/>
     <use xlink:href="#HelveticaNeue-53" transform="translate(601.899902 0)"/>
     <use xlink:href="#HelveticaNeue-20" transform="translate(666.69989 0)"/>
     <use xlink:href="#HelveticaNeue-20" transform="translate(694.499878 0)"/>
     <use xlink:href="#HelveticaNeue-b7" transform="translate(722.299866 0)"/>
     <use xlink:href="#HelveticaNeue-20" transform="translate(750.099854 0)"/>
     <use xlink:href="#HelveticaNeue-20" transform="translate(777.899841 0)"/>
     <use xlink:href="#HelveticaNeue-4c" transform="translate(805.699829 0)"/>
     <use xlink:href="#HelveticaNeue-4f" transform="translate(861.29982 0)"/>
     <use xlink:href="#HelveticaNeue-43" transform="translate(937.299805 0)"/>
     <use xlink:href="#HelveticaNeue-41" transform="translate(1009.499786 0)"/>
     <use xlink:href="#HelveticaNeue-4c" transform="translate(1074.299774 0)"/>
     <use xlink:href="#HelveticaNeue-4c" transform="translate(1129.899765 0)"/>
     <use xlink:href="#HelveticaNeue-59" transform="translate(1174.374756 0)"/>
     <use xlink:href="#HelveticaNeue-20" transform="translate(1239.174744 0)"/>
     <use xlink:href="#HelveticaNeue-49" transform="translate(1266.974731 0)"/>
     <use xlink:href="#HelveticaNeue-44" transform="translate(1292.874725 0)"/>
     <use xlink:href="#HelveticaNeue-45" transform="translate(1363.274719 0)"/>
     <use xlink:href="#HelveticaNeue-4e" transform="translate(1424.37471 0)"/>
     <use xlink:href="#HelveticaNeue-54" transform="translate(1496.574692 0)"/>
     <use xlink:href="#HelveticaNeue-49" transform="translate(1553.974686 0)"/>
     <use xlink:href="#HelveticaNeue-43" transform="translate(1579.87468 0)"/>
     <use xlink:href="#HelveticaNeue-41" transform="translate(1652.074661 0)"/>
     <use xlink:href="#HelveticaNeue-4c" transform="translate(1716.874649 0)"/>
    </g>
   </g>
   <g id="text_2">
    <!-- flat — one cycle, reach all -->
    <g style="fill: #1f2933" transform="translate(120.530625 198.127944) scale(0.12 -0.12)">
     <defs>
      <path id="HelveticaNeue-66" d="M 634 2829 
L 634 0 
L 1178 0 
L 1178 2829 
L 1818 2829 
L 1818 3309 
L 1178 3309 
L 1178 3770 
Q 1178 3987 1286 4064 
Q 1395 4141 1594 4141 
Q 1664 4141 1747 4131 
Q 1830 4122 1901 4096 
L 1901 4570 
Q 1824 4595 1725 4608 
Q 1626 4621 1549 4621 
Q 1101 4621 867 4413 
Q 634 4205 634 3802 
L 634 3309 
L 77 3309 
L 77 2829 
L 634 2829 
z
" transform="scale(0.015625)"/>
      <path id="HelveticaNeue-6c" d="M 442 4570 
L 442 0 
L 986 0 
L 986 4570 
L 442 4570 
z
" transform="scale(0.015625)"/>
      <path id="HelveticaNeue-61" d="M 3341 13 
Q 3200 -70 2950 -70 
Q 2739 -70 2614 48 
Q 2490 166 2490 435 
Q 2266 166 1968 48 
Q 1670 -70 1325 -70 
Q 1101 -70 899 -19 
Q 698 32 550 141 
Q 403 250 316 426 
Q 230 602 230 851 
Q 230 1133 326 1312 
Q 422 1491 579 1603 
Q 736 1715 937 1772 
Q 1139 1830 1350 1869 
Q 1574 1914 1776 1936 
Q 1978 1958 2131 2000 
Q 2285 2042 2374 2122 
Q 2464 2202 2464 2355 
Q 2464 2534 2397 2643 
Q 2330 2752 2224 2809 
Q 2118 2867 1987 2886 
Q 1856 2906 1728 2906 
Q 1382 2906 1152 2774 
Q 922 2643 902 2278 
L 358 2278 
Q 371 2586 486 2797 
Q 602 3008 794 3139 
Q 986 3270 1232 3328 
Q 1478 3386 1760 3386 
Q 1984 3386 2205 3354 
Q 2426 3322 2605 3222 
Q 2784 3123 2893 2944 
Q 3002 2765 3002 2477 
L 3002 774 
Q 3002 582 3024 492 
Q 3046 403 3174 403 
Q 3245 403 3341 435 
L 3341 13 
z
M 2458 1709 
Q 2355 1632 2188 1597 
Q 2022 1562 1840 1539 
Q 1658 1517 1472 1488 
Q 1286 1459 1139 1395 
Q 992 1331 899 1212 
Q 806 1094 806 890 
Q 806 755 860 662 
Q 915 570 1001 512 
Q 1088 454 1203 428 
Q 1318 403 1446 403 
Q 1715 403 1907 476 
Q 2099 550 2220 662 
Q 2342 774 2400 905 
Q 2458 1037 2458 1152 
L 2458 1709 
z
" transform="scale(0.015625)"/>
      <path id="HelveticaNeue-74" d="M 1165 3309 
L 1165 4301 
L 621 4301 
L 621 3309 
L 58 3309 
L 58 2829 
L 621 2829 
L 621 723 
Q 621 493 665 352 
Q 710 211 803 134 
Q 896 58 1046 29 
Q 1197 0 1408 0 
L 1824 0 
L 1824 480 
L 1574 480 
Q 1446 480 1366 489 
Q 1286 499 1241 531 
Q 1197 563 1181 620 
Q 1165 678 1165 774 
L 1165 2829 
L 1824 2829 
L 1824 3309 
L 1165 3309 
z
" transform="scale(0.015625)"/>
      <path id="HelveticaNeue-2014" d="M 832 2035 
L 832 1523 
L 5568 1523 
L 5568 2035 
L 832 2035 
z
" transform="scale(0.015625)"/>
      <path id="HelveticaNeue-6f" d="M 806 1651 
Q 806 1952 886 2185 
Q 966 2419 1107 2579 
Q 1248 2739 1437 2822 
Q 1626 2906 1837 2906 
Q 2048 2906 2237 2822 
Q 2426 2739 2566 2579 
Q 2707 2419 2787 2185 
Q 2867 1952 2867 1651 
Q 2867 1350 2787 1116 
Q 2707 883 2566 726 
Q 2426 570 2237 486 
Q 2048 403 1837 403 
Q 1626 403 1437 486 
Q 1248 570 1107 726 
Q 966 883 886 1116 
Q 806 1350 806 1651 
z
M 230 1651 
Q 230 1286 332 972 
Q 435 659 640 425 
Q 845 192 1145 61 
Q 1446 -70 1837 -70 
Q 2234 -70 2531 61 
Q 2829 192 3033 425 
Q 3238 659 3340 972 
Q 3443 1286 3443 1651 
Q 3443 2016 3340 2333 
Q 3238 2650 3033 2883 
Q 2829 3117 2531 3251 
Q 2234 3386 1837 3386 
Q 1446 3386 1145 3251 
Q 845 3117 640 2883 
Q 435 2650 332 2333 
Q 230 2016 230 1651 
z
" transform="scale(0.015625)"/>
      <path id="HelveticaNeue-6e" d="M 410 3309 
L 410 0 
L 954 0 
L 954 1869 
Q 954 2093 1014 2281 
Q 1075 2470 1196 2611 
Q 1318 2752 1500 2829 
Q 1683 2906 1933 2906 
Q 2246 2906 2425 2726 
Q 2605 2547 2605 2240 
L 2605 0 
L 3149 0 
L 3149 2176 
Q 3149 2445 3094 2665 
Q 3040 2886 2905 3046 
Q 2771 3206 2553 3296 
Q 2336 3386 2010 3386 
Q 1274 3386 934 2784 
L 922 2784 
L 922 3309 
L 410 3309 
z
" transform="scale(0.015625)"/>
      <path id="HelveticaNeue-65" d="M 2707 1971 
L 806 1971 
Q 819 2163 889 2332 
Q 960 2502 1081 2630 
Q 1203 2758 1372 2832 
Q 1542 2906 1754 2906 
Q 1958 2906 2128 2832 
Q 2298 2758 2422 2633 
Q 2547 2509 2620 2336 
Q 2694 2163 2707 1971 
z
M 3232 1050 
L 2694 1050 
Q 2624 723 2403 563 
Q 2182 403 1837 403 
Q 1568 403 1369 492 
Q 1171 582 1043 732 
Q 915 883 857 1078 
Q 800 1274 806 1491 
L 3283 1491 
Q 3296 1792 3229 2125 
Q 3162 2458 2986 2739 
Q 2810 3021 2518 3203 
Q 2227 3386 1786 3386 
Q 1446 3386 1161 3258 
Q 877 3130 669 2899 
Q 461 2669 345 2355 
Q 230 2042 230 1664 
Q 243 1286 342 966 
Q 442 646 640 416 
Q 838 186 1129 58 
Q 1421 -70 1818 -70 
Q 2381 -70 2752 211 
Q 3123 493 3232 1050 
z
" transform="scale(0.015625)"/>
      <path id="HelveticaNeue-63" d="M 2656 2246 
L 3219 2246 
Q 3187 2541 3065 2755 
Q 2944 2970 2755 3110 
Q 2566 3251 2320 3318 
Q 2074 3386 1792 3386 
Q 1402 3386 1107 3248 
Q 813 3110 617 2870 
Q 422 2630 326 2307 
Q 230 1984 230 1613 
Q 230 1242 329 931 
Q 429 621 624 397 
Q 819 173 1110 51 
Q 1402 -70 1779 -70 
Q 2413 -70 2781 262 
Q 3149 595 3238 1210 
L 2682 1210 
Q 2630 826 2403 614 
Q 2176 403 1773 403 
Q 1517 403 1331 505 
Q 1146 608 1030 777 
Q 915 947 860 1164 
Q 806 1382 806 1613 
Q 806 1862 857 2096 
Q 909 2330 1027 2509 
Q 1146 2688 1344 2797 
Q 1542 2906 1837 2906 
Q 2182 2906 2387 2733 
Q 2592 2560 2656 2246 
z
" transform="scale(0.015625)"/>
      <path id="HelveticaNeue-79" d="M 1709 -442 
Q 1613 -685 1520 -851 
Q 1427 -1018 1315 -1123 
Q 1203 -1229 1065 -1277 
Q 928 -1325 749 -1325 
Q 653 -1325 557 -1312 
Q 461 -1299 371 -1267 
L 371 -768 
Q 442 -800 534 -822 
Q 627 -845 691 -845 
Q 858 -845 970 -765 
Q 1082 -685 1139 -538 
L 1363 19 
L 51 3309 
L 666 3309 
L 1632 602 
L 1645 602 
L 2573 3309 
L 3149 3309 
L 1709 -442 
z
" transform="scale(0.015625)"/>
      <path id="HelveticaNeue-2c" d="M 531 710 
L 531 0 
L 909 0 
Q 915 -77 899 -166 
Q 883 -256 838 -342 
Q 794 -429 720 -502 
Q 646 -576 538 -614 
L 538 -934 
Q 909 -826 1075 -563 
Q 1242 -301 1242 64 
L 1242 710 
L 531 710 
z
" transform="scale(0.015625)"/>
      <path id="HelveticaNeue-72" d="M 390 3309 
L 390 0 
L 934 0 
L 934 1472 
Q 934 1792 998 2038 
Q 1062 2285 1203 2457 
Q 1344 2630 1574 2720 
Q 1805 2810 2131 2810 
L 2131 3386 
Q 1690 3398 1402 3206 
Q 1114 3014 915 2611 
L 902 2611 
L 902 3309 
L 390 3309 
z
" transform="scale(0.015625)"/>
      <path id="HelveticaNeue-68" d="M 410 4570 
L 410 0 
L 954 0 
L 954 1869 
Q 954 2093 1014 2281 
Q 1075 2470 1196 2611 
Q 1318 2752 1500 2829 
Q 1683 2906 1933 2906 
Q 2246 2906 2425 2726 
Q 2605 2547 2605 2240 
L 2605 0 
L 3149 0 
L 3149 2176 
Q 3149 2445 3094 2665 
Q 3040 2886 2905 3046 
Q 2771 3206 2553 3296 
Q 2336 3386 2010 3386 
Q 1862 3386 1705 3354 
Q 1549 3322 1405 3254 
Q 1261 3187 1145 3081 
Q 1030 2976 966 2822 
L 954 2822 
L 954 4570 
L 410 4570 
z
" transform="scale(0.015625)"/>
     </defs>
     <use xlink:href="#HelveticaNeue-66"/>
     <use xlink:href="#HelveticaNeue-6c" transform="translate(29.599991 0)"/>
     <use xlink:href="#HelveticaNeue-61" transform="translate(51.799988 0)"/>
     <use xlink:href="#HelveticaNeue-74" transform="translate(105.499985 0)"/>
     <use xlink:href="#HelveticaNeue-20" transform="translate(136.999969 0)"/>
     <use xlink:href="#HelveticaNeue-2014" transform="translate(164.799957 0)"/>
     <use xlink:href="#HelveticaNeue-20" transform="translate(264.799942 0)"/>
     <use xlink:href="#HelveticaNeue-6f" transform="translate(292.59993 0)"/>
     <use xlink:href="#HelveticaNeue-6e" transform="translate(349.999924 0)"/>
     <use xlink:href="#HelveticaNeue-65" transform="translate(405.599915 0)"/>
     <use xlink:href="#HelveticaNeue-20" transform="translate(459.299911 0)"/>
     <use xlink:href="#HelveticaNeue-63" transform="translate(487.099899 0)"/>
     <use xlink:href="#HelveticaNeue-79" transform="translate(540.799896 0)"/>
     <use xlink:href="#HelveticaNeue-63" transform="translate(590.799881 0)"/>
     <use xlink:href="#HelveticaNeue-6c" transform="translate(644.499878 0)"/>
     <use xlink:href="#HelveticaNeue-65" transform="translate(666.699875 0)"/>
     <use xlink:href="#HelveticaNeue-2c" transform="translate(720.399872 0)"/>
     <use xlink:href="#HelveticaNeue-20" transform="translate(748.19986 0)"/>
     <use xlink:href="#HelveticaNeue-72" transform="translate(775.999847 0)"/>
     <use xlink:href="#HelveticaNeue-65" transform="translate(807.549835 0)"/>
     <use xlink:href="#HelveticaNeue-61" transform="translate(861.249832 0)"/>
     <use xlink:href="#HelveticaNeue-63" transform="translate(914.949829 0)"/>
     <use xlink:href="#HelveticaNeue-68" transform="translate(968.649826 0)"/>
     <use xlink:href="#HelveticaNeue-20" transform="translate(1024.249817 0)"/>
     <use xlink:href="#HelveticaNeue-61" transform="translate(1052.049805 0)"/>
     <use xlink:href="#HelveticaNeue-6c" transform="translate(1105.749802 0)"/>
     <use xlink:href="#HelveticaNeue-6c" transform="translate(1127.949799 0)"/>
    </g>
   </g>
   <g id="text_3">
    <!-- segmented — k enclaves, reach one -->
    <g style="fill: #1f2933" transform="translate(91.952812 343.219404) scale(0.12 -0.12)">
     <defs>
      <path id="HelveticaNeue-73" d="M 742 1043 
L 198 1043 
Q 211 736 326 521 
Q 442 307 634 176 
Q 826 45 1075 -12 
Q 1325 -70 1600 -70 
Q 1850 -70 2102 -22 
Q 2355 26 2556 147 
Q 2758 269 2883 467 
Q 3008 666 3008 966 
Q 3008 1203 2915 1363 
Q 2822 1523 2672 1628 
Q 2522 1734 2326 1798 
Q 2131 1862 1926 1907 
Q 1734 1952 1542 1993 
Q 1350 2035 1196 2096 
Q 1043 2157 944 2249 
Q 845 2342 845 2483 
Q 845 2611 909 2691 
Q 973 2771 1075 2819 
Q 1178 2867 1302 2886 
Q 1427 2906 1549 2906 
Q 1683 2906 1814 2877 
Q 1946 2848 2054 2784 
Q 2163 2720 2233 2614 
Q 2304 2509 2317 2349 
L 2861 2349 
Q 2842 2650 2733 2851 
Q 2624 3053 2441 3171 
Q 2259 3290 2022 3338 
Q 1786 3386 1504 3386 
Q 1286 3386 1065 3331 
Q 845 3277 669 3165 
Q 493 3053 381 2873 
Q 269 2694 269 2445 
Q 269 2125 429 1945 
Q 589 1766 829 1667 
Q 1069 1568 1350 1513 
Q 1632 1459 1872 1392 
Q 2112 1325 2272 1216 
Q 2432 1107 2432 896 
Q 2432 742 2355 643 
Q 2278 544 2160 493 
Q 2042 442 1901 422 
Q 1760 403 1632 403 
Q 1466 403 1309 435 
Q 1152 467 1027 540 
Q 902 614 825 739 
Q 749 864 742 1043 
z
" transform="scale(0.015625)"/>
      <path id="HelveticaNeue-67" d="M 3264 282 
L 3264 3309 
L 2752 3309 
L 2752 2835 
L 2746 2835 
Q 2598 3110 2336 3248 
Q 2074 3386 1760 3386 
Q 1331 3386 1036 3222 
Q 742 3059 563 2806 
Q 384 2554 307 2243 
Q 230 1933 230 1638 
Q 230 1299 323 995 
Q 416 691 601 464 
Q 787 237 1062 102 
Q 1338 -32 1709 -32 
Q 2029 -32 2313 112 
Q 2598 256 2739 563 
L 2752 563 
L 2752 346 
Q 2752 70 2697 -160 
Q 2643 -390 2521 -553 
Q 2400 -717 2214 -809 
Q 2029 -902 1760 -902 
Q 1626 -902 1478 -873 
Q 1331 -845 1206 -781 
Q 1082 -717 995 -614 
Q 909 -512 902 -365 
L 358 -365 
Q 371 -634 499 -819 
Q 627 -1005 822 -1120 
Q 1018 -1235 1258 -1286 
Q 1498 -1338 1728 -1338 
Q 2522 -1338 2893 -934 
Q 3264 -531 3264 282 
z
M 1741 442 
Q 1472 442 1293 554 
Q 1114 666 1005 848 
Q 896 1030 851 1254 
Q 806 1478 806 1702 
Q 806 1939 860 2156 
Q 915 2374 1033 2540 
Q 1152 2707 1337 2806 
Q 1523 2906 1786 2906 
Q 2042 2906 2221 2803 
Q 2400 2701 2512 2531 
Q 2624 2362 2675 2150 
Q 2726 1939 2726 1722 
Q 2726 1491 2672 1260 
Q 2618 1030 2502 848 
Q 2387 666 2198 554 
Q 2010 442 1741 442 
z
" transform="scale(0.015625)"/>
      <path id="HelveticaNeue-6d" d="M 410 3309 
L 410 0 
L 954 0 
L 954 2061 
Q 954 2157 1002 2301 
Q 1050 2445 1155 2579 
Q 1261 2714 1430 2810 
Q 1600 2906 1837 2906 
Q 2022 2906 2140 2851 
Q 2259 2797 2329 2697 
Q 2400 2598 2429 2464 
Q 2458 2330 2458 2170 
L 2458 0 
L 3002 0 
L 3002 2061 
Q 3002 2445 3232 2675 
Q 3462 2906 3866 2906 
Q 4064 2906 4189 2848 
Q 4314 2790 4384 2691 
Q 4454 2592 4480 2457 
Q 4506 2323 4506 2170 
L 4506 0 
L 5050 0 
L 5050 2426 
Q 5050 2682 4970 2864 
Q 4890 3046 4746 3161 
Q 4602 3277 4400 3331 
Q 4198 3386 3949 3386 
Q 3622 3386 3350 3238 
Q 3078 3091 2912 2822 
Q 2810 3130 2560 3258 
Q 2310 3386 2003 3386 
Q 1306 3386 934 2822 
L 922 2822 
L 922 3309 
L 410 3309 
z
" transform="scale(0.015625)"/>
      <path id="HelveticaNeue-64" d="M 806 1626 
Q 806 1869 857 2099 
Q 909 2330 1024 2509 
Q 1139 2688 1331 2797 
Q 1523 2906 1798 2906 
Q 2080 2906 2278 2800 
Q 2477 2694 2601 2521 
Q 2726 2349 2784 2121 
Q 2842 1894 2842 1651 
Q 2842 1421 2787 1197 
Q 2733 973 2611 797 
Q 2490 621 2298 512 
Q 2106 403 1830 403 
Q 1568 403 1373 505 
Q 1178 608 1053 781 
Q 928 954 867 1174 
Q 806 1395 806 1626 
z
M 3366 0 
L 3366 4570 
L 2822 4570 
L 2822 2867 
L 2810 2867 
Q 2720 3014 2589 3113 
Q 2458 3213 2310 3273 
Q 2163 3334 2016 3360 
Q 1869 3386 1741 3386 
Q 1363 3386 1078 3248 
Q 794 3110 605 2876 
Q 416 2643 323 2329 
Q 230 2016 230 1664 
Q 230 1312 326 998 
Q 422 685 611 448 
Q 800 211 1085 70 
Q 1370 -70 1754 -70 
Q 2099 -70 2387 51 
Q 2675 173 2810 448 
L 2822 448 
L 2822 0 
L 3366 0 
z
" transform="scale(0.015625)"/>
      <path id="HelveticaNeue-6b" d="M 442 4570 
L 442 0 
L 986 0 
L 986 1254 
L 1498 1728 
L 2630 0 
L 3322 0 
L 1914 2106 
L 3226 3309 
L 2496 3309 
L 986 1862 
L 986 4570 
L 442 4570 
z
" transform="scale(0.015625)"/>
      <path id="HelveticaNeue-76" d="M 1901 0 
L 3110 3309 
L 2541 3309 
L 1638 550 
L 1626 550 
L 698 3309 
L 90 3309 
L 1318 0 
L 1901 0 
z
" transform="scale(0.015625)"/>
     </defs>
     <use xlink:href="#HelveticaNeue-73"/>
     <use xlink:href="#HelveticaNeue-65" transform="translate(49.999985 0)"/>
     <use xlink:href="#HelveticaNeue-67" transform="translate(103.699982 0)"/>
     <use xlink:href="#HelveticaNeue-6d" transform="translate(161.099976 0)"/>
     <use xlink:href="#HelveticaNeue-65" transform="translate(246.399963 0)"/>
     <use xlink:href="#HelveticaNeue-6e" transform="translate(300.09996 0)"/>
     <use xlink:href="#HelveticaNeue-74" transform="translate(355.699951 0)"/>
     <use xlink:href="#HelveticaNeue-65" transform="translate(387.199936 0)"/>
     <use xlink:href="#HelveticaNeue-64" transform="translate(440.899933 0)"/>
     <use xlink:href="#HelveticaNeue-20" transform="translate(500.199921 0)"/>
     <use xlink:href="#HelveticaNeue-2014" transform="translate(527.999908 0)"/>
     <use xlink:href="#HelveticaNeue-20" transform="translate(627.999893 0)"/>
     <use xlink:href="#HelveticaNeue-6b" transform="translate(655.799881 0)"/>
     <use xlink:href="#HelveticaNeue-20" transform="translate(707.699875 0)"/>
     <use xlink:href="#HelveticaNeue-65" transform="translate(735.499863 0)"/>
     <use xlink:href="#HelveticaNeue-6e" transform="translate(789.19986 0)"/>
     <use xlink:href="#HelveticaNeue-63" transform="translate(844.79985 0)"/>
     <use xlink:href="#HelveticaNeue-6c" transform="translate(898.499847 0)"/>
     <use xlink:href="#HelveticaNeue-61" transform="translate(920.699844 0)"/>
     <use xlink:href="#HelveticaNeue-76" transform="translate(974.399841 0)"/>
     <use xlink:href="#HelveticaNeue-65" transform="translate(1024.399826 0)"/>
     <use xlink:href="#HelveticaNeue-73" transform="translate(1078.099823 0)"/>
     <use xlink:href="#HelveticaNeue-2c" transform="translate(1128.099808 0)"/>
     <use xlink:href="#HelveticaNeue-20" transform="translate(1155.899796 0)"/>
     <use xlink:href="#HelveticaNeue-72" transform="translate(1183.699783 0)"/>
     <use xlink:href="#HelveticaNeue-65" transform="translate(1215.249771 0)"/>
     <use xlink:href="#HelveticaNeue-61" transform="translate(1268.949768 0)"/>
     <use xlink:href="#HelveticaNeue-63" transform="translate(1322.649765 0)"/>
     <use xlink:href="#HelveticaNeue-68" transform="translate(1376.349762 0)"/>
     <use xlink:href="#HelveticaNeue-20" transform="translate(1431.949753 0)"/>
     <use xlink:href="#HelveticaNeue-6f" transform="translate(1459.749741 0)"/>
     <use xlink:href="#HelveticaNeue-6e" transform="translate(1517.149734 0)"/>
     <use xlink:href="#HelveticaNeue-65" transform="translate(1572.749725 0)"/>
    </g>
   </g>
   <g id="text_4">
    <!-- TWO LENSES -->
    <g style="fill: #7b8794" transform="translate(490.584375 43.7892) scale(0.11 -0.11)">
     <use xlink:href="#HelveticaNeue-54"/>
     <use xlink:href="#HelveticaNeue-57" transform="translate(57.399994 0)"/>
     <use xlink:href="#HelveticaNeue-4f" transform="translate(149.999985 0)"/>
     <use xlink:href="#HelveticaNeue-20" transform="translate(225.999969 0)"/>
     <use xlink:href="#HelveticaNeue-4c" transform="translate(253.799957 0)"/>
     <use xlink:href="#HelveticaNeue-45" transform="translate(309.399948 0)"/>
     <use xlink:href="#HelveticaNeue-4e" transform="translate(370.499939 0)"/>
     <use xlink:href="#HelveticaNeue-53" transform="translate(442.699921 0)"/>
     <use xlink:href="#HelveticaNeue-45" transform="translate(507.499908 0)"/>
     <use xlink:href="#HelveticaNeue-53" transform="translate(568.599899 0)"/>
    </g>
   </g>
   <g id="text_5">
    <!-- 1-WL GNN -->
    <g style="fill: #1f2933" transform="translate(396.666 106.236685) scale(0.13 -0.13)">
     <defs>
      <path id="HelveticaNeue-31" d="M 2278 0 
L 2278 4538 
L 1862 4538 
Q 1818 4282 1696 4115 
Q 1574 3949 1398 3853 
Q 1222 3757 1004 3721 
Q 787 3686 557 3686 
L 557 3251 
L 1734 3251 
L 1734 0 
L 2278 0 
z
" transform="scale(0.015625)"/>
      <path id="HelveticaNeue-2d" d="M 320 2035 
L 320 1523 
L 2170 1523 
L 2170 2035 
L 320 2035 
z
" transform="scale(0.015625)"/>
      <path id="HelveticaNeue-47" d="M 3917 570 
L 4077 0 
L 4461 0 
L 4461 2406 
L 2458 2406 
L 2458 1894 
L 3917 1894 
Q 3930 1581 3834 1309 
Q 3738 1037 3549 835 
Q 3360 634 3085 518 
Q 2810 403 2451 403 
Q 2067 403 1776 553 
Q 1485 704 1286 957 
Q 1088 1210 985 1539 
Q 883 1869 883 2227 
Q 883 2592 972 2941 
Q 1062 3290 1251 3562 
Q 1440 3834 1737 4000 
Q 2035 4166 2451 4166 
Q 2707 4166 2934 4105 
Q 3162 4045 3341 3923 
Q 3520 3802 3641 3613 
Q 3763 3424 3808 3162 
L 4416 3162 
Q 4352 3565 4176 3849 
Q 4000 4134 3741 4320 
Q 3482 4506 3152 4592 
Q 2822 4678 2451 4678 
Q 1907 4678 1500 4476 
Q 1094 4275 822 3936 
Q 550 3597 412 3145 
Q 275 2694 275 2195 
Q 275 1747 422 1331 
Q 570 915 851 595 
Q 1133 275 1536 86 
Q 1939 -102 2451 -102 
Q 2854 -102 3251 54 
Q 3648 211 3917 570 
z
" transform="scale(0.015625)"/>
     </defs>
     <use xlink:href="#HelveticaNeue-31"/>
     <use xlink:href="#HelveticaNeue-2d" transform="translate(55.599991 0)"/>
     <use xlink:href="#HelveticaNeue-57" transform="translate(94.499985 0)"/>
     <use xlink:href="#HelveticaNeue-4c" transform="translate(187.099976 0)"/>
     <use xlink:href="#HelveticaNeue-20" transform="translate(242.699966 0)"/>
     <use xlink:href="#HelveticaNeue-47" transform="translate(270.499954 0)"/>
     <use xlink:href="#HelveticaNeue-4e" transform="translate(346.399948 0)"/>
     <use xlink:href="#HelveticaNeue-4e" transform="translate(418.59993 0)"/>
    </g>
   </g>
   <g id="text_6">
    <!-- both collapse to one embedding -->
    <g style="fill: #7b8794" transform="translate(396.666 132.836786) scale(0.115 -0.115)">
     <defs>
      <path id="HelveticaNeue-62" d="M 429 4570 
L 429 0 
L 973 0 
L 973 442 
L 986 442 
Q 1075 294 1206 195 
Q 1338 96 1485 38 
Q 1632 -19 1782 -44 
Q 1933 -70 2054 -70 
Q 2432 -70 2717 64 
Q 3002 198 3190 432 
Q 3379 666 3472 979 
Q 3565 1293 3565 1645 
Q 3565 1997 3469 2310 
Q 3373 2624 3184 2864 
Q 2995 3104 2710 3245 
Q 2426 3386 2042 3386 
Q 1696 3386 1408 3261 
Q 1120 3136 986 2861 
L 973 2861 
L 973 4570 
L 429 4570 
z
M 2989 1683 
Q 2989 1440 2937 1209 
Q 2886 979 2771 800 
Q 2656 621 2467 512 
Q 2278 403 1997 403 
Q 1715 403 1516 508 
Q 1318 614 1193 787 
Q 1069 960 1011 1187 
Q 954 1414 954 1658 
Q 954 1888 1008 2112 
Q 1062 2336 1184 2512 
Q 1306 2688 1498 2797 
Q 1690 2906 1965 2906 
Q 2227 2906 2422 2803 
Q 2618 2701 2742 2528 
Q 2867 2355 2928 2134 
Q 2989 1914 2989 1683 
z
" transform="scale(0.015625)"/>
      <path id="HelveticaNeue-70" d="M 429 3309 
L 429 -1261 
L 973 -1261 
L 973 442 
L 986 442 
Q 1075 294 1206 195 
Q 1338 96 1485 38 
Q 1632 -19 1782 -44 
Q 1933 -70 2054 -70 
Q 2432 -70 2717 64 
Q 3002 198 3190 432 
Q 3379 666 3472 979 
Q 3565 1293 3565 1645 
Q 3565 1997 3469 2310 
Q 3373 2624 3184 2864 
Q 2995 3104 2710 3245 
Q 2426 3386 2042 3386 
Q 1696 3386 1408 3261 
Q 1120 3136 986 2861 
L 973 2861 
L 973 3309 
L 429 3309 
z
M 2989 1683 
Q 2989 1440 2937 1209 
Q 2886 979 2771 800 
Q 2656 621 2467 512 
Q 2278 403 1997 403 
Q 1715 403 1516 508 
Q 1318 614 1193 787 
Q 1069 960 1011 1187 
Q 954 1414 954 1658 
Q 954 1888 1008 2112 
Q 1062 2336 1184 2512 
Q 1306 2688 1498 2797 
Q 1690 2906 1965 2906 
Q 2227 2906 2422 2803 
Q 2618 2701 2742 2528 
Q 2867 2355 2928 2134 
Q 2989 1914 2989 1683 
z
" transform="scale(0.015625)"/>
      <path id="HelveticaNeue-69" d="M 986 3904 
L 986 4570 
L 442 4570 
L 442 3904 
L 986 3904 
z
M 442 3309 
L 442 0 
L 986 0 
L 986 3309 
L 442 3309 
z
" transform="scale(0.015625)"/>
     </defs>
     <use xlink:href="#HelveticaNeue-62"/>
     <use xlink:href="#HelveticaNeue-6f" transform="translate(59.299988 0)"/>
     <use xlink:href="#HelveticaNeue-74" transform="translate(116.699982 0)"/>
     <use xlink:href="#HelveticaNeue-68" transform="translate(148.199966 0)"/>
     <use xlink:href="#HelveticaNeue-20" transform="translate(203.799957 0)"/>
     <use xlink:href="#HelveticaNeue-63" transform="translate(231.599945 0)"/>
     <use xlink:href="#HelveticaNeue-6f" transform="translate(285.299942 0)"/>
     <use xlink:href="#HelveticaNeue-6c" transform="translate(342.699936 0)"/>
     <use xlink:href="#HelveticaNeue-6c" transform="translate(364.899933 0)"/>
     <use xlink:href="#HelveticaNeue-61" transform="translate(387.09993 0)"/>
     <use xlink:href="#HelveticaNeue-70" transform="translate(440.799927 0)"/>
     <use xlink:href="#HelveticaNeue-73" transform="translate(500.099915 0)"/>
     <use xlink:href="#HelveticaNeue-65" transform="translate(550.099899 0)"/>
     <use xlink:href="#HelveticaNeue-20" transform="translate(603.799896 0)"/>
     <use xlink:href="#HelveticaNeue-74" transform="translate(631.599884 0)"/>
     <use xlink:href="#HelveticaNeue-6f" transform="translate(663.099869 0)"/>
     <use xlink:href="#HelveticaNeue-20" transform="translate(720.499863 0)"/>
     <use xlink:href="#HelveticaNeue-6f" transform="translate(748.29985 0)"/>
     <use xlink:href="#HelveticaNeue-6e" transform="translate(805.699844 0)"/>
     <use xlink:href="#HelveticaNeue-65" transform="translate(861.299835 0)"/>
     <use xlink:href="#HelveticaNeue-20" transform="translate(914.999832 0)"/>
     <use xlink:href="#HelveticaNeue-65" transform="translate(942.79982 0)"/>
     <use xlink:href="#HelveticaNeue-6d" transform="translate(996.499817 0)"/>
     <use xlink:href="#HelveticaNeue-62" transform="translate(1081.799805 0)"/>
     <use xlink:href="#HelveticaNeue-65" transform="translate(1141.099792 0)"/>
     <use xlink:href="#HelveticaNeue-64" transform="translate(1194.799789 0)"/>
     <use xlink:href="#HelveticaNeue-64" transform="translate(1254.099777 0)"/>
     <use xlink:href="#HelveticaNeue-69" transform="translate(1313.399765 0)"/>
     <use xlink:href="#HelveticaNeue-6e" transform="translate(1335.599762 0)"/>
     <use xlink:href="#HelveticaNeue-67" transform="translate(1391.199753 0)"/>
    </g>
   </g>
   <g id="line2d_3">
    <path d="M 585.8784 131.385872 
L 610.5096 110.105791 
" clip-path="url(#p7b65e2b040)" style="fill: none; stroke: #c0392b; stroke-width: 3.2; stroke-linecap: round"/>
   </g>
   <g id="line2d_4">
    <path d="M 585.8784 110.105791 
L 610.5096 131.385872 
" clip-path="url(#p7b65e2b040)" style="fill: none; stroke: #c0392b; stroke-width: 3.2; stroke-linecap: round"/>
   </g>
   <g id="text_7">
    <!-- reachability cover -->
    <g style="fill: #1f2933" transform="translate(396.666 261.00091) scale(0.13 -0.13)">
     <use xlink:href="#HelveticaNeue-72"/>
     <use xlink:href="#HelveticaNeue-65" transform="translate(31.549988 0)"/>
     <use xlink:href="#HelveticaNeue-61" transform="translate(85.249985 0)"/>
     <use xlink:href="#HelveticaNeue-63" transform="translate(138.949982 0)"/>
     <use xlink:href="#HelveticaNeue-68" transform="translate(192.649979 0)"/>
     <use xlink:href="#HelveticaNeue-61" transform="translate(248.249969 0)"/>
     <use xlink:href="#HelveticaNeue-62" transform="translate(301.949966 0)"/>
     <use xlink:href="#HelveticaNeue-69" transform="translate(361.249954 0)"/>
     <use xlink:href="#HelveticaNeue-6c" transform="translate(383.449951 0)"/>
     <use xlink:href="#HelveticaNeue-69" transform="translate(405.649948 0)"/>
     <use xlink:href="#HelveticaNeue-74" transform="translate(427.849945 0)"/>
     <use xlink:href="#HelveticaNeue-79" transform="translate(459.34993 0)"/>
     <use xlink:href="#HelveticaNeue-20" transform="translate(509.349915 0)"/>
     <use xlink:href="#HelveticaNeue-63" transform="translate(537.149902 0)"/>
     <use xlink:href="#HelveticaNeue-6f" transform="translate(590.849899 0)"/>
     <use xlink:href="#HelveticaNeue-76" transform="translate(648.249893 0)"/>
     <use xlink:href="#HelveticaNeue-65" transform="translate(698.249878 0)"/>
     <use xlink:href="#HelveticaNeue-72" transform="translate(751.949875 0)"/>
    </g>
   </g>
   <g id="text_8">
    <!-- A^t · 1 differs by class -->
    <g style="fill: #7b8794" transform="translate(396.666 287.601011) scale(0.115 -0.115)">
     <defs>
      <path id="HelveticaNeue-5e" d="M 1715 4461 
L 320 1690 
L 774 1690 
L 1914 3994 
L 3072 1690 
L 3520 1690 
L 2125 4461 
L 1715 4461 
z
" transform="scale(0.015625)"/>
     </defs>
     <use xlink:href="#HelveticaNeue-41"/>
     <use xlink:href="#HelveticaNeue-5e" transform="translate(64.799988 0)"/>
     <use xlink:href="#HelveticaNeue-74" transform="translate(124.799973 0)"/>
     <use xlink:href="#HelveticaNeue-20" transform="translate(156.299957 0)"/>
     <use xlink:href="#HelveticaNeue-b7" transform="translate(184.099945 0)"/>
     <use xlink:href="#HelveticaNeue-20" transform="translate(211.899933 0)"/>
     <use xlink:href="#HelveticaNeue-31" transform="translate(239.699921 0)"/>
     <use xlink:href="#HelveticaNeue-20" transform="translate(295.299911 0)"/>
     <use xlink:href="#HelveticaNeue-64" transform="translate(323.099899 0)"/>
     <use xlink:href="#HelveticaNeue-69" transform="translate(382.399887 0)"/>
     <use xlink:href="#HelveticaNeue-66" transform="translate(404.599884 0)"/>
     <use xlink:href="#HelveticaNeue-66" transform="translate(432.449875 0)"/>
     <use xlink:href="#HelveticaNeue-65" transform="translate(462.049866 0)"/>
     <use xlink:href="#HelveticaNeue-72" transform="translate(515.749863 0)"/>
     <use xlink:href="#HelveticaNeue-73" transform="translate(549.04985 0)"/>
     <use xlink:href="#HelveticaNeue-20" transform="translate(599.049835 0)"/>
     <use xlink:href="#HelveticaNeue-62" transform="translate(626.849823 0)"/>
     <use xlink:href="#HelveticaNeue-79" transform="translate(686.149811 0)"/>
     <use xlink:href="#HelveticaNeue-20" transform="translate(736.149796 0)"/>
     <use xlink:href="#HelveticaNeue-63" transform="translate(763.949783 0)"/>
     <use xlink:href="#HelveticaNeue-6c" transform="translate(817.64978 0)"/>
     <use xlink:href="#HelveticaNeue-61" transform="translate(839.849777 0)"/>
     <use xlink:href="#HelveticaNeue-73" transform="translate(893.549774 0)"/>
     <use xlink:href="#HelveticaNeue-73" transform="translate(943.549759 0)"/>
    </g>
   </g>
   <g id="line2d_5">
    <path d="M 585.8784 276.57406 
L 595.1151 286.150096 
L 612.97272 263.806011 
" clip-path="url(#p7b65e2b040)" style="fill: none; stroke: #2b6cb0; stroke-width: 3.2; stroke-linecap: round"/>
   </g>
   <g id="text_9">
    <!-- BLAST RADIUS -->
    <g style="fill: #7b8794" transform="translate(749.7235 43.7892) scale(0.11 -0.11)">
     <defs>
      <path id="HelveticaNeue-42" d="M 1107 2605 
L 1107 4058 
L 2323 4058 
Q 2522 4058 2698 4035 
Q 2874 4013 3008 3936 
Q 3142 3859 3219 3718 
Q 3296 3578 3296 3334 
Q 3296 2970 3069 2787 
Q 2842 2605 2323 2605 
L 1107 2605 
z
M 499 4570 
L 499 0 
L 2707 0 
Q 3046 0 3305 112 
Q 3565 224 3741 406 
Q 3917 589 4006 825 
Q 4096 1062 4096 1312 
Q 4096 1734 3872 2028 
Q 3648 2323 3226 2413 
L 3226 2426 
Q 3552 2554 3728 2819 
Q 3904 3085 3904 3450 
Q 3904 3795 3747 4032 
Q 3590 4269 3366 4403 
Q 3264 4467 3120 4499 
Q 2976 4531 2809 4547 
Q 2643 4563 2473 4566 
Q 2304 4570 2157 4570 
L 499 4570 
z
M 1107 512 
L 1107 2093 
L 2496 2093 
Q 2688 2093 2867 2057 
Q 3046 2022 3184 1936 
Q 3322 1850 3405 1702 
Q 3488 1555 3488 1331 
Q 3488 947 3261 729 
Q 3034 512 2630 512 
L 1107 512 
z
" transform="scale(0.015625)"/>
      <path id="HelveticaNeue-52" d="M 499 4570 
L 499 0 
L 1107 0 
L 1107 1952 
L 2592 1952 
Q 2816 1952 2950 1885 
Q 3085 1818 3168 1706 
Q 3251 1594 3289 1443 
Q 3328 1293 3354 1126 
Q 3386 960 3392 787 
Q 3398 614 3404 464 
Q 3411 314 3433 192 
Q 3456 70 3520 0 
L 4198 0 
Q 4102 115 4054 265 
Q 4006 416 3980 582 
Q 3955 749 3948 921 
Q 3942 1094 3930 1261 
Q 3910 1427 3875 1580 
Q 3840 1734 3766 1859 
Q 3693 1984 3568 2073 
Q 3443 2163 3245 2202 
L 3245 2214 
Q 3661 2330 3849 2643 
Q 4038 2957 4038 3373 
Q 4038 3930 3670 4250 
Q 3302 4570 2650 4570 
L 499 4570 
z
M 2374 2464 
L 1107 2464 
L 1107 4058 
L 2618 4058 
Q 3046 4058 3238 3840 
Q 3430 3622 3430 3277 
Q 3430 3027 3344 2870 
Q 3258 2714 3114 2621 
Q 2970 2528 2778 2496 
Q 2586 2464 2374 2464 
z
" transform="scale(0.015625)"/>
      <path id="HelveticaNeue-55" d="M 4147 1651 
L 4147 4570 
L 3539 4570 
L 3539 1651 
Q 3539 1037 3235 720 
Q 2931 403 2349 403 
Q 1734 403 1408 720 
Q 1082 1037 1082 1651 
L 1082 4570 
L 474 4570 
L 474 1651 
Q 474 736 970 317 
Q 1466 -102 2349 -102 
Q 3213 -102 3680 336 
Q 4147 774 4147 1651 
z
" transform="scale(0.015625)"/>
     </defs>
     <use xlink:href="#HelveticaNeue-42"/>
     <use xlink:href="#HelveticaNeue-4c" transform="translate(68.499985 0)"/>
     <use xlink:href="#HelveticaNeue-41" transform="translate(124.099976 0)"/>
     <use xlink:href="#HelveticaNeue-53" transform="translate(188.899963 0)"/>
     <use xlink:href="#HelveticaNeue-54" transform="translate(253.699951 0)"/>
     <use xlink:href="#HelveticaNeue-20" transform="translate(311.099945 0)"/>
     <use xlink:href="#HelveticaNeue-52" transform="translate(338.899933 0)"/>
     <use xlink:href="#HelveticaNeue-41" transform="translate(407.399918 0)"/>
     <use xlink:href="#HelveticaNeue-44" transform="translate(472.199905 0)"/>
     <use xlink:href="#HelveticaNeue-49" transform="translate(542.599899 0)"/>
     <use xlink:href="#HelveticaNeue-55" transform="translate(568.499893 0)"/>
     <use xlink:href="#HelveticaNeue-53" transform="translate(640.699875 0)"/>
    </g>
   </g>
   <g id="patch_52">
    <path d="M 692.562873 195.709753 
Q 791.325809 195.709753 890.088746 195.709753 
" style="fill: none; stroke: #7b8794; stroke-width: 1.4; stroke-linecap: round"/>
   </g>
   <g id="text_10">
    <!-- 0 -->
    <g style="fill: #7b8794" transform="translate(695.900344 215.055281) scale(0.11 -0.11)">
     <defs>
      <path id="HelveticaNeue-30" d="M 845 2234 
Q 845 2400 848 2601 
Q 851 2803 880 3004 
Q 909 3206 963 3398 
Q 1018 3590 1123 3734 
Q 1229 3878 1389 3968 
Q 1549 4058 1779 4058 
Q 2010 4058 2170 3968 
Q 2330 3878 2435 3734 
Q 2541 3590 2595 3398 
Q 2650 3206 2678 3004 
Q 2707 2803 2710 2601 
Q 2714 2400 2714 2234 
Q 2714 1978 2698 1661 
Q 2682 1344 2595 1065 
Q 2509 787 2317 595 
Q 2125 403 1779 403 
Q 1434 403 1242 595 
Q 1050 787 963 1065 
Q 877 1344 861 1661 
Q 845 1978 845 2234 
z
M 269 2227 
Q 269 1978 281 1709 
Q 294 1440 345 1184 
Q 397 928 493 701 
Q 589 474 755 301 
Q 922 128 1174 29 
Q 1427 -70 1779 -70 
Q 2138 -70 2387 29 
Q 2637 128 2803 301 
Q 2970 474 3066 701 
Q 3162 928 3213 1184 
Q 3264 1440 3277 1709 
Q 3290 1978 3290 2227 
Q 3290 2477 3277 2745 
Q 3264 3014 3213 3270 
Q 3162 3526 3066 3756 
Q 2970 3987 2803 4160 
Q 2637 4333 2384 4435 
Q 2131 4538 1779 4538 
Q 1427 4538 1174 4435 
Q 922 4333 755 4160 
Q 589 3987 493 3756 
Q 397 3526 345 3270 
Q 294 3014 281 2745 
Q 269 2477 269 2227 
z
" transform="scale(0.015625)"/>
     </defs>
     <use xlink:href="#HelveticaNeue-30"/>
    </g>
   </g>
   <g id="text_11">
    <!-- 1 -->
    <g style="fill: #7b8794" transform="translate(880.634344 215.055281) scale(0.11 -0.11)">
     <use xlink:href="#HelveticaNeue-31"/>
    </g>
   </g>
   <g id="patch_53">
    <path d="M 760.536 201.997049 
C 762.465989 201.997049 764.317191 201.33458 765.681899 200.155543 
C 767.046607 198.976505 767.8134 197.377163 767.8134 195.709753 
C 767.8134 194.042342 767.046607 192.443 765.681899 191.263962 
C 764.317191 190.084925 762.465989 189.422456 760.536 189.422456 
C 758.606011 189.422456 756.754809 190.084925 755.390101 191.263962 
C 754.025393 192.443 753.2586 194.042342 753.2586 195.709753 
C 753.2586 197.377163 754.025393 198.976505 755.390101 200.155543 
C 756.754809 201.33458 758.606011 201.997049 760.536 201.997049 
z
" clip-path="url(#p7b65e2b040)" style="fill: #2b6cb0; stroke: #2b6cb0; stroke-linejoin: miter"/>
   </g>
   <g id="text_12">
    <!-- segmented -->
    <g style="fill: #2b6cb0" transform="translate(733.024828 160.053377) scale(0.11 -0.11)">
     <use xlink:href="#HelveticaNeue-73"/>
     <use xlink:href="#HelveticaNeue-65" transform="translate(49.999985 0)"/>
     <use xlink:href="#HelveticaNeue-67" transform="translate(103.699982 0)"/>
     <use xlink:href="#HelveticaNeue-6d" transform="translate(161.099976 0)"/>
     <use xlink:href="#HelveticaNeue-65" transform="translate(246.399963 0)"/>
     <use xlink:href="#HelveticaNeue-6e" transform="translate(300.09996 0)"/>
     <use xlink:href="#HelveticaNeue-74" transform="translate(355.699951 0)"/>
     <use xlink:href="#HelveticaNeue-65" transform="translate(387.199936 0)"/>
     <use xlink:href="#HelveticaNeue-64" transform="translate(440.899933 0)"/>
    </g>
    <!-- ≈ 1/k -->
    <g style="fill: #2b6cb0" transform="translate(747.963344 171.77869) scale(0.11 -0.11)">
     <defs>
      <path id="HelveticaNeue-2248" d="M 230 544 
Q 256 717 310 886 
Q 365 1056 464 1190 
Q 563 1325 707 1408 
Q 851 1491 1056 1491 
Q 1267 1491 1494 1420 
Q 1722 1350 1952 1264 
Q 2182 1178 2400 1107 
Q 2618 1037 2810 1037 
Q 3027 1037 3139 1177 
Q 3251 1318 3290 1510 
L 3610 1510 
Q 3590 1331 3536 1164 
Q 3482 998 3382 867 
Q 3283 736 3136 659 
Q 2989 582 2784 582 
Q 2579 582 2342 652 
Q 2106 723 1869 809 
Q 1632 896 1417 969 
Q 1203 1043 1043 1043 
Q 838 1043 713 886 
Q 589 730 563 544 
L 230 544 
L 230 544 
z
M 230 1696 
Q 256 1869 310 2038 
Q 365 2208 464 2342 
Q 563 2477 707 2560 
Q 851 2643 1056 2643 
Q 1267 2643 1494 2572 
Q 1722 2502 1952 2416 
Q 2182 2330 2400 2259 
Q 2618 2189 2810 2189 
Q 3027 2189 3139 2329 
Q 3251 2470 3290 2662 
L 3610 2662 
Q 3590 2483 3536 2316 
Q 3482 2150 3382 2019 
Q 3283 1888 3136 1811 
Q 2989 1734 2784 1734 
Q 2579 1734 2342 1804 
Q 2106 1875 1869 1961 
Q 1632 2048 1417 2121 
Q 1203 2195 1043 2195 
Q 838 2195 713 2038 
Q 589 1882 563 1696 
L 230 1696 
L 230 1696 
z
" transform="scale(0.015625)"/>
      <path id="HelveticaNeue-2f" d="M 1779 4678 
L -109 -102 
L 352 -102 
L 2246 4678 
L 1779 4678 
z
" transform="scale(0.015625)"/>
     </defs>
     <use xlink:href="#HelveticaNeue-2248"/>
     <use xlink:href="#HelveticaNeue-20" transform="translate(59.999985 0)"/>
     <use xlink:href="#HelveticaNeue-31" transform="translate(87.799973 0)"/>
     <use xlink:href="#HelveticaNeue-2f" transform="translate(143.399963 0)"/>
     <use xlink:href="#HelveticaNeue-6b" transform="translate(176.699951 0)"/>
    </g>
   </g>
   <g id="patch_54">
    <path d="M 883.692 201.997049 
C 885.621989 201.997049 887.473191 201.33458 888.837899 200.155543 
C 890.202607 198.976505 890.9694 197.377163 890.9694 195.709753 
C 890.9694 194.042342 890.202607 192.443 888.837899 191.263962 
C 887.473191 190.084925 885.621989 189.422456 883.692 189.422456 
C 881.762011 189.422456 879.910809 190.084925 878.546101 191.263962 
C 877.181393 192.443 876.4146 194.042342 876.4146 195.709753 
C 876.4146 197.377163 877.181393 198.976505 878.546101 200.155543 
C 879.910809 201.33458 881.762011 201.997049 883.692 201.997049 
z
" clip-path="url(#p7b65e2b040)" style="fill: #c0392b; stroke: #c0392b; stroke-linejoin: miter"/>
   </g>
   <g id="text_13">
    <!-- flat -->
    <g style="fill: #c0392b" transform="translate(876.157 160.185721) scale(0.11 -0.11)">
     <use xlink:href="#HelveticaNeue-66"/>
     <use xlink:href="#HelveticaNeue-6c" transform="translate(29.599991 0)"/>
     <use xlink:href="#HelveticaNeue-61" transform="translate(51.799988 0)"/>
     <use xlink:href="#HelveticaNeue-74" transform="translate(105.499985 0)"/>
    </g>
    <!-- ≈ 1.0 -->
    <g style="fill: #c0392b" transform="translate(871.219031 171.77869) scale(0.11 -0.11)">
     <defs>
      <path id="HelveticaNeue-2e" d="M 531 710 
L 531 0 
L 1242 0 
L 1242 710 
L 531 710 
z
" transform="scale(0.015625)"/>
     </defs>
     <use xlink:href="#HelveticaNeue-2248"/>
     <use xlink:href="#HelveticaNeue-20" transform="translate(59.999985 0)"/>
     <use xlink:href="#HelveticaNeue-31" transform="translate(87.799973 0)"/>
     <use xlink:href="#HelveticaNeue-2e" transform="translate(143.399963 0)"/>
     <use xlink:href="#HelveticaNeue-30" transform="translate(171.199951 0)"/>
    </g>
   </g>
   <g id="line2d_6">
    <path d="M 737.5842 274.832962 
L 744.3018 281.797352 
L 757.28916 265.547109 
" clip-path="url(#p7b65e2b040)" style="fill: none; stroke: #2b6cb0; stroke-width: 3.2; stroke-linecap: round"/>
   </g>
   <g id="text_14">
    <!-- separated -->
    <g style="fill: #2b6cb0" transform="translate(763.335 277.928247) scale(0.13 -0.13)">
     <use xlink:href="#HelveticaNeue-73"/>
     <use xlink:href="#HelveticaNeue-65" transform="translate(49.999985 0)"/>
     <use xlink:href="#HelveticaNeue-70" transform="translate(103.699982 0)"/>
     <use xlink:href="#HelveticaNeue-61" transform="translate(162.999969 0)"/>
     <use xlink:href="#HelveticaNeue-72" transform="translate(216.699966 0)"/>
     <use xlink:href="#HelveticaNeue-61" transform="translate(249.999954 0)"/>
     <use xlink:href="#HelveticaNeue-74" transform="translate(303.699951 0)"/>
     <use xlink:href="#HelveticaNeue-65" transform="translate(335.199936 0)"/>
     <use xlink:href="#HelveticaNeue-64" transform="translate(388.899933 0)"/>
    </g>
   </g>
   <g id="text_15">
    <!-- Standard GNNs can't separate these estates. A Grothendieck cover can. -->
    <g style="fill: #1f2933" transform="translate(250.517461 367.401314) scale(0.135 -0.135)">
     <defs>
      <path id="HelveticaNeue-27" d="M 672 4570 
L 672 2918 
L 1107 2918 
L 1107 4570 
L 672 4570 
z
" transform="scale(0.015625)"/>
     </defs>
     <use xlink:href="#HelveticaNeue-53"/>
     <use xlink:href="#HelveticaNeue-74" transform="translate(64.799988 0)"/>
     <use xlink:href="#HelveticaNeue-61" transform="translate(96.299973 0)"/>
     <use xlink:href="#HelveticaNeue-6e" transform="translate(149.999969 0)"/>
     <use xlink:href="#HelveticaNeue-64" transform="translate(205.59996 0)"/>
     <use xlink:href="#HelveticaNeue-61" transform="translate(264.899948 0)"/>
     <use xlink:href="#HelveticaNeue-72" transform="translate(318.599945 0)"/>
     <use xlink:href="#HelveticaNeue-64" transform="translate(350.149933 0)"/>
     <use xlink:href="#HelveticaNeue-20" transform="translate(409.449921 0)"/>
     <use xlink:href="#HelveticaNeue-47" transform="translate(437.249908 0)"/>
     <use xlink:href="#HelveticaNeue-4e" transform="translate(513.149902 0)"/>
     <use xlink:href="#HelveticaNeue-4e" transform="translate(585.349884 0)"/>
     <use xlink:href="#HelveticaNeue-73" transform="translate(657.549866 0)"/>
     <use xlink:href="#HelveticaNeue-20" transform="translate(707.54985 0)"/>
     <use xlink:href="#HelveticaNeue-63" transform="translate(735.349838 0)"/>
     <use xlink:href="#HelveticaNeue-61" transform="translate(789.049835 0)"/>
     <use xlink:href="#HelveticaNeue-6e" transform="translate(842.749832 0)"/>
     <use xlink:href="#HelveticaNeue-27" transform="translate(898.349823 0)"/>
     <use xlink:href="#HelveticaNeue-74" transform="translate(926.149811 0)"/>
     <use xlink:href="#HelveticaNeue-20" transform="translate(957.649796 0)"/>
     <use xlink:href="#HelveticaNeue-73" transform="translate(985.449783 0)"/>
     <use xlink:href="#HelveticaNeue-65" transform="translate(1035.449768 0)"/>
     <use xlink:href="#HelveticaNeue-70" transform="translate(1089.149765 0)"/>
     <use xlink:href="#HelveticaNeue-61" transform="translate(1148.449753 0)"/>
     <use xlink:href="#HelveticaNeue-72" transform="translate(1202.14975 0)"/>
     <use xlink:href="#HelveticaNeue-61" transform="translate(1235.449738 0)"/>
     <use xlink:href="#HelveticaNeue-74" transform="translate(1289.149734 0)"/>
     <use xlink:href="#HelveticaNeue-65" transform="translate(1320.649719 0)"/>
     <use xlink:href="#HelveticaNeue-20" transform="translate(1374.349716 0)"/>
     <use xlink:href="#HelveticaNeue-74" transform="translate(1402.149704 0)"/>
     <use xlink:href="#HelveticaNeue-68" transform="translate(1433.649689 0)"/>
     <use xlink:href="#HelveticaNeue-65" transform="translate(1489.24968 0)"/>
     <use xlink:href="#HelveticaNeue-73" transform="translate(1542.949677 0)"/>
     <use xlink:href="#HelveticaNeue-65" transform="translate(1592.949661 0)"/>
     <use xlink:href="#HelveticaNeue-20" transform="translate(1646.649658 0)"/>
     <use xlink:href="#HelveticaNeue-65" transform="translate(1674.449646 0)"/>
     <use xlink:href="#HelveticaNeue-73" transform="translate(1728.149643 0)"/>
     <use xlink:href="#HelveticaNeue-74" transform="translate(1778.149628 0)"/>
     <use xlink:href="#HelveticaNeue-61" transform="translate(1809.649612 0)"/>
     <use xlink:href="#HelveticaNeue-74" transform="translate(1863.349609 0)"/>
     <use xlink:href="#HelveticaNeue-65" transform="translate(1894.849594 0)"/>
     <use xlink:href="#HelveticaNeue-73" transform="translate(1948.549591 0)"/>
     <use xlink:href="#HelveticaNeue-2e" transform="translate(1998.549576 0)"/>
     <use xlink:href="#HelveticaNeue-20" transform="translate(2026.349564 0)"/>
     <use xlink:href="#HelveticaNeue-41" transform="translate(2054.149551 0)"/>
     <use xlink:href="#HelveticaNeue-20" transform="translate(2118.949539 0)"/>
     <use xlink:href="#HelveticaNeue-47" transform="translate(2146.749527 0)"/>
     <use xlink:href="#HelveticaNeue-72" transform="translate(2222.649521 0)"/>
     <use xlink:href="#HelveticaNeue-6f" transform="translate(2254.199509 0)"/>
     <use xlink:href="#HelveticaNeue-74" transform="translate(2311.599503 0)"/>
     <use xlink:href="#HelveticaNeue-68" transform="translate(2343.099487 0)"/>
     <use xlink:href="#HelveticaNeue-65" transform="translate(2398.699478 0)"/>
     <use xlink:href="#HelveticaNeue-6e" transform="translate(2452.399475 0)"/>
     <use xlink:href="#HelveticaNeue-64" transform="translate(2507.999466 0)"/>
     <use xlink:href="#HelveticaNeue-69" transform="translate(2567.299454 0)"/>
     <use xlink:href="#HelveticaNeue-65" transform="translate(2589.499451 0)"/>
     <use xlink:href="#HelveticaNeue-63" transform="translate(2643.199448 0)"/>
     <use xlink:href="#HelveticaNeue-6b" transform="translate(2696.899445 0)"/>
     <use xlink:href="#HelveticaNeue-20" transform="translate(2748.799438 0)"/>
     <use xlink:href="#HelveticaNeue-63" transform="translate(2776.599426 0)"/>
     <use xlink:href="#HelveticaNeue-6f" transform="translate(2830.299423 0)"/>
     <use xlink:href="#HelveticaNeue-76" transform="translate(2887.699417 0)"/>
     <use xlink:href="#HelveticaNeue-65" transform="translate(2937.699402 0)"/>
     <use xlink:href="#HelveticaNeue-72" transform="translate(2991.399399 0)"/>
     <use xlink:href="#HelveticaNeue-20" transform="translate(3024.699387 0)"/>
     <use xlink:href="#HelveticaNeue-63" transform="translate(3052.499374 0)"/>
     <use xlink:href="#HelveticaNeue-61" transform="translate(3106.199371 0)"/>
     <use xlink:href="#HelveticaNeue-6e" transform="translate(3159.899368 0)"/>
     <use xlink:href="#HelveticaNeue-2e" transform="translate(3215.499359 0)"/>
    </g>
   </g>
  </g>
 </g>
 <defs>
  <clipPath id="p7b65e2b040">
   <rect x="21.6" y="21.6" width="895.68" height="338.546741"/>
  </clipPath>
 </defs>
</svg>
